<mxfile host="app.diagrams.net" modified="2021-06-03T20:02:50.360Z" agent="5.0 (X11)" etag="-3T3Dax-DPB13-2gxtz_" version="14.7.4" type="github">
  <diagram name="Page-1" id="bfe91b75-5d2c-26a0-9c1d-138518896778">
    <mxGraphModel dx="688" dy="1110" grid="1" gridSize="10" guides="1" tooltips="1" connect="1" arrows="1" fold="1" page="1" pageScale="1" pageWidth="1100" pageHeight="850" background="none" math="0" shadow="0">
      <root>
        <mxCell id="0" />
        <mxCell id="1" parent="0" />
        <mxCell id="UJRfoMLF_sfYYdu0p_u--3" style="edgeStyle=orthogonalEdgeStyle;rounded=0;orthogonalLoop=1;jettySize=auto;html=1;exitX=0.5;exitY=1;exitDx=0;exitDy=0;exitPerimeter=0;entryX=0.5;entryY=0;entryDx=0;entryDy=0;entryPerimeter=0;" edge="1" parent="1" source="UJRfoMLF_sfYYdu0p_u--1" target="UJRfoMLF_sfYYdu0p_u--2">
          <mxGeometry relative="1" as="geometry" />
        </mxCell>
        <mxCell id="UJRfoMLF_sfYYdu0p_u--1" value="Internet" style="html=1;outlineConnect=0;fillColor=#CCCCCC;strokeColor=#6881B3;gradientColor=none;gradientDirection=north;strokeWidth=2;shape=mxgraph.networks.cloud;fontColor=#ffffff;" vertex="1" parent="1">
          <mxGeometry x="130" y="100" width="90" height="50" as="geometry" />
        </mxCell>
        <mxCell id="UJRfoMLF_sfYYdu0p_u--18" style="edgeStyle=orthogonalEdgeStyle;rounded=0;orthogonalLoop=1;jettySize=auto;html=1;" edge="1" parent="1" source="UJRfoMLF_sfYYdu0p_u--2" target="UJRfoMLF_sfYYdu0p_u--15">
          <mxGeometry relative="1" as="geometry">
            <Array as="points">
              <mxPoint x="175" y="680" />
            </Array>
          </mxGeometry>
        </mxCell>
        <mxCell id="UJRfoMLF_sfYYdu0p_u--19" style="edgeStyle=orthogonalEdgeStyle;rounded=0;orthogonalLoop=1;jettySize=auto;html=1;entryX=0;entryY=0.5;entryDx=0;entryDy=0;" edge="1" parent="1" source="UJRfoMLF_sfYYdu0p_u--2" target="UJRfoMLF_sfYYdu0p_u--12">
          <mxGeometry relative="1" as="geometry" />
        </mxCell>
        <mxCell id="UJRfoMLF_sfYYdu0p_u--20" style="edgeStyle=orthogonalEdgeStyle;rounded=0;orthogonalLoop=1;jettySize=auto;html=1;exitX=1;exitY=0.5;exitDx=0;exitDy=0;exitPerimeter=0;entryX=-0.002;entryY=0.457;entryDx=0;entryDy=0;entryPerimeter=0;" edge="1" parent="1" source="UJRfoMLF_sfYYdu0p_u--2" target="UJRfoMLF_sfYYdu0p_u--4">
          <mxGeometry relative="1" as="geometry" />
        </mxCell>
        <mxCell id="UJRfoMLF_sfYYdu0p_u--2" value="&lt;div&gt;&lt;pre&gt;Sky Hub&lt;/pre&gt;&lt;/div&gt;&lt;div&gt;&lt;pre&gt;(192.168.0.1/16)&lt;/pre&gt;&lt;/div&gt;" style="fontColor=#0066CC;verticalAlign=top;verticalLabelPosition=bottom;labelPosition=center;align=center;html=1;outlineConnect=0;fillColor=#CCCCCC;strokeColor=#6881B3;gradientColor=none;gradientDirection=north;strokeWidth=2;shape=mxgraph.networks.hub;" vertex="1" parent="1">
          <mxGeometry x="125" y="210" width="100" height="30" as="geometry" />
        </mxCell>
        <mxCell id="UJRfoMLF_sfYYdu0p_u--4" value="&lt;div&gt;&lt;pre&gt;DHCP Devices (192.168.0.2-192.168.1.254)&lt;/pre&gt;&lt;/div&gt;" style="rounded=1;whiteSpace=wrap;html=1;dashed=1;fillColor=none;dashPattern=1 1;strokeWidth=2;align=left;verticalAlign=top;labelPosition=center;verticalLabelPosition=middle;spacingTop=0;spacingLeft=10;" vertex="1" parent="1">
          <mxGeometry x="340" y="80" width="680" height="200" as="geometry" />
        </mxCell>
        <mxCell id="UJRfoMLF_sfYYdu0p_u--5" value="My Laptop" style="fontColor=#0066CC;verticalAlign=top;verticalLabelPosition=bottom;labelPosition=center;align=center;html=1;outlineConnect=0;fillColor=#CCCCCC;strokeColor=#6881B3;gradientColor=none;gradientDirection=north;strokeWidth=2;shape=mxgraph.networks.laptop;dashed=1;dashPattern=1 1;" vertex="1" parent="1">
          <mxGeometry x="790" y="180" width="100" height="55" as="geometry" />
        </mxCell>
        <mxCell id="UJRfoMLF_sfYYdu0p_u--6" value="Partners Laptop" style="fontColor=#0066CC;verticalAlign=top;verticalLabelPosition=bottom;labelPosition=center;align=center;html=1;outlineConnect=0;fillColor=#CCCCCC;strokeColor=#6881B3;gradientColor=none;gradientDirection=north;strokeWidth=2;shape=mxgraph.networks.laptop;dashed=1;dashPattern=1 1;" vertex="1" parent="1">
          <mxGeometry x="905" y="180" width="100" height="55" as="geometry" />
        </mxCell>
        <mxCell id="UJRfoMLF_sfYYdu0p_u--7" value="Partners Phone" style="fontColor=#0066CC;verticalAlign=top;verticalLabelPosition=bottom;labelPosition=center;align=center;html=1;outlineConnect=0;fillColor=#CCCCCC;strokeColor=#6881B3;gradientColor=none;gradientDirection=north;strokeWidth=2;shape=mxgraph.networks.mobile;dashed=1;dashPattern=1 1;" vertex="1" parent="1">
          <mxGeometry x="940" y="100" width="30" height="50" as="geometry" />
        </mxCell>
        <mxCell id="UJRfoMLF_sfYYdu0p_u--8" value="My Phone" style="fontColor=#0066CC;verticalAlign=top;verticalLabelPosition=bottom;labelPosition=center;align=center;html=1;outlineConnect=0;fillColor=#CCCCCC;strokeColor=#6881B3;gradientColor=none;gradientDirection=north;strokeWidth=2;shape=mxgraph.networks.mobile;dashed=1;dashPattern=1 1;" vertex="1" parent="1">
          <mxGeometry x="827.5" y="100" width="25" height="50" as="geometry" />
        </mxCell>
        <mxCell id="UJRfoMLF_sfYYdu0p_u--11" value="IoT Devices" style="fontColor=#0066CC;verticalAlign=top;verticalLabelPosition=bottom;labelPosition=center;align=center;html=1;outlineConnect=0;fillColor=#CCCCCC;strokeColor=#6881B3;gradientColor=none;gradientDirection=north;strokeWidth=2;shape=mxgraph.networks.unsecure;dashed=1;dashPattern=1 1;" vertex="1" parent="1">
          <mxGeometry x="730" y="100" width="40" height="50" as="geometry" />
        </mxCell>
        <mxCell id="UJRfoMLF_sfYYdu0p_u--12" value="&lt;div&gt;&lt;pre&gt;Static Devices A (192.168.2.1-192.168.3.254)&lt;/pre&gt;&lt;/div&gt;" style="rounded=1;whiteSpace=wrap;html=1;dashed=1;fillColor=none;dashPattern=1 1;strokeWidth=2;align=left;verticalAlign=top;labelPosition=center;verticalLabelPosition=middle;spacingTop=0;spacingLeft=10;" vertex="1" parent="1">
          <mxGeometry x="340" y="300" width="680" height="200" as="geometry" />
        </mxCell>
        <mxCell id="UJRfoMLF_sfYYdu0p_u--13" value="&lt;div&gt;&lt;pre&gt;Static Devices B - Server (192.168.4.0-192.168.5.254)&lt;/pre&gt;&lt;/div&gt;" style="rounded=1;whiteSpace=wrap;html=1;dashed=1;fillColor=none;dashPattern=1 1;strokeWidth=2;align=left;verticalAlign=top;labelPosition=center;verticalLabelPosition=middle;spacingTop=0;spacingLeft=10;" vertex="1" parent="1">
          <mxGeometry x="340" y="520" width="680" height="320" as="geometry" />
        </mxCell>
        <mxCell id="UJRfoMLF_sfYYdu0p_u--14" value="&lt;div&gt;Desktop PC&lt;/div&gt;&lt;div&gt;192.168.2.1&lt;br&gt;&lt;/div&gt;" style="fontColor=#0066CC;verticalAlign=top;verticalLabelPosition=bottom;labelPosition=center;align=center;html=1;outlineConnect=0;fillColor=#CCCCCC;strokeColor=#6881B3;gradientColor=none;gradientDirection=north;strokeWidth=2;shape=mxgraph.networks.pc;dashed=1;dashPattern=1 1;" vertex="1" parent="1">
          <mxGeometry x="900" y="355" width="100" height="70" as="geometry" />
        </mxCell>
        <mxCell id="UJRfoMLF_sfYYdu0p_u--21" style="edgeStyle=orthogonalEdgeStyle;rounded=0;orthogonalLoop=1;jettySize=auto;html=1;exitX=1;exitY=0.5;exitDx=0;exitDy=0;exitPerimeter=0;entryX=0;entryY=0.5;entryDx=0;entryDy=0;entryPerimeter=0;" edge="1" parent="1" source="UJRfoMLF_sfYYdu0p_u--15" target="UJRfoMLF_sfYYdu0p_u--16">
          <mxGeometry relative="1" as="geometry" />
        </mxCell>
        <mxCell id="UJRfoMLF_sfYYdu0p_u--22" style="edgeStyle=orthogonalEdgeStyle;rounded=0;orthogonalLoop=1;jettySize=auto;html=1;exitX=1;exitY=0.5;exitDx=0;exitDy=0;exitPerimeter=0;entryX=0;entryY=0.5;entryDx=0;entryDy=0;entryPerimeter=0;" edge="1" parent="1" source="UJRfoMLF_sfYYdu0p_u--15" target="UJRfoMLF_sfYYdu0p_u--17">
          <mxGeometry relative="1" as="geometry" />
        </mxCell>
        <mxCell id="UJRfoMLF_sfYYdu0p_u--15" value="&lt;div&gt;Espresso&lt;/div&gt;&lt;div&gt;192.168.4.1&lt;br&gt;&lt;/div&gt;" style="fontColor=#0066CC;verticalAlign=top;verticalLabelPosition=bottom;labelPosition=center;align=center;html=1;outlineConnect=0;fillColor=#CCCCCC;strokeColor=#6881B3;gradientColor=none;gradientDirection=north;strokeWidth=2;shape=mxgraph.networks.server;dashed=1;dashPattern=1 1;" vertex="1" parent="1">
          <mxGeometry x="370" y="630" width="90" height="100" as="geometry" />
        </mxCell>
        <mxCell id="UJRfoMLF_sfYYdu0p_u--32" style="edgeStyle=orthogonalEdgeStyle;rounded=0;orthogonalLoop=1;jettySize=auto;html=1;exitX=1;exitY=0.5;exitDx=0;exitDy=0;exitPerimeter=0;entryX=0;entryY=0.5;entryDx=0;entryDy=0;" edge="1" parent="1" source="UJRfoMLF_sfYYdu0p_u--16" target="UJRfoMLF_sfYYdu0p_u--29">
          <mxGeometry relative="1" as="geometry" />
        </mxCell>
        <mxCell id="UJRfoMLF_sfYYdu0p_u--33" style="edgeStyle=orthogonalEdgeStyle;rounded=0;orthogonalLoop=1;jettySize=auto;html=1;exitX=1;exitY=0.5;exitDx=0;exitDy=0;exitPerimeter=0;entryX=0;entryY=0.5;entryDx=0;entryDy=0;" edge="1" parent="1" source="UJRfoMLF_sfYYdu0p_u--16" target="UJRfoMLF_sfYYdu0p_u--28">
          <mxGeometry relative="1" as="geometry" />
        </mxCell>
        <mxCell id="UJRfoMLF_sfYYdu0p_u--16" value="&lt;div&gt;Cappuccino&lt;/div&gt;&lt;div&gt;192.168.4.2&lt;br&gt;&lt;/div&gt;" style="fontColor=#0066CC;verticalAlign=top;verticalLabelPosition=bottom;labelPosition=center;align=center;html=1;outlineConnect=0;fillColor=#CCCCCC;strokeColor=#6881B3;gradientColor=none;gradientDirection=north;strokeWidth=2;shape=mxgraph.networks.server;dashed=1;dashPattern=1 1;" vertex="1" parent="1">
          <mxGeometry x="520" y="600" width="40" height="40" as="geometry" />
        </mxCell>
        <mxCell id="UJRfoMLF_sfYYdu0p_u--17" value="&lt;div&gt;Ristretto&lt;/div&gt;&lt;div&gt;192.168.4.3&lt;br&gt;&lt;/div&gt;" style="fontColor=#0066CC;verticalAlign=top;verticalLabelPosition=bottom;labelPosition=center;align=center;html=1;outlineConnect=0;fillColor=#CCCCCC;strokeColor=#6881B3;gradientColor=none;gradientDirection=north;strokeWidth=2;shape=mxgraph.networks.server;dashed=1;dashPattern=1 1;" vertex="1" parent="1">
          <mxGeometry x="520" y="720" width="40" height="40" as="geometry" />
        </mxCell>
        <mxCell id="UJRfoMLF_sfYYdu0p_u--23" value="&lt;div&gt;&lt;pre&gt;Cappuccino Services [metallb] (192.168.5.0/24)&lt;/pre&gt;&lt;/div&gt;" style="rounded=1;whiteSpace=wrap;html=1;dashed=1;fillColor=none;dashPattern=1 1;strokeWidth=2;align=left;verticalAlign=top;labelPosition=center;verticalLabelPosition=middle;spacingTop=0;spacingLeft=10;" vertex="1" parent="1">
          <mxGeometry x="600" y="580" width="400" height="240" as="geometry" />
        </mxCell>
        <mxCell id="UJRfoMLF_sfYYdu0p_u--25" value="" style="shape=image;verticalLabelPosition=bottom;labelBackgroundColor=#ffffff;verticalAlign=top;aspect=fixed;imageAspect=0;image=data:image/png,iVBORw0KGgoAAAANSUhEUgAAASwAAAEsCAYAAAB5fY51AAAABHNCSVQICAgIfAhkiAAAIABJREFUeJzsvXm8bVlV3/sdc+19zrld9UBBFQiFgHRSUARRQECC2AYb0AQjauwSoz6jJjGfmEdiTNQ8o9H0MY15RpNgxORhIJIYRUVFQDR8aAqRqoKqoqjm9qfZzZrj/THHmGuutdfeZ597z7m7oPaoOvecvddcc801mzHH+I1mwprWtKY1rWlNa1rTmta0pjWtaU1rWtOa1rSmNa1pTWta05rWtKY1rWlNa1rTmta0pjWtaU1rWtOa1rSmNa1pTWta05rWtKY1rWlNa1rTmta0pjWtaU1rWtOa1rSmNa1pTWta05rWtKY1rWlNa1rTmta0pjWtaU1rWtOa1rSmNa1pTWta05rWtKY1rWlNa1rTmta0pjWtaU1rWtOa1rSmNa1pTWta05rWtKY1rWlNa1rTmta0pjWtaU1rWtOa1rSmNa1pTWta06GSrLoBl0Tf97++g4HcRhWukqq6HuGY1vUGChIEKV5LAVT76xFaZVNRKyvtK616pLkigKKpQE9980iLf/2eVL32PzvYh9g/aKmM1VMUlvyUkD+3y1wpiva73Y7mkveF/0XzzkjxDiBeV9RDmcC6T9+m1pUjlsZstmxnLgUrHWdmJFClB9Kem+VYS7TxDEUDM7W/U0n9inorZsZ3DOyq8hBRzxPrd/MjL/vnM6/wMKdPHYb1ff/z6xmGr2RQvRThOCJbqfk2xVUBRSS0GAqAxtiUKyZIf9kaELtWfK8KavXYPSLOaGJ6voT83aWQRn8HmW2Xt3mZevLCTvVp0U+SF96VZlgNOcNp2pU+JTYQ8yco31dw9iSthXtlaeE4aKdPxdspoDb/RNtlpT0nW8+wMhpsPqjNcwEkNJ8BQufZ866JpAfE6R6wQ+Q3GE/ezI+9/GcXvvjDhB7+DEuBH/y1P0TlWYRBlQc4+i5r5Xz8Z5iGEqMWlTU0WxZirNO1UHWkHDXG1zwzDKr00RiWiDG6S6RUD1ZPp132MWjPjd16rA2iiUEpglp9QWOrzCpINDbs09/T22f97+8rpDXd9w6roNwu7Vs83T4tGFYu3ZmwHearGG8DgjGsGFo7p1Up/Z9blS24ltQBCBXUUwV9H3/7Jc95uHOEh3fz/uavvZEQXgvBpBtt85xu65dYzL0kQrAF7AxrcfmDP09CSPKDS2MLyjglJplWRjgQg+nu2KFhDEZBjTEwK2VeNmlSa2fqzRLC/osrMTUlStWUj20u4WXS/BCTVkwKzhJMkpizlNMpowIqrppVVm/6iYEZxpCvVQfsM3/3XkmIrM6vhiS1SyPE+pf4oc9/zQobs5AengzrO3/1s7h6+F8J4Wkt0faoyBiW4irhUTwiSXOXxLCA0J3oB6CWJGPUSFrl7n/I1MewliRvn0rBbDv3N5JWAQ1kZt2VYLpl0mdFUWnf49KTYupY+UqGm8UDMBgRU8RjXNwnh71xHJiMcdX17ZzefS3/5JXvW3GDZmjVPTRLf+m/PY1rTv461eCxGZvSWT0/05xBbtQzJZoqJyIJb+p97YOLTc5EVLUB6xdSASk7k1S1NvWoqKrELHnYPbmdfYs00WUzoXkLp7u4ll1sUvwR91HnOur8/u+h/UM2h8mlSzIjg3YaWlxapFYdgParZ9F1GViZmktXI+ZQy8pBoybG+j7OjF/GT33B7Yf7wMuj1QEZffRtb3k215z8DarqscQpaET2kyyk/8eXsRZlNKsqffcUgOi8+mn/rQYEa7fc3J+2SqPd+sSkKv+vfKYBrw6jOx/Xnv9SIV38kxvR+bzfwuxjWouYtSTJsWX53K9N5c37UsGY+urpe87MO85h8E0nHw4tZOpLbJi9uNlltieYccnA/LTeFAbDG7lu8+1831uecZiPvFwarLoBLbph8xcJ1Y048A1oPV18T1STnPqYjeNehj9IMkbHvl3eAV1TDfPzcelJCM4wXBXJvw8yo1M95WchYSm9LhGOXRkY7/hLUlWEtOfonHsWTf5mR5dCUlzc9B5car8NRclqrfYxi3mSULcrFjXNjBQz9atCGNqHxoVA5zHp3CeV9WGksfTRXOtlG2oSUE8Z9XrErhVlc72hGbf8wlZGDYcTTRvXwnEt65xfzJ8pGlKbgtqmbs+sFcLGYzh1/S8DT9unpitGDx8J62/8r18khKdRYEhLqVlzyyRVa6k6SsmskMBU2tKTiiSpJ0txJtEsJV2V9XSkqU59haxEIc6hURsJC6+jK0B0Zuk8acaYz4HcMESypHcg6mMQXeY373P+OdgjUx099R60DUGWBMQP0sAly+b2KNlJbKZf5vTTEmWl+6ySVKGukRCeyht+740HeLkjpYeHhKXAD4bXEAtAetlFMU+66pRxt4M0WMGkYF9IvkP7Y32SaGedqQlsi9rWSHN9zQpZMuq2kX2+9zYB2nEHmNdXi67lMskyphpbj1hwQ28hkdC8r6sYuS9Ca1iVgml6ff7ZCyrGUJuP2QcJl1IaQN2g8KJ5hTTTbX/uE/+tnc/SlMv1lRKRMrvXd/W1cuLo7Pe9w6L2XEMq8xhrIz1mf67uW3lHpe0sz/We11ezuOc+bb1DUbHjq1X12r7WroIuZd86fPobv/aHVNVz6Kp/l7KT991jO6TY4izLq+vuHbcB1bp/8UpPPfkeW0RyMH+stL6UBlztU28vYaiCMwPprxMQGVjddaHqHvxRklUvI42pD0XSM8pLOrWxCmSVtqsi5Yr7vrD+V58v7voQyS4LXgYrk9+pq3otQ0X7skrWVQ0LFe5ySAJC//zKT1J/XnHbAeaHxunM/fPbU0EYQF3/IX/nhc9d+iFHRKtXCb/3V1+P8CwOw52gDx/Ju7hkiDzLOAIEMWyL1k9rMrbE6Nmy7fvmX5t/z6UAu0vU3Ag588vk/glIcOzmoG/QlViybNX67lLqFUntSj/BNoI57yDBAP6mjAR/r25bD9LP5TPnv4s/60A/1uZ8L8v0/7J92fcu+5XtuTdGQJ/N3/i1rz9g5x06rV4l3Ki+glBV1NPMcMQcBA+0hjvMqut1rpRe7M2kcMi6V5hyj/Gi7nllvQ1BqsVl+sg98fP8WbCo7LpQ7aOaQtrxXc2ovIk9ZGXUVJFl3OnnkFKblFmZZKWoTkjMZ2BtqDprQkDmTUUxjbHsVe+vQfHZ1fWKcpQ0+hwY2DNrlpaEJCCkd/BnqUl1JXTgkIQ/S2Qew+iSojpN5bWQNveZPfPHsPO5azBQk9xmNIRIA+yb5CipXVpbf1WDiuHmq4GfW+LFjoxWz7CQl3alKx0EMpp8VE+d83duwxL3LVP3MqT+70Fv3I8tBrNAZpXQF9J8Q0W7zKKy/SSGETbWCd8gvKqD1untmHet9fQFdTcg2vLqerlrprqz2b+A2pZr27JUvusy7ydzyhahZFaui8/Op55rsQbh5QtuuiJ04CVyqPRXfvU7ODb4h8DWMsVdJSidLVvXSDuChmB46TxWdLiv7bw1C0ciOQGBO0l04wQVGj8rXxhZ9azwrAaNqXxIg5NERIYsp9Ef9H2TCT69zzwT/kGfefl9rkTDrMTevaeMuvQUZnCz2fYtQ4sY5WHOoaa+7EeHZowu4YOSxiWWmFwhmepk/8fIIN2jB8CwmpsB3WNcfw8/8tJ/ecCbD41WK2FthNukGmwR6yU9xRdv0j1KQw8dPo/WwvysbVNZn6De36aZZvXfKcEsbqVFbf8WLlmuVL3m7dxL13TJbegjQRufr7kGBMj41aFI5weUQg7jWT2A+uG24zLGMwy2CPEFwCOUYUm4Oo2PzsTRlZQcPbW43jg7FpVZlZcXzNtkRZiPQ8S+r92NwX12ClgqXQ5ZkNJ9VZIOGFq4YqCakLd98atLI8nS3eFLopdHVcGE5rWrq3peWdKYsDo8YFvrNuMUgZYFUElStCKh2fQyppnrNW3C3GqQkMJn0pdWaEDLfUKt7nZFdkuYU0ZIVlT7WwRKi6IAIVy1TF8cFa2WYQWu8wFNc6xvVxebh0IU22l7qeQQl7H72a0RQXp2aXeDmb2gvsU3FakSpZ1kThft/n3v74aIQ5ZY9qeD41dXjha0S5cocyTki9/mgAo5w0guIsxspu4T5Uy2d2603U3aNWiuunXFmdtMPUpa9n3jq818E1dRi3Kqac2ukFbKsIRwPIUkKNlXSJrOaijt+L50D0pL56UsigVt1LQO+5wv3PS4VbgslWUDkX3b4w4YvQ1b0xWgkvksB9AnPtORnnolmQ6TyNK2OU0v4rOu7vZZIWcgAtc0tJGsWu/SB7w39WZ9pnxWkvSPL2jhkdNKGZaGMJSQJkX2Ou/TRGz3KGSx5Z+xr2WsVThTRDMfbbel2CWzqN6zc0JLwlq48XexGSnV33k3relwyKUbLayHEU0yNvttFg1ITsGgplbfMEEFuBOy0nWQlZCknZn4xj6SZPX1J7cu2T8lFiyWlVTpqoLz4nMLJqaGv5YB+6k7NhY38mhppQzLE/lCkjySyrdsVvTlSNxit7SUldhLGicpciWV1zt/LwiNydMrF+nsWP03Lt/eT1tKBozlfZrm15OoUbc1yw/z6rZNdInZKDPKuklWBUQgBDO/zHtWV5Kbo/6XIVkzNCdtknT/KLCy3rfpXIkFEwu6f3qgI6bVSljFv0CeHPNRKikYSneazJFyLokkByi39cEeMXxuFela7E6i0gEyB8r5hCgxrEeqVJU6XbPp3Y0Al1aXWmiOeD2aXEUUMenGIQhnKOl3w9D2H4fZaVA6xibGNd/NwuazubP0hd3kPFg5l1tPm1xqssgNjRHMBagxUPWlbO60xhJMzrfar3YjXbnj6EFev1SruvcdkdHs0miRy0Gf+hiKYNcMkj2cXuhKkx8CoofYF93Npvud9Je7IuPQBcvnwQHz2lgW7zAboeNAun87lnUxWgWtnGEdaELk8ZJZyeVAj1ziXk9n68zHmQk0Zue5aUeMo3q0fDc1bsvLFKDK+3p783z4TpyjJVOR3HIGXFpfCNKd4lIV8YiXWu/iZ7ovW4mJzYTJdMlCcwSfZ0rKRw9a+3yLSF+SSQporNCANUbmZQ1JZZP0pXl+zvoNPtxoxQwrZ3bat2QawyXB830rW4JhSUi+Mf5EkVn3pCXqSTyrR6XJDKvLpJwe7lPnKEnn/H059Sxb7wwO0FN22c0yTRZtqXP95fqwsnb8JA0QfiA6pDXzMKEVMywfJsujUIKBJaSQB8q+FGYzXXourV6Vq/M5LhhALyu+3xSntvj82WdzTnzIkwcODIMtrTcHwMLWdEnk/d2XdqUB8ztlgx184QCmKCIppErVA5s7p61qc1DIzHPSHck4pwbO+xzt3hM04W2la0Os2/Pc1sJSVOAnc1PP7Gc08vZ6hQroIxh0hwZ4b/yOSm5gHGuZE2Ny57unrnWwzHrFNwefzjSkU1bb47PsXHEDUfcZ8+9YruI1HYDmm26gy7Tsu9g+7ivhQcUxYRRz50DtCB1caR5wHltfSwiHMjOWwrAWvVPLOLTaubpix9EkDGeVqey00i9lnp9TqzLJOJM4BiIeWW86et4lZZaR5LnblX5skA4E/jZ54JvKJTdzTZdGuUcdD9Jg33mm0XKMfAPrJiVUiz4RckbNXD6LNmTXhHxzj+NnV1KaI3m3GIZI01RSO5IzcVILNYffFNa+SyCJEVEt4lzLWZjfcpa6jCtv4EIw94xVsqyVMqxIR4Wb2YUK6mYTXWCF09bEkaZsvmWRCDz7hQR3LlycCXKmEmlwiCa1x5ouhdzcn5aLST22KahYPB6eU6qcUoZGlznHfBxMAJ6xiokiYswsX+oeRkFmNPmzH+ZRL8jcanMiS/J+QEdXRdTiiLd2JyymHOqmIJ4G2a91mtQ3HUs10Q1ORfjcijXCVUtYknYyx3gWiB8ta4fI/KI5BqqkvoyR8yg/pPndOm9rGZJCHTzovY8E6oLai4qWwKEbKTpj5GWkp96u75IZbnwhz8N3tMCSWucYlpufSUIZd1qEjTrlMo6XkaSgEuP0R3U+Zzx3UZeZBOfMGGg5m3b3zZn3KoWHDiac+upw1NRLpRU7jrY5+MKyqpTHJ829I+8mkZxZUga0t5pFDyoi7m2BNM07yFCF5Z/5CCMVd4Rssk7kYNti4STWUoPWJHcEl3Dt4IzYzgGV2NCEVl50X92exSO251uvz5ExBm+XQwgKLUGrbGuS8EhS0aL53JX2hdny/rGMwim0g1Kl7JIY80wnKhXSkjE69c/d9vS1s5P5JArLKxlHRCvO1uCHOC5ZvoSFZmgOgLC0ZHWQ8t3ry0gMawkrU0ut6JdA22b+eVLqASbPJWwenus/xsIyuECKyircPNypgyfBLOMpZ19rVpU8ZuFUksZbppSMeqyigOVXK7QbKcJzOtJn0nJWO49XzLAOykzmnGRTSkTqJ6dcIu2blVGYyT+en2mHUq6plxpXg/mZTA90TqJTDkdxNS72nMLVBXA61+a012N/Z9apLXLRHh+qOfnOSkGpN6eaPUfdtcbxLTnAnh56EhEtkPhmrpW+Xs7I7HeDZK2OVu7WcDikc/7e755e1PESnjUzRTr17CeBzWvLQb6fQTwu4/ujaKPO+f4QqOWnl36pS0V9i7V3aGYZmmNB+5p2Z6S3OdK+SBOGtYhC+37tjNWi+/sY0CWZpt1KOdN/j2QJK2qKAJ+x0lxCp1i+717m4YGheWc3B71cvpCMMoZVhm/0PUsbaazvuZ1nljjYrBRxUDXyIIz24fJ9eQiCf9VJcFdSLHJsuN+STow3OGMqgOGZ/p/TKoX+6BZppJ7CcKOL1DxzG9DQea9MDnlo+57+pjXkaqdDZHbmo8Yp6VDVVrO7r1E8y95lEYKxgFoYXfqCuedHXiFaMcNy/6iiBy/LUWmuzL/P3y6sz8PB9qlvJrujzpbJdBDQ7tOZfPeeo74vAq7LPGT7lS9zjWnHzD+vbKuZMv9at0yXNFrWF1l+XgttBlFccANAzKmOFz07/zNb5lKCmx8GTqOwcrcGwwaW6dD9/LKWopSUrbfbbRLMeD9rl5mV7XOv59h8zmqJ4zXJrN7sVsHCPJrJ9KkHx6tJR5ItY3OxJ6X9vgj5vMRFi2AZz+uyXCvMZFa9a9/XXchLjMBB55pImtw+v2c25k75ea8rNL5kud3+p+AnG+nMCdfq4ikiA2PWdi6nS/304L15D+/pV3NrWCWtGMOKoNXiyQn9k6UAA5cmrU0T7JstxqDsENfMo5JeMKfC6axkNQMh1G0cZAbauUSMYaUU0ZiOoXcVbf4I9vT1MmpFd4F3r9lzW5JPSBgRqhZbSj/c4CEv3Swah0n7OTqH0mcBc7co2wlUBYMttUTDuKT07O/OVbFyjS9D+hHNfyfP+rKNPe0s6WGgHKzccbRXwlqGLmWhL9vZ2vntu3Y+Y8CeW6ag2feZNkFLbEyKQws+pch32nJBzbPM9khRfdJGd2wE5h142o3Lk5lFB01M6ey9TbBzaGNiV5Akz9/Uj6W002B9xfvPgy3dj82SBqbQHjXJvS1BNv3Z/G7J96I5NEiCaxjlw1dvAV99aI5lgFwIcsPspFrS4bSXut68JXUwD0jRjjmjacmgur/L+txlwydP6L5fk2vb4w4vyaS/EpLCiZP0mgt3g86ht+Yo5HnMsy9Q65Ylota6zqbpw/7Nz0XbZZdFMA+DGkZZ5MDK75NKLAcWuOjlTEl6XqRdpvWGLX+NwofLVcxyY5LAvnm9jphWnNM9iaQ5rUxWx+Yo+OWCvpzF3XGUy991SaTJwS89p910gdjuTr9fE1shJvsVfngzs0XHv3cZQxP20nzfMGtbtBI7/XP0bGTGKrY0zQOk5tRTSo/q6pllWC2LOWDvG6b1g0Ch+tYQquQzZpNOu++Q9N+iYmn1rUdENtBYI52laJRybB7BGJbvMpI3gHmShsn5ErJ/zUxO93Lz2O+g0nmYmLWn/KwFTuPXxTAYNSmjdX5lHts2Q1Tq7NeSo/D9UVX/rqUW7pEm2OrF8YWk8/tcOp9UJ60NIgcLQzbhN0aQQRp3rZfDvi6HFqr2PWotgITURsrUxMmoIC2XFp/bXl+rcmgxBgBJJy5lLqLIZI948TRBa1SGUE/QeoRubCInroXNk0QVQr2H7l6AeopsDJFqgzjcyoJBysKcmE+CZSz3ewQJNarRsjzQQF40v1cJY63ccbRv/HyMZiZ6cUdp62t1YJkWZK7lagEgut/uKhjY2d/mXJ/jW4WK6RO6e/LJwhQi0k0VvKaVkPi8E9P0+5atMYQMBzTfzaz6GepKZZEwHWW4gPE28eKDUE+T1BNjQiCqCnYuwmgXtk4iCnG8S6hHUNdoJcQoyPGr4ZobkuOqBDTWhOkeYvVJNYSqItRCjJFg0IdWFXpYmX4PgVbu1lD+61aLaAPSK2mZhaSb0z1k0LeYHF1YRLwsGZ9ycduZiGGNCV+D4li2jOYSJVCCzDOhE31AfFnAJYrMrdsMtDkuPn/DI4U0OnbioK8HPzNf8yppXzV8wbXsCDy/UL4izR/t7KZi0mYzD5fBJhUIEpC6Jo7PozvnYO+iWa2rVEJTnq4I6bt8YMUQnU7Q8w9mrDT6ZunTdPc8YbpH3AhEAkxrYl1DbQ7XIRAGFVMJabOtFRlswYlTyOYxtBoYLPIIdhyNuN5dSksOGhbHd+fP8yeTeTuxTN73iElJXi/k+2awff9H8iea3XOJXWfeZBUaHMIwDdV9MLxPG1r0Pt1rRZ+Xqa7zplOQyAKIxe7tZGtYvl3zaME9woJntQuK1sTt03D+IZjuEICogoSqMT441CHSvL/rbAJUw46hQvJrKyCTCTIFtCZUgRgto65hGrFOOHJKpxNgfAHZe4g42ESOXY2cvB7C5iNXJUwZDEN/YGkIZkVTk3qa/O+5GAAx7SrRAMdgAKI2JVuSlVNWzi1ViUtbOcGiWUeiW/OEVmBzfqb2S1T5OR4O5M6SReOjOV/KAFTaPPHTRqryMwbLs/kG9npuypeMA+W78p/WbwjSwfHUs8G6KubOmvSpbF7PvAB1uzbzXd1p+4L3ZAoyTBmjpjVMRmgFMtgguwRIQKlocC6I9Qg5+yDsnLEsocMkGFWOn9ojQmUbm53Co32uGwWH8g3Q5mbMOO2AWmkxeLF0SKoxCQa2gGLYgijozgV0Os5nOa6KVg66pwFZvOM1V6WDN6WrGhsxNWPjs9X07AzSGVQhA7sl5CANDtUixyrE09z2vYtV1KCnbaaVr3Xp00WqcinA/u6S5H9orz6XKvaTmPfDhjpF56ZH6XvOPm3vlA0SCLGmHu+i5x8gTEYJLhhuIGGQttzhcTh+IhkXxLS805+A0TYYAJ5fJWdtaLXImMw+hiXVxm9wxpptNank/s2por2sqDFW2wQEiDU6He/TD0dLK04vA0EKpdA3SykKlN/3zpnG8mYfm3sKbSJTR2JuBsh+2a7VSn6Wy5cqiUtW2M7U4BjtZqoJYZ5jPjaTo9WQT1cqpJNO5tbkM+RJ/Np94Blmc1bavpz6rhrNeW63Ppeql87pJMW8yoaWNHYhfSD75wWBGIkXHkC3z9j8CPl7rUcJJ60nsHcBqgBao/UUGU/QYLhofs3y3Qqn4xCS8COxv08yaXHZ5mZmcuXcdunL3zUZiwRBx9uIVoThFjFUSeLT6SNXJVTMaTTpR5RhA+VgtMTimfHRpjgUEo7MWuO695dOdmUh1w4WzWufpH6TC0+9qgjAADT0MKvcsk9f6jgstoalz5nRqHEB6C/TEs7m3dvTjnmHkfZS59khJGuvUjUHPEzHhN0d4s5pmI5wL/tYbog++YJnS60hTkAjOjR4IYTimLlSIrfvgpjkYxjTIuGznNvWUY3xvGp3kGkYztZEa3T7PLp7AamnTDdPIdc8KsWEynD5vjsCWnG2BtIBD3UN9RiJMTnBbWw2qthClwOdFfFzmTBn1i6mnKp3GQ2jz9N6Hjmw1q6h+PlUpXInmburXEa9Vp8EJE5soXZXaluEblwhKebQ/PJufettt5RMQ9EY0emUUO8g9ZQ4GcN0l1hPEA2obOSs59EYgUjCVlsU1YSZkARFKfrO78uFE9PLW10QmlN9y1N/ZhpvX3tZg1g675r23lSnRoXtc4Td88ltIgxhso2cGSGnHoVuHHvkSljsbQOaxGT15PoBJhPYGCR934/q6iUhxLTLxe5hqaqEwiExZXLc30t3pp5Cleimxy0dHvcjLQOlDYNojlH/VJOwsv4MlPih4tkDLvudLFdWAoADMtmFsx9HhycJJ65Fh8dBR/aodFpOdsoNAXQK0xFSVzCsiMF9xUNhbS43pwqRiJJOzCFOk2tNrNG6RohpYx1tI3VE45TGP7wC2UxMKYSUUhkoQ7mCaXga07yM2gSP54B836RDZXxUE3OqunO76eLskS5V0eWmjhKMV6UsJXQA8wadE3QghKiwcxbdO1eM6jRpMNMRnHsQOXn9I5hh1SNiGJA6NgukyRN6PE2euptXwaCaL8W09QtaO03p28RlLCH1gwj82HFTAVs7fbcd3WZ2LTolRvGpIWGJv2/5ehqTPw8gVQAZ2Bjmu1iq54UsxWBYitZTQoS4dwG2zxBjDZMzxPE2YfMEsnUVMhgQQ1LPJAiMd9GdszAZIeNdYpBkkj9+Cq0GyaJsIVfZhhOnDMYXIdbUdZ3UunqcLHZqDpqSHC6F2BxPl0BQk5KS71MQgSotK5WQfrAgf1XAmGxVWipLkNawTnEVtAfaMIkotSs9S9x4ZHWoYCpkgDigPKq4wbQk97WcPY1MLxJHe0icQNgwgN8ky1oT095+aP+xPEJaLcOqKpANyoDKLkohkz2QARo22H/yt5nVvLzZB6UgAfZG6HSEbA6RaohWG6RdPWUoLWPpEnOddmuxBVkfigBy9KR2ug0JeNUaHe8RJ7vIdGJrwyQRLSSKjePoYIMwGKYxCxugSjRBWdBsCUvJgmOShjQ5LEpdU9dTGO8kxjFCH0NtAAAgAElEQVSdQpyaVpcyEjCZEifnkL0ddGOLcPwUIDDZg52LSF2jISYvcBF0bxsZbcNgCJsnEKmS1KRmYZ7uMp1O2hucmHOy4z0uDZUGBBFClsiThBQhO282sIKFw2gkSAVVcSCO1jSOw4oSzHVAkWAhYK0AZDEVMvhT01Qq8r/jzDFLeFh7nEmmZ1YyIFYgo110+3TSSiQkXyuzgEusbXkm15vSIr8KWnFoTtOZbWSdPICxnsJ4AgNFhpukKU/Gto563YuAjC+i26fR8R7sVFBtwfAYYes4cThMen7hsJqtX5karC3No0YYf/jQrCocsIMdRheIu9uI1gSdNAwEXyABalM76vMQlRgCOhgmb+nBMcLGgCCBWNdm0jdmNd5NYSX1NOFDOs5wi2CYlYPllbTbqhNkDHG8BxoJnqql6sAIoghDZFqj0zPGlyShPz7vOgYYtT7IPlvZWmj1BkmLW7rYUk9fgsWOxsYXKretC2I36mr0uMoSR3PhvnvHoExFIxYaRmp/GJKxOsA9+usQoN6G82eSKj0YFJqMY4EUvolc1vkuh0ErZlgpsFWIhcXQdpgC71EUppPkhYsHRydsSStI/iKFiF2GuqhavbZjQGPdkWBhMIpqTYiKBk9DGwii6N556gunCdMpIkOTAi7CeJt6bwPZ2EQ2TyKbp0ACKpaOZiZY2RadZX9ctRqoUictXFLG0BBN2ogxLeXplKBTpuMJUo9R8UiDAAzpGhA8t5SiGTdhOkbrCeyeT/BwVovK5HVqXt00apaNjXpfiW9OjvN437lDbwCtLGSFZmEVzCH6BTXrXlaHaBayNnOrPPhBpMxeYCFjldfj3LXZpFQreyGzfOe5XDVzs4WViuFMVlv34F4JeV/3fsjAeQgIiugEaoXxDjrYRDaOp0daJocYUpB2iHZ8fQgwHqHnTsNkFw3DxKzMiilxmrQGV13VemQJHPgoaeXBzw2U03B2JfauZ421Te/8TVpgG8fy5NPasjn45wxAptVZavKlHUZsIYQQ0gKe7KWB3NtODnOSJitQgPc1OtpBRrvEjYuEEyfQ4RY62ELqrt7XlaZWKF2JEGKEaUQnOzDeIxItEFZTaheEqIMGWsrScLq/2/zG+m/e6/mztsdSoLtNZ0YDzHih90URZEYTinP1ysYAEtJY5sBy485dX7qmUUho8KhWoj9JmRMSPCQWhVHUIx2LdOfUm6TCpbmlmoPI2u8ilX1nYHlJPUd3ZSYZa/TCg7B7HqkjEqcGog+RapD26yiwUSHDTXSSsjGEakAcb6PjbarBIEl+7mhqfaF1bUxskeHrytJqGZYBmfaBJgOn7VS+MFrztT15g1YwqYk5n7oSwgCJkdokhhCUSAVqQGqoLFwiAYnUE2Syi05G1IMtwnBA3D6f/Gu0Jtp+G3wix0JFEUs3M9pBJ2NksIFsnSRubCXMxBZgUIwZqKXGad4zhWukMI2cUib1QJpcVAeaLiLuK5SYcs5jrxGJk7SId8+lsKM4td1bUr+gCLYgJUlNot1enxmG/GV0HSID252jojKzK6XlVuNNyqgLSVSNkZgUJwVDSJ02u57EJem2NJclMopNze83QN7VQXGpoqUuBtuwSunM5m2VVDhRMaY/aPrKNkQfi8yCshuNM71GEwDboN01wuNOXVOYjODcQ3DxgbSWlIQ9xRrqmK4bU2OSpMxg7x41omGADLaS9KlQVRWqkRhrYqzzvPBxcMfSVbKulXu64/Fg4l9Aw6XKidJHtkAcCBSxHEE7MB0j03GS1wZJbdON42iVIhh1vA2jEVorVQjU9QSJY2QyIe6S1EhVG57UiEalcekt/aPVEIZbSKhgtEfcPo1MTyDDYzD0AwCG6KBqFgTJfC5ociCcTlPKD/eYNpO2bG6kBXIA7CDq1CZ/QOuYpMV6lzidgNZpDkbr66pqMEExdcPf0dWjaJLq3MFopnCQ5EMXNUnKombpUrUQUWndNftavpCrFhPKljba6lRLw+zWpGouAYXqpoXq1oINFPWUyU4ZCC+fWWWLb4It3UNdwOMhpW7NZ68zoXxz8poVVmRxi6cOkTiGcRPHJ2GATibIZEzcuQDTnbRB5fZY4kNzQk1a/LCRJoPnlKsK9S65g8R6mjaKmDIAd/11kwCxcEEeOa02vUyoUtYE9V0NUPOFyZOMNBHKXbW8NrAJGQJhd4KOd6Eeo9Hio0Iw4c0GOQzSMUlhE45tUVWSdpPxLnHseBcwGCC1ojEgg4oQKurJBEJEYsIbYpUwCQlVmogqiSlphVKj9R4ymib/HZEUjhFc5NckzmPYDIJoTMedq091QXcr2DoGA1N7Q8gSWdGT6X9NaYUlBHRiISD1pAl0lWDWVpMsgXzSj2EiWaLAM2mw4Ny94vk2JnGwgWwdS751o110OsWPp0pCxtxMZlZVwxiacU47++zJRvs1y5iT0lp84lJDVsdmb1Vvq78aTbukVAHd7SCJhVYmGJMuq08fogREY3KTcOmxnpLOXDTpu47EesoAqC8+hOyeT6ian9UogZok2WsIIFWBsaV3lsJxOhsZtMiAEkrtBlOdFQ8pcmlW3Crp0qz0qadXjlYbmlMrOqiSdUenECfo3k7yeBcSp9cIGyeQ4TClxJgmMTlUyfKhhGRKrwTZGsDWhuX5UagCVRWI9QimSmQMOzvIdJzM5RKIrgZEz6ZQwSCB8Tog71ZpnN0K1cYg1FQtsYmbmq5p0YoglaUIUQVzQoRiEpgntvrNIlmdUVEYb8N4L0XrD7Zgc4N2Wp7kVpEz5kSFcUrg5iCql8vW1ZyqBKvHrXFlRlV7/yV2VQfdZbCFhI3kpJjzfpl1cGayz2YtL10B0niU6lOYU9ar62lntIUrDWNWmSOSNc0iR0p4gHBRdcxtKb5vMTWTeDITMQuqbUpSj5DJXmM53D5LGO8kZmVzQVSpQ2XarvVFCGiozALoWR/KWZD+TbieNP2Rw8GSa4PYBpTU7sIlhWYzyG3P2rb3wyMYdJeLD6Ibx2BQJf17vAfTPfzgD6ohodpEpCLGSD1NHvEyPJ48noNAiEQZQD2llpjEX9lABsmPqEZAN9BgQavji7brD9KkihNEAsFl6kFiYhISBhPVwjFalsfOe7jqUICWy3WAEKoquQ4UFStifjD4Vk8Go+MYHU2MGRSTLIQU0hQCMhkh9ajZ/ZsHzq7yOe+UVa8YLYPmYtIAVAEdCGjyp4pqkrI2C+GgdOC7Os8JVWUWyIbpLco/31QjUBwQoZ0+yJbmAhpjEPKmhKYNM5UJMNpGLzyAjHbQyV7mBL45RGMIwQK98xEcvmkYI3JPfu/PzIp6HasLTQSy02yj4ymLT34qv9PWr1XRiiWsmjDdgUm01FABwiB5v6uCDIjHj8OWOQbikggQlNqkFpHkpJl8dupsVUlApRAGx9AhIBGVISIXiFIjww2kVmSafIBCCNQ2CaMxEbEke37CC2UGSCPfPZsj4JqBLsOBWm9QiOnNvLA/qkFmUHnHi8WCU8mBsPaUJOXtjdITtDYHx9nZJYXFKa2FYMVqPPeTuv9PSsqEpqxv1qaQLririJgLSoxAZbjhKLU3KqoGUouNjSjEKkmLEi3DqNUDoJP2HAnV7K7eMa2LW9ZKfmyLvIGIhzlBZ/+aU0oLpebvMPzKJZFher769SQ16XgHefABZO88Qk2cTgnhOBzfSvjd9jlCHCffKpsIEgJRXT1N75m86Ds7n+FNWtfZcTPPM5eY3dcqS7HmkOtgffBxi+STs0srqVtcvWtjjQX72th1suSuiFacjatKA2jgqITK9HSbCN7ZMSZAu3IsS0Fj1unV8QNf00Jj7q6naEyLIOn3MVlzqg0LSI0gA7SeJqynIOl+CAEkmod2wZQyo6KQWGS2jlwmFJOloODIVSnOO+Ns14urmDMNbtRS7e6c1k+zc87xiZDLtNslud7Gj8hmdiw6XRWpozVNG+mwcLbMkpthlbjFzU9MmsndFGYY1oy0pvkf2j1evEchJfWvOZmRopIElNqQmTgJEFd/ptbo9kOEB+9FR+dBhFglx1itz8O5s1mqU5vT2afJ3yWrYaYOdlqmrT5sPNyTv2BbOm+ppj4pQ8gW6FRFcvfI5zI6xhik/3yBcj7MPX/yytBqGdbGFhy7mjAYpNM+QqAe70CsE4MKQ2Q4ABmSTO3JhKwxQoRKQYlED5+om4DZLPaHkJwX65h2QrOABEKKtDeRXHyHjtGc8YwMU8BMuglfCs21DFL6IjXxvbOoNGcepb3Fiy/gBN7bl5Se8839jUEs1olpJ1DUTNVEMw7apDaQtZUrzBdH3VhWE8AaMzNywLVpYyElisdTFu2XwrGyZFRdDKV0mRZMyjIGayp77ATouvSauiT1reZ6NDO/xPBCdk2gG0IiVl4qFHO2NF2uo5Gbr1ViogkKCoRaidMJYbxDnE6oNo+hEojjHTh9bzIwVAMc9MZHK7sqWNsKhuAuLFmas36bYZzRLX+NhKuxNleIrtXR56tjbIFQWRYGT4VsxqjcVrcKazFWhAzWNzX3bJJXmFbLsI5fh2xsJnVGEjBdbWxRi/kE+c7iOn3ygksYQZxST2rQMVRbBvNU6YAIbFCANHg1geRfknZ229GbqdJQzy7our7vz0ky02ZiOuhW7PS9OHV387fwjqSVSbGgaRecmb8m2puqqh6LGdLEFLOMIm6P7JlkHuYSC7DfVB1dIP7nuipn2vZtNonlh5LVqDkhK+ILWbCQFZl5ph83BaWkVXimB0Gp7H1sXEJZtksuzaT03MnJrJQgrL2Z8Qty7jR69m7CzhkgxQVGSWOWEjQMqStPe0zDsPP7+EG6xfsoOXlly5zYmiM2x/KG46K8/d0rKjbvEqpk0awdXHfXCX+eJtcazdEEzZrAUyXbJo2XeUQzrOFGmhx5nAMShskLu24kG80xJHXyoaqnJjXVIDH5qkQhTibJpB7svDVIUeaTKbE2Bz9ngH5Qp08oT4gmzWIVByULSQpo1BdtpJLmptBZd1V+t65kJbmshwx1O0ig4zQatW6sb8WCsIc0O6t6+SJrZtEqmfnDPa2af2ccnAqhyT+XmVpaa01axTrkCydd1ULyQ3wyFDF8+R3dd6wjqWZpQm0RhiZImQnej+RZkeot1377NT23QUDGF4n3/THEPVQCgeRCoJWkRAgx2mEq3hm2rak2wcaZeTWdlILAm8vN5ujPp5EUQ9VifGrjLFLMKe+S8gRoJGWfaL2/tMYMU3HB/e+anxRiRiN1lVDAimi1DMulHYFADSrJEliP8E5OcVuDtDPFaZKc6toGPE1QrSe4d7VORuY0Z7FetYOMWoi7hUrj0nBHDA+aJmPyubIsjy1dnsYK5FQwj5kDVV2cDr7qFYLLK/YeYYlsjhpT0sNWc9UeZaJN2SRprqdfs0zIL4qH1IhLP+0+0fK9euqYt/d206OUTpIzD6i8D8LM8zMVi6b9TDFG1LhLOCLUw6rLV29RJDCQiI4uEM/eR9BxShFMkqzygbjOoLLPUuNmkCSnZqNoOamKzPZJ3hRnJf7c2ixNq411g+MyqDpvlySn5Jlh208wDLj2qJD0to4TCgIxJvXR4IZyCHQe9noFacWhOYLr4FpPkv9VrBFz+pTgYSKVSSCpQ9OOFNJG7U6narvHJFnK1CQYQRLe47mBih2k2eYlm4WVJFVp3Rwm2YgPDeAJ9CcEzIywwGv8XYv0t+2cUXZjS1qb02VUhlN1BDbIyzT2Tio/vkk6k85OF8acDYvXaLDyhsE0vlluDp+z42b1uHhvf2xm2t7yVHHyAHA1O/T2xcw3CogfolC4BVi7BqrUYcPGIzbDnnxWLIzGpa60IIMZdOLpj6On70OqQSOZ2O0qDWDtIlIWGnND/VqhLlNUMvNGalMt5ndPwlSVpR/Jc9Gkqcrxyr4NwwqaRhBrP+uzcHb17rAA61i0VaVcF9i4P4LTy6S5r8m1wDsxBDRsAmlxaBUgOgbgJvSxeQvHdNqRakqfWxfHmTsG5Z7l3SORWpJHjerUG5S+KsM00og2GQBmdQjaE1EahhXSc1KOo8JZLxSAqYOe86hgZBoclSp2P82uhdaGfjHI1ZxQSc4VlfJZaWlk7bwXLUdLHzP3UpUZ0NfuyRJasVg7ls+GgXv2VcXdGhoVaz8SIDmlEgKxVsJknFwIztxDffEh2DiZztQ7dT1x4xgiQoiDlIqvSvMPFaJMCYMBUFFvn4Gd08hwo50SJkZjcAWjdvW73QHFu5uUX1WNS0Q+ncnVxvLHTlvWmKauZSd1FtZmik03t3pLkpaRtIu62VikMy429tSmveTA9cI1uYWxLTMmR0erZVhRSVGZ0+yYGSQQTRxVCWkXjIpaIjfqkbkq1LZQbeHmE4N9YNKvBOhHRENxWnQgZ/drMS6KgQ22OF00LiSF5g3sV8/3HmAb2pKW5/BuYSiFN3qDIxT1l6ykGwoiUmidYnyk5z4vTjJrTwebaf6FQQLx45RuZF9HBiouhIzPaAbAu4Vo3BgQWsB2aBwyGwaffnvyuwYPKhZLHh87KMH4vCAp1m73Ipx7APYuoERkugtUsH0a3TmPnrmbcOIq2LyaeOyq1O/bp2H7LHE6hSogx66GjROECw+g0cCAzoaR0xvlTaMlW+Ue01gE8wezvnZTx3T+blRxzZJb0z8lFXOkX6BOBhgAqSxnuySmFMdWwIdJcitmnBZaG7Q+slVCvXjaJKiYdoNQZXVBNabc1zGlzEi6tftouZpSdnQS56Vydctir0RQGZgmUEhZ5TgXi7453ssEcPUg3GCJ4XLrUwgKFJYs5g5o821IeJkDqmLSDo11kli36+lKMUqjVmnjGinu/OdYg+FvzgASVBHs5OtUUTJ0pAWVpL/mHbJ2W0pGUZNBpNaC4Vh7NgewGTi1NeCaquLjI4VRDaNoWGIDgKuQwPPgfe+bRldiS7nSRFIIl44uoqPtlHt8Mk7e34MNdLSNji7aOlSTSmx6W8pi6jHx3AOgDyAiSDUkTqfZyiphQNy9YG4NVXZTUWm2ANRYtHqAc3ECTUtqsjmRVeeqEJQFbcELfggsiEjeWJNnRbPNNjPCVPJiY2wyThSMUNx4kBxog06yF37pdhNLKCIz1CKIGiw2UkAewdkadDIi1LboNA2iWJyeeDI9yHgUgwrX5DvnCGTBKjtxKk38rJgzY4uxUCw4kxhUC0nNplI1JNvpuxtp8yZFQzpXuserZ+ugMSrbQYMlSsuuG8vE+ajiHtLp3QeEEKgkMfoY3C9IwX20snNop+12LaUNLp4RgUlMPypw8wn+7pNP8bybTnLiqi2uO7XJ467e4vqtOVkIjHZq5Z5zIx44P+LihRF3P7THr3xsm1++cxu9OIGhpNCWADl3PGnMKirY2SWe/QRcuA+ZpnP8xKxn7h+k7vrgUskMGZO3zShqSjXU9IRYkZAD1j27RCwYOWCM1utidl5kycv7NvVzxgBdYitUuagxnRitkRAkbcLS3iRbmFj5HC2uQ9r06qnl4FK0ri3biNXUqqMzR8vucyPBtEZIKvcqabUq4XDDMh5EA0CzMJM22qIjZ3Rp/HrV/s4LV+WX2h4UxDIppoWc8AEzHc9Y6qQNpbTGdhbH8EURKp/o5Y5Xvot9roILQInMcTW1zzOizqf2vEtAfm2nyLQ11cSQywNdOi9j0lpIkskkQg3PvnGLP//kU9z21Ov4nCecYmNYMaxmg5b3o+OV8JTrtnjKdVv5u9fHZIn90P07vOP207znY+f5N3ftoKMaNpKPVKUDqvP3Mv7E7U3Dh5tlDxAx65fWhWNmgdlkYDx2JEjfhEzaqexAFGLe5GLGGaeGP/lcKtU778vKtDhpL/wC4MbytVMbVicWqxqLue3jZOcFaBhm9Tpdlkbqbs0vCxMyPz0RSQktQ2UhZnYCTt7dy41RmjqElE9Lk5Xc9Y4kmfd69V0xWnF6mUBOVxt8IJhVr3zC+WTsHk45U7H9zPMZsVS4zeSaw5EWtDtVM8c8jw/xgjZ4XdIEuorVrbiUUUz0hXSQKbSgrApMlMGJwPc/93r+/PMexaOvPcajThzN4ZmDAITAZz/uJJ/9uJPs1srfOrPH2z50mn/z7vt5571nqC/cT73zYCGxdKlZaI101Snh45Ul5U49Uv7hc67r/uFML10P7ruEO822VbE27JjO2sGNQ7HOknw2TpRhQ1n6MggkjoEqG25SIX9mVtybewoROVm9m8a08mW4tJ+/VSrRlO1kOoLsTe+xufMOAr5ytOKTn1MOKSJ46tk0QN1OkaxOtRaxCBmnKIo2f/uA9k1QmyBaDlgxgfxTJeaR3OSKasJPFjAsKRZS/8sXzRw0TLOcjzMvNEuZ6S5LnfYoJDxqV3nMzcf5mRffyAuedj2POSImtYiOVcJn3HCMb33xTfyFF9/Euz7wcf7FW8/z73/1Ily9AVuWALGXbzmm0w3tsd9ialA+oSlJSRR5gRufLYtjFf/kUrFk7DCWc7Bog3u/g2FDFo0gprYm6SomgB9QbXuyq+FTAuT86iTGk9J/pzaIhY9Fxztj8V5+TkGexo2Dc1JJJTe9SfmTspPIdJSymZTuC+ZyIjN52K48rZZhtXyj8tTqnNm2mGZj9mZK9D+bbiZJo5ZE1Dj4pbLJkVVjMwHmNKrHotjfLEsUXDZspqX70UHUs7KsRoW9yFc8+STf/dKbeOlTr5uXvPOKUwW88BmP54XPeDw/+HVn+He/8vv8/bd8IM3YYz3xcwWgDcU8yJiN/0OWwFOR0OA5ftiFepG26puklWlRoVXmqqI9LJYB4ZClklZMpxYbTd4t/cHtIGTNN5GYT51USO3iW17OMYc8R+3vYKCu55V3Jm5ZRrWumZpgoL5rFtJndAhlhbRShhWU5EHciqIXSt7VooVr1ydDX6GOtNOS0NqPmp/cze/VrB60Q17aU7tRLRxrcO9iZ9Jl8YOwnMsnBRhFbnv0Fn//T9/ES552HccGDxdWNUufeeO1/N1veRVf98rn8hP/5Xf4N7/zUTg+6GwuFvROYZCBRrKAot+NgWSrsblI5AwbalhNbBwp87QqgsQxJmasR3OqmGKuQC6bqZg76syl2PzELMlSpv7OT3HNIGFU0RL1iZ8WXTCurAqrksW+on0BEn5W14imND8pfDDSOEk3fZL+fSSH5oQBUoVWxAwU63eeBNMiYwI5dUn3urQmTppZfZ3u+Fhn946lGdec7AzLaJIG9IWRpF1M/DzCYseTGQZ15cRsrRW2a37sVTfxzS+6ieuPr/7gpGUoAM/4jEfzL7/3K/iql3yYL/3Rt8JgCsf9zD1jHxJb86bJPUb6HRtVMKWxdpzIFmlIC7wVzN1tiSU21JwZopgjLRWxUScTXypmUv47ZSOVUCXmGDWD+doUzmUb8bBqMvtkuEQb1CQWmTokGTBS0oCYtYSo5iTq/ozQRIQUU1LtfIEiVHJltNLZ2qQSaeT3fNabg5wl+VzLuYBLcs/yIo2L1UltYnyJK5U7mqphWbR9bsB8pLxJ/lwX3Z25tS1GUh4zk/GCCjvWhFWMugLs1rz0M07yM695Mk+54dgVb8NhUCXwJS94Khf+4y38+H/6Tf7OL/4RXLthw29OpRQMQTtzAYwBJIaVPvvcsVRDkqysSttfqSSHClpOpYV/k4McOfPHPP5HkTs9N9d8n7Kg5pB4MCZo1rs6qXLVIGXkVVUYDAlhkE6MspNxGGzZ3J2gGtHRTmLQOSFjE4IDpJTe02i2g0bC7GjZK6EVZ2sIrQmVxHb/JMzgQKW43YoL9M8uTXW6tCs1eV3Fc3MMm5ttsxd5ZRPFa1XQxAClYD7tiSjMOED2SnVXhjQqTJSf/tOP4xtefBNXbS6PET5c6eTmgDd8wxfw+c95Iq/4x2+D3QlsDAyu0QwNhMoxKs+jVnrmF2MilrEDZxCLl+VsEsFGgm4YjD/KN0iPeaSwdIthVpoZpN8fSxU1u23U6TyCemI4V2Q6UcJgIwmQe5MkRNo1EELYBgmWN468+TpO5Yw1OWmLOS5b0zz4X6UJK1ohrR64KMT1fMLuJXXKimXVpWjeix3W9z0l67SI3vxnb+G7XvGETwtm5STAF9x6C3/8w1/DCx9/DeyZr1SR8zxFPKhlILAfM5qEEFo/TcWS61m+McX867Sh1eK+egsmNSuCJT0s1jU62UMnI3Q6NmxttqwY82suKRqnaD2G6R5M9lK+/3oM03E6YcqYn2ccdWnNmWhT0+pppQxLYgqxCRY/5od/hhAIYsnRyh8zGQcgaGyJsSHW6UdjuubHhEuhXmZV0K8taJwlcVNnpMVPOnbMfGKAFDg9G4vX88b27Ck571P+fl75g3wPace0kKQ6cMOpAX/4rU/ny579qH3a9qlLn/nY63jb3/5avvlFnwlnx6DJLC86TRhVjI1EFSqkqnIK7daPJ/XzYPno0pbka/nH1CUVyT+EAclVJ92fv0dBo93pGejNjUDq5GcV63SGI2rfTVL+N5/D9V7yjZqOU105620FDIjTSJyaBKZTmiyvoDE5RieoIjYYnZo/WJyi0wk6HqdDhTVml4fk4mESZRiiw+MrGOGGVoy4OgcvU8XS4upLVFH+AhqYaV5cH64yOLjYh1M4RtFq2ZyHZ8Rif1XC/WxSzdW+5Q9GiSHHyR6cP82X3nI9//6bP4frT2wc4jMennTq2Ab/6ju/mKfe+Nv89f/wDuLVW214oASRe/o8S0MN0g3ZUMLsMPW5tWhRgWDB+paeWzzljdrzUhhUVDvgI6brNYmppGIVcZqAW/FTkkQ703qmYTTzkdz26L5g5bUZKuaxeCoiT0uTEmU+sq2EhdE0ezMsZRksa2iTSgoeFdvRZgB4zFDkX+f8S0URaU/gbG3xZ3baKH5yTG+Luu113KvQhQ+LJMLF0/CJj/MFT7yK//itL+DUsU9/ZuUUBP7aa1+MxsgP/OJ74Nigh9OMVrwAACAASURBVKn4Btk2vORYA4HsuoBLTWRMLN8TyUH72aVAbM6pnQJl0lBSywCpczU5rq/0zfJDbQ3MFceYdGpOqG7VK3Oedd4vn3KjTf2VAf8eflaGATnYr3VyDFXDPHWUDQaoGpYLM7nyrzCt3Kbd2h8OyKx6asjhPS2ZTaWZcOWOW+Jnnv/KTxNxvAPIFqOlmMsyEtMR2FtEYLSD3vkRXvZZN/Cmv/6VnDq2uf99n4b0V7/28xmEwPf/63fAo4+151XaFTsyvcvRrkZp65p92X5IyewMMxKt0clu46TaSqmTqmjVllWBvvotS4QmZjIDlrcqKnCmlsbgTKuRBpu3Vsc7MjySDAIeHF/TnPKTGLAY5LJK19GVJ/C7XAmjnaYj9X/jVWIYk7RK5EmLma9djEqTYWCD2jAr44CFt7R2diladV4S3z0gNbsvKcHceITe/RG+6BmP5Zd+4Cs4vrnyvWhlFIDve+2LiUH4az/7O3DtZrNBSVKxEvNwHMgdNEtpu8tAstOdfZbGaqYK0zFaj02yT5TihtWkMWOJ2UrowfaS8VK3EAYo/LScuQkUB7N4OuwYrH4/KckVg7QQ8nc5QiNb30uVVrKzvh/Q4nnbcjtiwtV6jwG7grRaPyxKvfrgVMbQpY1EcLFaZ8oUz+jJvug+NE3qYhOH6whTha2KJ50a8PyTAx61UXFyGKgGySIzjZG7dyf88U7Ney5qSpdSCQykJXYfJqmli4lSwegiev+dMKj52e/5kkc0syrp+7/6Rbzno5/kP7/7zpS+Jm9SkMa8lLJgJqWPnyQjQHRfLRLDKKXwepyCmjWl1tadOuUBe/RJbnvUCZ5y9XFuvvo4g0FAAtSTKRfHyoM7Y37/wR3uvP8iXByjWxVspEDpECTnmMwcsIZGRiqQuEBOWoIJdirNfZ6V1yWrnNuq4LdiGXn9cIxcPtY471vC2+PIabWhOW3x5MAkkNPX+sE67bpMwiq3GnBQqnh2yPyJCExJf5wa8lefeR1f9dSrue6qTY4fG3LN8QHHh2EGetyeKhf2plzcnbB9cczb/uQ8/+wDZ7nz/t2EHwwEqS6HbZUM1463mk7RCw/C6fthcoF3veG1PObq1VpxHk4kwL/+ri/jvh/6z7z9T+5PCQbzVPAU2EI+yXsma4dtgCV84Kmh0eThXk+SdLszBql4wpNu4C+/5Om86jm3cOLUCU6eOM6p45uc2GgvNQW2R1POXtxhZ3uX0+cu8Kbf/2P+n7e/Hz55Lh1Xd1KQQeJGnrM+a4BqzMXTyJgq6LnEJLadsPObOTankbZvYKkCx2IZdc8eWC1dAeVlwcN/8O3voQrPu3QgT3J2zSTFSz5Jp+XNHmP7s4niyUpnE7dW2Itw4zF+7gU3cNtTruPpj778xf+x82PefftD/NQfPMhvfuRCCtyt5OBqo7gX9jCtnzgl3v9x5PRd6Lkpv/K3Xs2XvvDpl93eg9BD2yPuuOcBdi9c5E/uO8Pv3fUgD1wccc/FPc5PlSed2uSG45s8+8ZreN4Tb+D4qZM85tHX8aQbTl3Rdt55/zme9AM/D+OxBdY3UgpABoU8k8MM4yrwqDAkxAlxMoLdMTywywtf9CS+/1W3cttnP4Un3nDVZbf3Ax+7n/e878O8/pffBbffD9efgK1hOhxDU5ByzkobSO0bDM3VwZxfY5Nxl0ESpbJsqaQ6hiaWRYVpNPWUZCzIMT5lVwTQ+Af88g/ddtkveYm0coYlVXjebDqZ5UghByu7W1XMOEWDCeTn2SC4b5USkpg9jrzuKaf4xs99LK942nX7Jlq4FJpG5X33bvOzv3U3P/2BcybGhzkDUOx2IpbqeJwkqu3zhEFA9vaI5+5Dz4/4sa95Hn/1z738yAdTgXseOMtvvu8O3vS7H+IPPno/d5wbJYfNSlLkgh99JhiIIzCVtCCGFVy1watuup6XP/cWvuL5T+bmG6/jxMbRO7P++h99lC/4m78E15UgvJ3ZZ6crqTbnAuSTw3Ew2rHLCDu7sDPhWz7/M/mLr3kpz7nlsQyqrsx9+RSj8r/+4HZ+4X+8i3//W38CJyqPWKYJwHUmm3wXqZJl1B0/EXL2k9xC1eTVXpnlz6EPkaSq1GOyhNliWAKqa4bVOr6bBndyod1PBXam1Pa/9cpk9nPrK0nuB/4cBSbK467Z4D+9+onc9sSrOT48eh+TGnjvnWd5w9vu4i137cHGLEiv1IgogQCTCfHsPTDeRUa7MBklh0QEpsq1j76au37sdZzaOjr3hToq7/7w3fzX//1efvR374CzuynoeBAKIHsBlZKuCzajGqpjvO62m/mql3wWr7rtFk5uHm0Orr/7H36d//vN74NjGxYpkxhWdmnQOjVOqmwRVsC8o9BJDWcu8opn38gPv/4VPO+zPoONI2BUXdqbTHnXB+/gNT/5Ju6/5yyc3CQbi3ptdtIgHVIRQmJMbifKkpYFbTcbu1KeOtVb7yOdYXVVQs87hSriPiwWZCwZIZSeXOkuNZkpN/QwLPUzEBUmyj955eP4hhffzMkrwKi6NAV+4ffu5Rv+28dgKMigaawflKrjEdzzIarRGWoZpvaLYXIa4PyEd/34n+X5T7npyNr5jvffxRt+8Xf4td//WNrhN0LasR07tHLd7E0NuRpuIKGngHbrmQrsKTzuBn7+NbfytS99Jkclb53fm3D1X/5ZmNaEQUj4U9lij7UrDu9QQOoRurcHD+7xM9/3Rbz+i1/IxmXhkZdGF/cm/Ls3v53v/sm3waNPQVUwmB4SSClmqoFpI+n7nGkm2pnVBpdoXURr9DGsZKR4ZDMsqaoeDCs1Ky7auVsOd+XXHoE+S4rAOPKs6zf5ua/5TG696eSlNfwQ6Y6H9vjON32Et9x5ATaTaiKi6PZDcOY+2D1vor2khe7JA3cif+vP3MoPfeMrjqRdH73vDD/+S7/LP/8fH4RTVVL3wAAQz/VNkVk1MTKRkI6XKnyBmgR2ftCG4XGWfQBAo8AUBk+4kbd/wwv5vKc/7kje63//0Ud5xY/8ChwfIFKZnSYF/oZQZDStFalr4vginDnPy551M//sO1/N0z/jMUfSroPQ+++8j9f86C/woY+dhk3rQ3Mq9UNXc0yuFLzH885ZlpTsLqF2MtU0op4XLc6RsFbMsFYaCSuf/43fTpDHto9pgbm2U7GkZGVYhB93ZT+NJ3lPjRPlzz/tKt74+qfzpOIwhFXStccHfOkzrkXvv5d3fOBuqHfRC/fDmXsJuxeaTBOlISEqz3zcNfzUt33hkTiHvuWdH+JzfvKtvPv2T8JVG9lTuok9M+zH26WavpeIUFGFQcvKhEfP5e9yNF1TToAK4vaYf/v7d6O7e7z4sx5LdciA4hMecy3bZ87xu3echY1NNFQpBUuoUJmkVETjXdR+OLPNd3zxc/gX3/PVPOHR1x5qWy6VHn3NSb7uZbdy992f4H0fuR+GFifYNTZ111EdMyPyg2ezz1k9JSiN5tLLrwKgn+BDb/9XR/Nm+9OKGdY3fbuE8FhRTxQsza5b/niiNKnIx1rZT9olQ/7Jjp7FjyKwG/mO517HP/2ap3HyCoC8B6GtYcUrnvN45KF7eftvvx90z6zs7h4t7fc+N+Efvv7FvPiZTzjUdkSFH/sv7+Av/OSvJ9VvI03eSkBjnfKGoZTHyIsm9Sm4mT9KOidQKpO+bEz8JOJ8b0CCZGuJOzeGoGic8PY/upf/8yf38rJnP56Th4jPBYEnP+46fvpXPgQnhjZdBklN2jmHjPaQ6RiNUzizw1959XP5ie/8Kk4cMb52UDq2MeRLPu9ZPHT6NO9+78fgxAYtF3hnOAmEA1L/inu2Q6Oie853XCAon+SMELOs8wk++IhlWP0S1kyAZal2dJjRvARrTV3Ads3fedlj+Qd/5skMjsIEeAgkwMtuvYWbTgXe/FuWAjiDpx6kHWAa2Xjc1fyHb/vCQ7VMXdyb8Pp/9GZ++r+/D27YNNe0NFl1OimsUu75n2Z1kJTlModxYHEGVYVUg7QAbLLnuE2XioMxsfwTGoa2NeT2+y7yD3/7dr7yWTdx4zUnDu1drzt1jA2d8L8/fBqhJuydQ3fOJEbl+tP9O/yjb385b/imLzkSq/Fh0KAKfNnnPguRKb/xmx+Gkz2M3fs+b3x+QRvp2H2zhDmqYHb8QtBP8MHfXBnDWm3odSFX+X+540oJq3NP/w+0tgb/c6J8y3Ov4//+oice4XscHn3Tl30OP/XNL4Jz4zzBEs5iC3m75pf+3OeyOTy8vWZ7NOG1P/om3vgHH4frTpBPLo51Pj+vbyzcETy7Kaml/ZnsIZNRZnTizMhEKZEBEgZIGELYSD/VRkpfkiXqCo5twm7k1h99C++94/5De1+Ar//Tz4ZP3IOeexD2dpNKJSmHlZ4d8ff+wov5i1/98kN95lHRG77xS/imP/Nc2J50rrjlT2n7li2gzjFhiWyNKf3GwytIK2ZYTXqZKCnLgprf0axa2OTlafOydL9KRKUG0VxGp5GvedIJ/vFrnrLa1zwADUT4S1/5ebzmRU+E0dhyfBuIHSMc3+CLP/fwHESnMfKX/ulb+B/v/wRsDpGwgVRbSb1zZlOSQ4cYXms/UYL9SBKEp6MUjL23nbAg93EKg5TzqZ7CeExVTxhopJIKGVYw3kYunoOLD8LOQ4iOYLTL8374jdz1wLlDe+/HX3eCb/nCz4S9neR/Vac8UXE04fNufTzf+7ovZPNhfDBHl/7pX/lavvr5T0qZV0mqeoh1Mo6U6mH500fSvSgFBDPfoHWlaKVPb0lVuVNne1L8WPDc3EJPN0vPoK4JozHV9mk4dy/xoY/B5H5+4itvYetTaOIBDIPwM9/15XDDVSlKwrGs7Sn/6utecGh6fATe8Kb38XMfUXjSUwk3P5XqM55O2Nog1DFJPt1zH2lwWpesci7EzMGAoASZMqgnhMk27JxFdh5Cth8gbp8m7p6FvbPEnTPU2w8RL3wSuXgaRjuEOIF6BJM92D0He2fg9Gm+4od/njMXdw/p7eG7v/xzIVY5bk5rhZPH+G8/+Dq2Bg8vnHM/OrYx4B99z2vhmuPJ2gdkcHBp0oKZ6ez3c7nclaOVruTk9iYpbgoaZuXpZV3b04omR7pbOUDCBM7cjd71Xuo/fif60fdQ3/F/iB/7APzh/+H3Xv/Z3HTtp2Zs3TXHN3nv930ZMEDV4rkedZxX/qmnHtoz3vSe+/j7792FG29GTt2QElt+4iPUZz8JKClpW3mgJjO7s0tW2I6u9p0SiKpMA0RSVkyNJEnGfO20CmjQFE5VT9HRHqhSd50Xa4GNDf7wjtN87z9/M/UhrZtnPvkmvv75N8PE8r2Pan7rr381N1x1eHjZlaSbH3UNv/uDr4N7LoAqMVTtY+s0zvHbUiROLX+7bT52OnX6vkaogdicy7gieviIHi1roFmgQshnq2XuZcBuNdmBT9yB3vMBuHA/THbReoQSYa/mb379C/mcpz9xRS9zOHTrLY/lH7/2NtiewnTA/3XrE3nio68+lLpv/+QOr33r3bBREeIufPJO4sffB6fvQQhEMcfCusAzSqvSMlRYE4EcGlV8QQPg9+OS4q4sInB8yM++/cO88dfec1nv7hSA17ziNji3BxfG/OjXvpAXP/vJh1L3quiFz7yFH/iWl8BOF89aTIWuM+MUJEgC40v1ckW0YpXQzatknCrnUkfRusaPF1eRBNTunIX7PsjkzvfAg3eDVChD8iGTUWEgfNdrX7rKVzs0ev2rng/XXw07U179oqcdWr3f/St3wHRK2DtNvPMDcOZjaD1Fq41m06jrdM6fknIkkb2nsCRPOYc+EoihSk4khp2ECKHWIs++uS5kfEVT8KcGVIJZF4dQDZO7igyIHsQLiQGe2OB1P/zfeeDC3qH0w+c96xa46gRsbPLNr37JodS5avqeP/cq2Nzosfgl1NzPPxA1ialvA+oYWUSkGPvV0WpVwsEmUrmToTYMK5u97RQQYMgUzn4cPvIHhAfuZLg7JYpmS3gCUmo4t8N//q4v4jFXf2qK9V266tiQX/22l8C1x7n1SY8+lDrf/L4Hedvt5wmn70Dvei9hej4f7hpCwA8KzVQmk5P2Dxm2MhcItH3MeeendZ9LzKEM90nWxFzO8Usx8LcKcO2QH//5/9lvgT8gXXv1Sb735U/hv3zvF3PDVZ+a8EGXHnPNSX7hu78cznSYuqY1pv5feVBF5z8fczNpNeaxFXOs1aqEkvJhSzVEwhDRQf4JDAgMESrCaEz9yTuJn/gwEKkHW0yDqRgpviC9ykT43GfcxCtuO9o0KwpcHE05vzfh4mjK9IjF5Jc/9xb+wZc+g6tOXP7hpxfHkb/3m/fA6fejD9wLDIiWAjoxEcM5yl23VNMVY27JITTnXLK91114U/YD+ylOmkHt5GuVBqiHgkGWZnjbjSpziwgkZnryOP/grR/i9o9fvqtDJfCln/8cXvnCZ112XYtoGpWLe2PO747ZHk2OXLN65QueyZ96xmNgMk3OvZoORqUunbSbhAKNq1XzPap5LJvvV8uxVpuaUv0EkNlOUNtpw+4Z9J7b0d2zECNxMEz32dH0zVHkAbbHfPMrn8v1R7RTfuje07zr/Xdyz71neO99Fzg3qTk5HPC0a4/xlMdfx7Of9nhuu+XwY82GQfiOL7uNw4i3fceH7+edv/cumDxECnytkuuEx/RlaaphQi2yPaJhVNpgUSSpScx5NGd7daZkh3H2nsHnwdHd7zy2r9WGCMPI//vWd/Ij3/7ll9wXTl/wvMNTtUtS4N0f/jjv/+Cf8OG7PsmHT++xM625aqPi1sdexc03P4YXfPZTeOpNh38E2w1Xn+Bbv+j5vOsn/j+4diu3B40ZiFe3/HmsasFGs8TcTbOzLH55RLTiXLopH1RmOpY+ySPIw95Z6rv+CBnvQEh5fnLaD21AQuxWwgZf/dLnHHor3/nBj/P9b3wnv/07d6XYuo1hUk08zakCkztg9/fh5mt46zd8Dl/4/Ccfqvh64hDSHo9q5d++6Tdg50HC0M7Uy4C369Y0R0rRqAV4Shu30jrTMfyxiQppsl+SJWBbECGlbdGcJ8gZmuGZVYVozFk0MbXFI0Py2E9G/z95bx4nSXrUd3/jycyq6rvnPnZ3dme1K60OdKwOJIxXuysMAnHZCNkIYcC2BMgYrMPGIF5eZAuDsSwLY5lDSLJOQELoBktaCQmdq2NZHXvfx9x3z3R3VWXmE+8fEU9Wdk/vOb1T65f4fGqmj+qqrMwn44n4xS9+gVLzO5/8Jv/qB5/NYx6BG/5MrFb4+Je+xQv+x0fhtkMwE2BiAroTQA1VzZ+XpemIHehz2Q89gf/609/Ls56we12P44VXPpOX/e5HPRP0jUTaSJQ2jfWj85s2HmjWdrPhaNunjcXG25pz+Ut/TjLdoT400ljRkBGR/gLxwG3kiyeIoRhhWqShlRaBNdIYZeRXf/A7+P5nP+GhUU/ux5YGJa98y1W87K1f4u6Fvu1U3dy02jMsVckzyHPoFtbPVda8+/N3cOc9B3nqY7ayYerRM7nm5rv286/f9XnomCSwQgs3DFbUQJpdNPWeJYfVdPtLe7Css8PTOV/dodDgV2GVC0x/r+AKmqIRqUrrWyRaESA1W8fKvq/r0fssDrlk5xzPvOT8s3D2Hpzdtvcwv/TG9/Gr7/w8UMFcBya7hIkJxJVmNfP1M5HD5h537TvGn3z0a5w4cYzLnnoxxTpxwLqdgv7Scb5w3R4TT1wFpDej6ldV54ERjuy4V9qMUN3HzZ//e9qaIz7JQxVXG0OXFqjvvYF41zeRpRPURW7ACaPoShIAG1q7wTBy5TMeu259XwtLA378dz/K/7zqVpgqCD3vi2vTLBLtItG+M4FuBnNd3vHNA1z5xk9y8/71Y2efqX3kKzdCfzACvBuqSNs5aRpcTAxC9IUbwkgdVUWa37WfsybKDu6sFImlkUGrAVL1m9HrEkt71G1sJylStUnD7ZtKYarDyz/01bNw5h6c3XTPQb7r/3kb77n6NpgpRusi5LbO66F9vrpeidl1c5gpeOMHv8aLXvs2FpbWpwIaBL7nWU+EZeNOnXZ1Wry6067aWhMnxs8bHTcPy0JMiZZdycJBwv5bkFNH0VgTqUBsykcIaoCwoyNpHH3MapQKloc89XHro14wqCIvfeff8VeHMsLuCwibdqDdGZohK8GUBlaoQ+QFFJPQm0PmdxB27OJONvG4P7meQ8vjJdsl+w8f+zsT4ZNIo/4APvvOZHPNS+RAbl5LLZWL6k4uL1yGN1v5CLn9vOkP9Odlhc1xGA6grk1BWaOllFqDRHOS3oKUXGmMo0iqPTPUgutg2lVBYM8Jrrvn0Nk/mavswIlFLvnlP+TgwRPQE9ASQQhZ16bU1ANrPUMJVAQioaEUeHQ5k/OxL93My17/Hgbl+qyZpzx+NyxXKEoUiBqJfq01iWFqJMbov6uITVRbE0Ts3owRxK7XOG3s86CUQKj7xOMHCMePAMMRriIdY0NHIWQ2k02rynaGogPdgiA5cVjBk7psXqf06/VX3c177xZky06/oUCqIQyWGxzHigAAATo9wuQckhVoCKhkdtERGCqved91vOklT6YYY9v/rQeOw4kBTGc+NDZFV8EKGMGdU6wJIayCK9Sdm6cPjCY/NtbMaUypugIRrUqk6hOI5vRURiOkfAMYvZI0eFX7p3gfZRqtJS6PYp1Ayl133ssTzxsfjjWsan7l9/8ClgcmWeO9sAmHi7Xx1EIIxCr62PjTcSFB0Nkef/7xb/HUCz7Bf/jnP3DGx7Z1dhKeuBOOnGhGna1IzUUILkauupLKIn4tm1jrURBhjdVhqZaEGIkLR5FTR4lSMZpGG0w9cWYTMrMdyTJCCFQnjwMVYWYjsZgCFAYVv/nd68NRunH/Ir/+lUOmBaUjZq9mXZjsjkrAvfbkF3HiI64ZVSNaI/2T1AvHePP1B/jxJ07xj55+0boc48OxO+/Z79GSOdUVXKs0bUUEsmC+p13RaFX17quqO8rUgu3C9RBxaZpUNRw9JbVi4Td3GOEoDrI3N3JI3LBgNz5q0Ryg9RBCzZdvuIvv/4dPW6umeVbsqq9ez9uvuh429mhmFsaIFl2LPrU2gmytoKVtEtGn1LgKa8K3UYUt0/zq+7/MP7786Txu15lXnX/9uU/kdX/2OSQ3vDHG2qPV0LivpEWnsWoVWRSoffxdNAfWzDccj403JRwsIsfuheP7oSppxfw2d292M2zdjc5upJ6cI3ankU07iZt3UfdmDRuQDDTnsl3rowb5jq8egGE9KoykX6zQDvKIo3mM9ixEkeok8cCd6P5bCAv7oBjyxx/7yiPO17o/O370lKVnwYYSAEiWmaxL1qGZREzCX0d4kYQktrfKJUjz5OZHKtEwqmGfOFwmtHvX2k4wAb6pUtnsBP7/inO1+ud+DVShCLz/pn2U1cMdFXdmNozKmz/8Basetw4xZCZgqAlvFTzljqzEh+ykqKflCXJgueRdn7h6XY7x8sef1+BYo6KHPVIS3t6H7LIa4N5QHx4lNl6Htf9u6oVDECKaWRohYi0cTG9BNu0iywuktgZMJdo+EMXaRqjsBslrtsyeuSLkMCq//bmDPq/tvkDk0x9eu0TiEI4fJN55M5zcT4wVMQQouvzFjUe48c4DZ3yMD8eiwpfuPAyZybpoWUJZInVt51trkwauKhj0TRJmcAqpBp41qjk0xLWtMuNvVRX0F5HBkkcMgUA0IJ0IsTZsJIVsaqOrqNWmaSvNzYxGNNY0E7VwzEQh1uqa6xaQxFqJtSJZAUWH6288NLYR6jfdfi8f/OZeq7w2fsAlgWKFqE2Fpq5IU3qaiLUpOLk1jizCVM7r3vBpyvrMP9fWTfNQ5CvT7ZQ5CI4hRmIdGZF8U8mDUdreUFvGZ2NNCWW4gOY5pMnL4mu3Ow0bdxI6he8BoxRiRBT1C68VdIWid+YO6+q7T4J46PvAR998FQOE5ZPokb2wfAIRRds6UqLQr7jhzv08affZH2JQx8jf3r4H6mUoLZISBa2NDkIjUW2LNJKbAylLqEtiViB5z1KZtGRjCcNlex5AHKKloJpZdOyOxzbqBKgzuindWamXqpq+0cbS162G2+B/71iLRo/u9i6wPCjpds6+jPE3b7kHhiX0OjQYX4o8Y41oqoQzikYjrTTbX6iJ3lu/m1S+ctNd/IMz5Gd1ej2Y70FVGhHUMcB29NRMnGqqvT6xyo+xicDGXKYb79tnOeLjskOWQdZFprcRtl6ITMxikjL3F90EIIOisy7clb0HT7UmA48AShuWkPm4McNZpFwklIuE4SJhYT9x/23I8nHDZzRzflIrbezlfOj6vWd8jA/HVJWvLfQbGoity7TXBkRyT6+tTQe16pXUEeqSMFhClk8gS8eQ5eNkw0UT6NM4ShtjTfAoonFQrTTPJrnQUt/wRCRGqBVt2n1SMaDFAWvD8i1+VzOQpAgcXycqwEO1D1x7h+nfuyNVrwNCSP3hJJKaSBOzNJQCUR09WLm6mczZs+fM24+KwqceNdjgKMKSRBp1Tl2Q4CRTRpGVeytRtYb1Mdp4QffpjciwD91J4sxG6PTQzHZyonv3hktwXy8SuCgLdNZBpK9cGjp7fZTpEzI01jBcItQDm6ZSlehwCSmX7EasSlAlSmaRS4oA038KZBkf2LNwxsf4cExVDcPIUkSDOd/V0b2sOmYE6kjMxNIZVTIRqhhp9jqJ/vwwSuXA70h/nno0nIiTvnubXI36aKqRIxsdjrQ6QUZ4ilFKrESPCPQyji8O1ulsPTR7/z1HfEoHjk8JkFn6FbyJu/Vx0/lpIpY15YjdMmG4uHjGx1gUBbt7OXecWrIJQUITxWlMnhOPpNLa11ZkJa7scMaHcsY2XlrDxl1YhQjIO3aR76e/cG1TpkJYl3FQfafO/QAAIABJREFU6oQ+UbuQxrw+Cf0TaP8UWpZGb4g1SWnA7u3VVbcWsizS3NBL1Zjyf8UmLae8+z6RiJS6tSKa0ELKxTAoewW/C5sgqz1BGVBpYfHq+IcjfhKshC6hIVOPTEZ/0/rfdLGE6Kx4EwF0BygwXCfe0kO2QdVc7yzLiXmwaDGlfUlDrLUmJEgjfW0/asu26Oh8KJw+s/OhWx4CM5lHsK2U3A4jWhV29YpQccy4uQJ2/f4+R1hS9KwiEutGb6kV2zzIF4FDdaSsztz9h3oRDtyBTpg+k2iJLp0a7TqxHvXJ0b7tHVcJaceyxSEhWNsOgNY8aW5MbToCTHaMh9VqVG6bqTSsPIdWAk86VgZ2r6xwqUdYnjL7hjPawcW5PWp4lYKqEMhICZDdvKzkAK04iIRZiWFWbYdaV1aFGwyZWgcM8+HYebMT3HPoGKhSN2x8nxxdJyfq5y2YOol9dFvz2swGhFQBbc5FXSH5md+iw6riwLAa7TspuvL3iRpJQ25H5umfJEhORhHXGG28GFbz6e8Pp3qgB+ytoVwH3dzeZA7HD6InD8OJg8jxgzAwvEao7aKe1kfXWnAGrCDeyhLaNIAIV5638YyP8eGYiDA5aTe0scRDq7DdQCysOK8Jm2oIkE3r8coX17gCLFdNrPXYarsaHQdArKrWz6UFlLQf/jMxxVFd0cbVvKB9v1QyOzmezeD7d2+BskayjCwb4URp+vLo1AZfOwZ3NCB8U65r40VudaQ32+b7PTwrG4flV9DxsrQTrXlXKUZn8deI0RrSwzqOlns49uiRSH5IFm1Kr/gONiwZDs88JXjShdvh8CkvN9emTe7lfIMnMsgK1PlfIzG63FtTOtCdQIsuMcuos1brSin8+FPOPeNjfDgmIly+dRpEvP0irugNBI8JtfVoqnzmFDTGNTEvkQ5BCmtSVndE6u4tOA2C3EqpCfTNFMkU1ZpY1/7aYgWPIofCxoBFzQkEm1hcpWqhrBR6zAJ0MjZOn7lW2MOxFz/n8bBYWWtT6ELWIaujVeQ8ggkIQZUQLQ9Tb4dpKp516eeiHKXVCBwd8uTHXnDGx1gOShsBFmwjJcuIYUQCVoJxxAClJkY7jigQfbMgBJ9sNV57lDis1bvrAz2wcDpGm65yapnh8pmDro/buRHOm4bSK2AtoqgkdjjYzZVm7aWfp9C+jUukCCsq+aYJztu5+YyP8eFYkQWeu3srDKvGmajLuICOmmCbETith+NaSeZlhdfS5p81bC2UbLSHq7fa4NiUBLGINJ1zAREdObT7ep+ocNEm8nVInR6O7Tp3O+yYcUxqiAwHTTTSwHmQaqKoqlXhEru/OSfaTF22KAx44jYuXoc1M1hehmM2bag5iysgQjvncY20PCQqRps0PUYbs1oDoNGmBzdKlzUaK/te/JEWOYpS08CAdUlWV9AfcMfhM6+mALzjJf8AFuuR48kC9CZhegMys5lQ9DxktuZrexgB00tXdnwNZ0hhGHn5k3dw/pYzD+8frl2yYwMMRuCvRjuPSY0Sh1hPL677gpXQnBNLDTJPLa1h1rh02ej1FYgOQPvLpKhCJDMpG++vaw/QDY79aFWiVYXdwSlfckv3TVQY1jzvMVsdOD77tnvHJl7+zMdYWugCdw11IX2ylIJ5pKqqTVouCCFkBBIVxpn/Jwa8619+z7oc4217DzdYoMbW2k57K7R+rw5p5ARxrNGpOUa/WJdDetg2XodVDxHsJMaqRGtboOLVC00neLRCbUEIFl5XFTUK3cAHbjmyLof0g5c9he3nzluE1ZlAtjyGsOPxML8TZjbD5BwUhTGHpzejM5th/hx0YoMpFPR6SNElaGYlZAeJf/EHn7Yux/dwbX7LppEzEbDynp/XBhhv6XmvbkVqRbcWaGlD+iSlMW3pl/YW3mgr2ffqlWD110+RR6xtHaQd39aCD5Ft7/4xjiqy/ZoXPXU3xRixlX/zoithCFpW/sm1IWImjfuG8Oz4VkzfpyhMUhQmUNacc8EmXvDcZ67L8X3w67fAdEFzXZq9SJpIsP1YcTxRG8wtdQ6N08bqsLQqrX0F9RSrQEJuHr2uvMrSuqlSzl3Vtvsmve9uh3dcd3xdjmnDZJd3/8L3w8xuOOcSmNuKZl1jehcTMLMF3fwYwrbHwqbzYeP5yNw2woZthC3nEzZfiGy5kLjlXOhOwbGad//Ms7h4x/r0Oj5ce8rF5zpfKO2Sxo9SvN8N0+uWJqIaPaRpjgaogdo2kriyT3AEMVuKLJlr9tMeJOHTj7IcJDc80HEc6yfF7wzbqIzn6Lt8817JAVr7z8UXjgcbTHbJru28/ZUvgL2LK+/9NC3ZG+NtT/DqmwaLNFeopmPO4VTFu1/xY8xP9dbl+N511behY5OIgqxuIbKoqvFlfow00WIitWrD0BmnjTfCKszhGMdmJHvStIk4h0XrARqHLvJWobE0SZQ8J/WscWKZmw+dWpfDuvLJF/BHP/ksiEUDnCp2g2iWI0UXzTpNOqVENO+gnQk0ZGgooDMDvY38wg99By967hPW5bjOxOZ6BZdcvM1Y5YKn29pESikhTBFA+zGKdGjhWpF2377hMjh6T8rwPKiwvwmZVZk0uLpFMHUAqqEP6Gw7wHYFraldrTS16O1xY3ZYAD/xvc/mX73wUvT4Er4i7Iw2DdCeEruyrjr4nrjxihJV4dASf/yqH+K5l16yLsd1055DcHJg0EZzLOniuIdaAaWlaMrWhIr6sFsYv7sat8NKFbjmPBjoGOuWxEiMFmn5BFpi1TSNal1aA27Zh+Eprr95z7od2ssu28UbvudcWIg+LHcNbKeJoYVG7A7HIE5VvPzp5/KGn/pO8jHqYLXtt374GXBy6D4njI7bZ91Am7IxelgUFhxzyhs6h80ODE73sGhCQta0eODVpZAXjllZ9a9p/6jNWYmklHLEBZIG22rZar9VRZ765F3s3DD9iJ+7B7IiC/yPV76Ylz7/qXDXKbROLL2VKXNrKgEkAB7v6bx1gd971Q/z0h+9fN2O6/obb4eOt9Vo2pQYtQyl2oq3ETUOVkep4NjzwJaN1WEZ0CgeMkeLnGIaiV0jZYmUpUnKVjWxMl1vayotkXIZGfRheQHqU/zOJ77JcB0IpMleccX5fPbnn8BTN3XRxQqtW+zkVZ9E1akP/RrywEd+8mLe9KKL6T1K6rAAz3jCbtg5O2rHsJIUjUSOGtaSWuCaVjgAfIJKAsxD5piLVbtS+UEls2gzK4hZTpTMHiGnDhm1WEldkCalVLJm80pmCEDLQ63l8xdq3vDiKx6p0/WQbaLI+KNfeQkf/r2fBjL06CIMSqNlQAvjwzbfuiKWNXHfSZ5x/hY+/2e/zC/9+JXrdjzDquZ1H/oiTGWo01lMCytdc3ue9X2GFWn3ir3h0bHfAuPuJYxOLkzAujOaidGkTdLAgaac0dpzYwX9Zaso1kOUkqv/7i7uPHCUx56zfvSByy6a5zMvm+bj1x3hL756gPcdHqKL1UpXXwMTGT+wpcvzLpnnp5+9g01T42Fe35/t2jrPv3/Gbn73E99mhSdNPthxqLU31NWr1kmEahLWqhaNRcnBK2D22iYZpDFV+gRiRZ0i6AdrymnR1VMu2cITL9r14F/jLJgAP3TZpRx6ymN5+8e+wKeuvoG/vukgHDsF3YyYZ+bAhgrbpnnR47fywuc/h+/7zicyO7k+mFWy2/ce4prP3wbnTnu6Zz8PrrqhK9qn7AlrXpJHUYQ1Xoc17JtXj7UBwlHdSdVQjzSnG3A3sYfrilgtosNlJKpPWQHtCu/99LX8+k+tTzk42Vwv50VP38aPPG0rrzu8xKmTfb59qM+xfsVMJ+PxG3tsmOuxc9Mks51HJqS6ff8xLtx+5sD9P/+B7+R33/s12DHjkEULN2oUFlaaiC0TQYmp3SSB6bjeleRWrs8spRBVYgDRYNdnuNxUpjRWzmlL0bBvVpIAsPuw9o1zcsi/+KlL2Tp/5ungoKrprtOkmmSb56Z51Yu/j3/1o5ez98Bhjh07wY17j3ByecjG6QmetGsLU7OznL9zC91HqML5vo9/GTZOEkLuDmokmJgqtMlDpaZ4We2xWqq0mmWmZTZGG2+w98qPfZ1cLrVhBIAaIzhqTagiMd1M6jdJyquHQxguIrEkhI6nMZY2ooFbX/8SHrNz09g+1nrbvmOneOnvfYj3/do/ZaJzZntMHZVX/f77+b2/ucnGTLkKg1GdYqtq2DKXJA4xJYkGmIsIMQGQjYppxygf3Ql77okjsHQKQkVQjOcT8mYzaogSyWGltOT+7otaIeQcfcer2TBz5kNz//gDf8MVz3oSFz/K5hueid167wEufunvQSEWATOaQWhm+HBzBULCs1ae+FGDdrChInW8ho/+9tPP4kdZYeNFWOIpK2fHGsoSqoGpVZal7eR1hDrahJy6coKjoyohRyVQxyFqKk5Q9CAK/+tjj57RT+th7/n41/jYl+7h6Ikzr4JmQfjFF10JBxehHJoTynPozRAnNyKzm5FiCms3ygiSI3VlUscCaciEia0XSKeHdCag07PH5BxsOBfpTBCWlwn9JUN1NRAlQ7OcKHaDjG4NcYnmMKIstH512rZ6bJn3/eL3r4uzWhyUfOTqG3nXhz93xq/1aLI3vf8zUFWWoMQK1WjTp8QjW7VOA8kMjyRFXyKj9iERk9FOcwk1ImG8zTljdVhSWuontdqjimideCERpAKpnESqaDmAegiiNkXH2c0j9q7CZJc3fOkA1951dJwfbd3s1n1HefWffhUK+Oy3716X17xox0b+y8svh5MDc/WhA5OzMLUB7c0gs5uQ6XnIc1u4WU6MQgwFMe8SuxNoURDzAg0dyLuE3jTSnYJYoicOIvdcjx7fY5EvsG7BfFnDRVv50SuesS4vd+z4ST76hTv5j+/8Mt+8fTwCi+tt1958N2/88NdhsoWjJoJu63lOWGmoDilNlNWAPDRKqmsXnc6ejddhhYyAkQaldp6VVjRRlCriFUIqJyrWJturdeWQi9jMNCLkXWTzebDjAl78kXseTVjhw7JBFfmP7/wM9AqYmeDDn79h3QZZ/MILL+eSi3aAdmw8WVW5nEhODDnSmUZmtqPzW8kmZixiKjpIp4v0pmFiDrrTUHQtssoKIIP+AnL4HrIqopJzWm6Xoqc1Pkcai2W5idMlmiqhUzBK4dpf+4l1o4r85ee+AbnClh6vfdtfs7wOTfTjtAi88L+9D7qZc+PE6ScJc6QhYDcE3dZ0KHuR6ORWbeha1LUTSs/+Z2rbeJnuGi1cjTa8MWq1ihSiaBVh2Idy2bGrIVRDNJZARLMMnd5A3LIbtj8Gmd2I9DrcsPcUb/zU+kQk47J3fPxrvPPzt5sEbxH482/v51u3rg/XbKbX4cO/9k+h20G1gN4k2ptEpuaQqTnT1c9yBKhDBt1JyAtUCqMhaCArOoSJaaQzaWIM/WPo4nE0llSNHHM7vVvNq3I9rCAk1juhQ1ZMELpdtJMT8tzks0Xg8ID3vOqHecpF60MUPXqqz59/6hqY7UIn4y+/eDO/996r1uW1x2Vv/NOPc9v1e6ATGkJqIoompQ5pdLmk9Rz7+xHR13/UjqjWrsmcVRtza05l2FXtE3DbAF9Ui6bUpuQarzAjhALJCqQ7RZjeTNj+GML2i5C5rYTuhBU1VKBX8MrP7Odvbz42zo/4sO2rN93Ly959Ncx1VoDRb/nUt9btPS4+ZzMf+6XvhTJAbxrpdIkhg940TM+hU/NobyNMziOTM0Sf6CxZbtgIYq01sUJOHEUWjhgmlmVo6gFMtuZKdx5XVpAVhUvRQO1RtZQuP6MKx/r81s9+Fz/+vPVJBQG+ccPtfPGWwzYlKUbYOMmv/tkX+Ny1N6/be5xN+8w1N/KqN18FG3qJBtzqGqFFBh1plTXCHKxRIVzLxuyxxpsSDpZh0If+si/QaETRaomsGhCGJRJrYj4BExthejPMbSXbdC669ULi1ouIk3PEzEarq47GxwtApjz3/bdx17HxDCh4uLb/xDLP+q0Pg9TeNuFpUi/jTR/+FodOrd/n+YFnXcIf/PSz4GRpi3jYR/vLtol0pghzm2F+O3F6MzIxB1lA6iFUy2j/BHp8D3r4djh10CLmBNCKOInev08DIxJVJUDq5VGUWPatY6EeQj0k1kNUDTTWk0P+2WUX86p//v3r2jXwE+/4lDcFmwlAIVz26rdz9+ET6/Y+Z8Pu3H+EK377z2BCQHwcvUZv/Yloyl5C8lA66hP0/sb2BqNBrHK4uuvh7zOGpblrSeUZkgc0z4idHtKdIXam0GISnZwm23Y+2ZbzYPP56KZd1LPb7WYK6kNB126ZkRCgH7ngv32LQ4vlOD/qg7Z9xxf5nte+F8oKGm6QjFokJgJv/+iX1/U9f/77nsIfvvgZUGyEzjQMB7B4krB4HAbHyZaOkdVDiqJDqCvi0hF0YT9ydK8NwR0OnD3fMgvBDDVJYoF+Q1gzdGZDKbJgxRavFNrQ1tA8V48s8y+fewlvfc3PrCtX6nPfvI0D37gHaWgifjMGgZ6w+xV/wF0H/u+Izg+dOMXuF/xnWBoQ8sxRlWjRVLRC1qjhGfveZW5iVHduppbRFK8cw9Jo7PhY18aSH7OC33iHUMzvQMq+kReLjgG9xQQi2pzMEAIaChr99Ca/9tFQDryvjQYKkplY3fe89Xo++pOP47yN68smXk/bc/QUv/ymv+K6vSegl2MtSjHF6/akyYJ/9/5v8BP/6FLO2TS7bu/9c889ny2zE/zYB+6E+hh69G6T/wkZsb9oCzcEd0w11jQtDf+KduTT6oK2HTmOro5YX2IINsJd4xDrIfXnps+pCkf6/Kef+m7+7Uuez8Q6TEVKNqxq3vAXn4X5jgkJquM26SA7GfHwAr/wX9/Dm179E+zePh5p6wdj9xw4ygte+79hs4DUxBqCR0apOT1dGWEkdZxEEUcgPN7oH0ZdBSmNTK0793mfnT0bb0o4tRk27oCpzciEpRwaciuVZ10k76Khw2g8RfvxYMwLt7nwzYN9nveOG7nt0NIj9XHOyPYeX+LHfucDvP+6fdDLOL0XxU0E6pp3fuKadT+Gf/K0rXzxZx8H+26DA3fD0lFYPIRWfQK1VXK1HDXvrLlHPHDKFkI2Sj/Weo0qwuFl/uiVL+BXfvYFTHfXt83pS9++gw9+5lbw6Oo0rXiAiYK/vm4PV/zan3D3ofWRLlpvu+3eg1z563/Ct27ZS+g6uVdaY+8frKm6Ft0a1+5RVmofs+KogHSQ7rQ1zCZd6RUnPP2/dtp33w81DEhqVGroRG45tsRF/+NaPnPLoyvU//ot+zjnFe/h6j0nYaLLCjkVyWgGxpqMKUxl/OoH/45rbl1/3tBzds9x8M0/z0sufwp65yliJZDnxCAWYYXMdO6TRHSyRqMqYANwgx1ukNaxZ0gw52MRjVUHm88agcMD2DTPF//gF3jZD19Gsc5KogtLA37jrX8FG7KVmNpajnai4K6DC5z/k6/ny9++bV2P40ztM9fcxEUveT237jlGmOqB5IS8Y5I9LeGqdiuOusactopcjUxQ6jBwccQ2GJ8Y8CandOZjx87EHiVTc9aitK1+4kN5+L3jOXgDLPo8hCvediP/5eN3sjAY78kfVJE3/9XXecZrPwRaI90272itc+DmPuDn/viTlI/AnLgt8zO8/dd+mr952y/y+J0b4GgfI4CtTMvv21ZtMl7llBAIPkuw4fi4jjknBzBQ/uSVL+Dkm36R55zhePb7sj/+4Gf52xv2woNNMTsZTAjPeeVbeP17PkF/XPMP3RaWBvz3P/0EV/zSH8F8B+lkRkyQFjFU/B9ZfVetfa/Q/E1bA82oRSlVNqc2fl7D+nZ8PkSTy1/6c4SwI8kIP6xH0lK3modt6Omk1xUSbaKJxOg7i0JecNWdi1x3x3Eu2tzjnPmzj2vduOcIr/yjq/jt/3MDdO1Gbvd2AcY4VjhtYYlAVrD3cJ8nbZvkiRdsW/fjE4ELdmzmJVdcymPPneOevYfZd89xa1JvbnbDqRqnhDj1JLgoY2q1SdIlApJZ/6E4ZnVyCLMT/PoPXso7/t2PccXTL6Gzzo3Iya6/ez8/+p//Aibz+09dBY8M/TlBIIdPfvFmbrj1Tp544U62bjj7+vxfuf52fvkNf87vf+Qaoy4Eaz63I01TkLThSzWok442cXEBgYANSg0abWwCCpIjRY/Q6aFkSG6j00KMNkZJAc33cesX//isf3i3sfpLee3VXydkl57RdFuxqSpBISk7xDRlJUaClkScZ6MgeQ/p9qzYUSss1fzGP9zKTzx7J5dsPfPetAeyAwvLvP3/fJ1f+ctv2nbRyZrKTDNESdIiSw7r9F1dsF5KTkVu+Z8v5qLt84/ocZ9YGnDNdbfymr/8Il/61E0wlRkDv8hNzTIPWKk8rOivVRFLIaN6b6jaMIxTJZwzyzt/5ru57GmXsGvrI3v8tcIVr34Tn7tpn53z9spfHTCmlCqBzgBqU8EZ1nCy4nU/exk/+YOXccG2R176+rZ9R/jfH/4sr/v9v4FdU9DJmkKT+r0j3qCumqSaGCktpI+lNSoFdCah2yEM+sROjzC9iVj0DJrpTVlVt+oTEOp9tyCH7kQZEiSHWq+Jn/yfY2t+Hm+A95tXf12y/FKrhLVOchLHT0eYJDBg1c6oIxKcj+YSapppw3VEYm1/15mwRyicq8XoNcsIlfIjj5/nt67cye7tM0zm63dqaoUb7znMOz93E//lL78FPaAjLUc1+nxW8sfkclOJeUUtOUUyhc1JlJzLL9zKB1/xPcxNdNbtmO/P9p9Y5KvX3c6tt97NO669h2vvOAIHFqEbIJfR0InoH74EZnuwawP//kk7eeYl5/KEi3fxhPPOnjrCa9/6UX7zXZ+DDb3T6xmnOSxGT2g7rHRNotqcv4N9XvULl/Mzz/9OLtl93oPOMh+MLQ0r7rh7H6951yf50F9/G2ZzZKrT3A8pcmpmH/pUoyQjM1o77c8QCRt2IsWEiY1255Atu8xpAVFCcoNON1XCYJF45F5keJJQK/HwvdfoGNUaxuuwXvOpr4fQvTSK2pBHVeKwtBPr4GEIgZh3UQlkWOnVLlJtUiV1bTIn2O4t9cCHemKSvJhMjUxvtqk2wFqlDwtkImTKj2zpcuXjNvBD37GFDdNdZieLhwz2LfQrTi2VfOLmI1x17X7efc9J2507CqeOE04eJ+rQ3Y+lgrXmINkKVQpN6bKngpK+zqxNhu4kxIzfuGI3r33hpQ/zQjx8O7k8pK4qFpf73LzvKKeWh5xY7FNHZWaiy8xkl/M3z7JlfpqQZ0z2uhRnWTL641d/m+e/5t0wU4yip7Xs/qC5FGHhG036DKcG0Ml48ZPP43mXXcrzn3EJ09OTD1mMLyosLC5z7MRJPvLFb/HpL1/Hh67dAwXQtc4CFS+6NBnJ6ICDnk5ZaCYNeWFBCIRzngjzmwlkxKlZNC+cqpKx5n0hRj8JsYLhMnHPt6/hHf/276nD+vcf/jo1l4oIWuSEUBD7xng2WQvvGs86EHKyTodYWQqoVCb2NxwQ8txC2SiQHBYZ0pvyPB20M30fYHEayWTRTZQKlofQH0IN8zsmeMWFs1y4bZb5jZOcs7HHhomcuV7BZCejrCOLZWT/ySEHFwYcObLAvQcWed+9A76ydwDE0bANx3qkPIke24/0F0EjMe/ajdRfPr0Kox5/JdYxvihDjmbWyxezDmjOW378yfyLZ+98hC/a/1120937ueTf/pFp/6cQ6IFWvVfFUkRvA3pGumEmhJdeyNOyMsJyDZXwzKfv4kVP3cW5O7exactGtm6cY/vGGaa6XYo8sDQoObHY5/ipJe49cJTjh49yx55D/Pev3s6xv7sXZgtTWigyx2TtoFJbprYELUcfx4USxQFyxXDb1nGGyVk4/2no/FZE7d6KWmMSBGtvyZI2ToL1epYnr+E/Xv731GG9+iNfR+tLGQwg1oQ8EJMqA2I9XiLWb5h1YHLKwML+ANXSw/Papu3kXVMPSDhpd8L64hCENVQDwAB7tImegwqqFVr1TYK56JmcydBHilW1RUlVbVti3jUMJwQfsZ5ZYNTJDNcJa51gm6cCAaqKrB4Qiwkb8hD7yNEDxJPHsTzK06uojYgeITYOnKywNLfoQT4BizmfevkTuPKxj16i49m0A8dPsf1Hfgvm81Ga2rZUwEiV1hQ1xdpv9uDKqgkbwnA4Nbyx6b1rOGU6wkaHNfQrewwVhuLQQ2UbWK+AQqwAUGTW4N7JfBSb98662oVq7RmDFy9i9E15ZCEKUKKYyoViEVkQUInQm4Wdl6Abz1kBiTygSVL1F5ACYrxG/99njc1hjZXpHkIPciEO+sjgFAyUIIHooa/4NREtidKHqkQ6XbSukNp733ClykEfGQ6RiSl0ch7NeghOhhvVeleYhcIeNscaLSOqQ5O7UUGCLRaVoe20BWgBUIAqIYMYfOJvqG0H6hSErCFXrPGpHZ9TRYoOWvQcewOySXRuJ1JVaH+RkBc+szE2LyVZF807jjmIS9bWCCU6rTzvndfxtX/5JJ5+wXjnII7b9h87yQv/09thxgoCjVZ9O8oWE7SLqzazFbNtokMQDQ40omy4zoGnil4kAWupygP0MkR6VhFNKH4TMfk7hFZ1D3FelD+1Vf0eIZyY7wjBD8XS1NgpoDuHhA5x+QQZNTViWOiG85DNFyGzcwRy1JVl17b7y4sf+NePtI1X071cQiiQqrS0TYNrS/sA1TpNVVGCKFovUg+X7Y/Fl2AdkSBoZkVc413VfjFXlseVkRRwjHUzU9DAVAfv675jFB0j2ZWDZqCrqtpCcY5UrAZYq0kLL8gLtDeNFD1iKKzYHEeclkSONfFBnxDkwzRVK8gUpqcgF0LoAIEY+4Skca+BkOVobZpFoiUx1hZxxgKZYI3OAAAgAElEQVSkwzPe+S2+9lNP5ukXPLKVt0erHTh+il9643v5wnV7YNoKESlNaszB66h62r6iaY9rC0O2/zA5k+ZPbc3GdDvVgoSaQJo76D14YrSOIOI1Juvf07YOWMtiWit+PKoRUUGp0SwnFFNotYyUyzC7E92wg9CbQU8cguVj5nanZmHDucTuXHrV+3dWKaLStKGrNz5DlMpHso3PxuuwBovooLbufI1+YcXy61UX0C5eNaoaNvPTMoiBkHeI3QmYmIGsQFZcGH+dWNrUaG1NlI7RK0A1UquH2xHC0EDxOGyckeK9dGIRkdZDiGpTjAlYb1xtuFMVCUUXyTLfpSsf++2vFYJFSt6Llz6tANqdgtChcoyX5YgGG8+kWiNOXlR1XCMT+wwUhE6HWAae8QfX8s1//R18x67//2jbPxg7tjjgu3/tLdx62/7GWQEPMTKQ0TpLf5i+9w2SytUP1PBE8mlCuWwbqZbUeHRc24AUSROGyKgzJVaVRVcqjNQ+R2/fPuZUCcyCUtNBenOEmXlib86c6vAUdGahM02dd5EN22BuM9KZRPMuGgJpIpW2X3hNUzRNq3INeI1GTCV0DN0fo423+bk2rSuthhbteDm2wQtkNOUjef3GVEFdjzoI9CYJE7No17hUo5RMQStLw1wsUBwj0KSiSLQKYqfjI9MHaDWw9RjdOSHeGePHiGEKGqKrMda2MCKuSV+bXErRJWZiJNa6dq9k49+1rk0lNQuNLLQtlswULBAklqhEU2JVQeuKGCEToXbOk9YVEroQTMbYDniBJ//yu/n4a76P733G487O9Ryz3bHvMBf+h7fCoRMwlftNeh94jdIUWxrwOnGasOhCU5EEIVQlWnSIm7YTZrYQ8w4EQaRAii4hz4mDJbt+5dBUKKankUGNLJ0gHroT7U0S57dDb4awcJh4Yj+6tGCbpcMgo+MRcsmpiRBypJhCp2ZgegMytQm6E7am66oVDbp6aNaBIpjsUhAkGk30tOEiK06G47k+mdoA2IDdG9CeWThOG6vDkgy0khGWpKkik0Jhy+lXEOCS0wrBqijZBHFiGmbm0Xw1D6kVoVWlM8nTZmlC/KpKKAq06KJVaQ60LiGmGW3RU0BZJa2h5qCglVLYjouoEVaHQ5eJMceSIrgoKUIM9lkzJ1umacFBfFJyoC6t0ticB8WoHq5soHkO3Qk073l/nxi1Y7AEm6f4vv/+Cd70oiO8/Ee+60wv16PavnbDHVz5O++FQwvWPJ5mXa7Ri5g4fuqcv8bSxijBESnDGlVqdH4zuvUxhLkdxKzjqZE9IqYsIvmUw1PWCqYSoBB0agtxbquB6EXHhs1OzCGbtsOpI+jBe5HlBWJdpgMEIIqiE9PIzDbi1AaYmbdCj3jEpCCFwQNkqXIYvFgAIo5+iT5AZJX4XLY+QxWJMiIxp/x3lPmMz8brsBCTF9HaFSr9F2EUE6dKjOJcE/FIPHShN0M9tQEmZtCsYwGvrt5FdLQw1SlxAio2jso8hCKVp1r1wEq5rjcnSVOoHbI3x5b5gm4Doxbui3olMVRIMWsLNcd062urcAq1VSQrbEIJwegcUtgr1SUm5ZIDlbGZFUt5g++A3R4yOUeQDpVAGCwQF44TytL8a57zr9/8We7Ye5DXveyHH7EZeOO0P/3013jx737AtNl7vqRFEcntRlzhlGIDN1rUPfp9869jmgZmRdh2PnH7xTAxYxW2WNsya9ZD8I2wvUCCzcwU9es0aREyQlDTu5fOHLppBilmYO/NZKcOW+GbCJKhkzPIhnNhYhrpTSHZBGlhqkeOmtYMI0WL5o5J1IwHQwbwzMGcUu20jnQ/CZLlfj+Mt/92rA4rDpYR12YnOh7TmhDcpPTi1ZGUNhUdwvQ8zGywNoNQrKHuMDLJXTA2OL0hRSvR0rYYS28dUau2OV0iXXRa2FPbNIVcpwGzNC0SCkina041lXjUIzzv4cqiD9WoLB2N1RAKSxWl0yGEHHTSOWiV7bITs5DnWIuOUOuQcOoElMtkcUCMQxgum4LnTOD1H/0Gr//crXzlN17EMy/ZdQZX7dFj+44u8Ot/8hHe+v6vwvZJC9nryraOkBHqIXWKqZMiQ0yUgdCkgis6KcDxwEgMGTJ3DrL1QmRi2knLsDraXgU5OXqhrV/EpurYpH1YBK+iMDUP81uJg0U7ljwQutMwvw0mNwKW6luc3wK6ZMW7nnY8axzZfZjSqL+KOhxrP5OQtWKACDpeIczxYljlwJ1UHJV7VQ2IXCH6Zk4riC1EmZhBe1NoyG3sdiMwtrap+m7kDbgikVAvQ9VHy36DA6R2hKS22ERndZ0ObnRAYD9v83gAi8VTihsJkhOrihADaSqMis+ES7tkVtiV6AmxfxKqPlRD0AzNu8QsQ7RjMjn1EO12DfhFiVIRymX08B6rIklA+4tW3fTiQsgy4tw0lDXP+o0/4/f/2XP42Rc8m6l11pk6W6bAp6+5hZ//Xx/m1nsOwXlz3vEAccMFhE3n2Giy/ilkz41oNTCqSqzRUJCEBS3SkZYzaa+7gPSmkc27YGLOUj4RHprASXtd3EeUowAFOn+OVfhqvxeKDrHomBPOcoTiIb73Q7MQxCZ4e1WQEEZV7WDTuiWIcSLHaON1WFoTJLPNquGyAM7CbWRyiUgViVmBTszCzDZkcsZOJAUrncnpJg29wfe2qkSrlJrFkYMSAUoDzhP3JtajhtLUmpFwER1hYoKgYilrE5kpSG1phUqkoVmkVLL5vPirlNDtWqVvsGROpxqgWdcWUYoMJEM1IHWE5RPowiFk8RixKKyQUFcWIXpUERUCihaGzfybt/wtH/jqrbz2J6/gu590wRldwrNte473edPf3MNvf/xbcCpHeplHxjnamyQ757HEYhIIMLUZpjch/QVk4Qi6eJSw8Vy06KHVEO2fRAbLaLlMwh+16tvX09tgww6YmbP0bXV/3gOaYOm8r42Gpm7/jLY+q/ySZejkLJLlthxRqzCrfbbRjv5ImDaRo4SAlu640rHV/pw6IKcnGmfVxuuwYrSR53jPnAAh80gIl8IAYk7MBWY3I3NboTOJSo7XcVi5e+mqSzv6zuObBtgm5GgmBK1tFwbb0SSOKAg+IVfrqklVgx9fJKB5juQ5dR19+k8NBKQokCDUWW6jwrV9mKsitdaPxbk6WXfSFm7ZhxCJmYnmaaZIHQnVKfTYPrITh4hxaD6+LgkSqFP6mrDAFeRIgfken779MJ9+9bt56fOfyC/94+/iSedvfejX7yzakX7Ne79wLy+/ao+RMs/diUzn6L4hLB4j0EW37kazLhrFQHFVpJiEzhTM7kS0QkOB+M2I1lANrBgiEBcPweKCpUJz25CJDZBlNKDXqnX2QKa+yWkdR85udUbXVLId+lAI3vMatV71ng8Ci1rzuFanhqeniuogvjbZhf0+U4MhoqpBE7EcK+w+XocFzlqPxjjOCsg7kAkhn0G1JlbLZASkNwNzW9BOt9GJSvHXyKzXLkVcqmIgYTQOlOS2UxqbONjE4gCiA2e1K+Q9Qj1EB8uoDhxwN9wpdCeInR6aT4AqWXeGumOtOaFOvWaGMqjYQ2qnOKgB6A1NI4JkHVau4ORSzZFrb9LOR7BeRACqDNUSOb4XjtyFZoU5eAViTU3NipHvqfE15F44cNC0yGFrhzd/6Xbe/Le38rOXXcQrfvg7efzuHayjUMUZ2z3H+nzoG4f4N5/dZ60tPWsEJgKz2wmTc3DiMDpcguntFg21b0Ro3YBWPVyxmWU9C3xFCGEbeKeFdntoJqt0FFvfSGRt5+BvF9MGFkkcKBLc4G/dBsSDChoCMRj1JYTMijprvff9mIiao3MOlcEcqZpde5eFC0WKrYemoNSsj9EmH8ElpCHWJVIOHtRxPFI23iqhCJChhY8UynveM5fD7CaLEIZ9YjFpTPa8aHAgfwXWupBG1DTgVMtq1G8Yg+XhkaY6FINAkSPR2zSCENUGfIboClUCUvTQDTts0nGwmyJK0RyB+Fj3Bl5NQG6eN0eaLIhYOnvaobdIe8EnHxcuKZI0sZx1TFkhIRCldVMFB/SblNUXbasK1r5ZBaCboZ3A2754G2+7+k5+/unn8k+e9zSec8l5TJ8luZrVNqiVu48u8+4v7ed3bzjO8sLQe+1C6zy6cy+mYNOkizBIQ7I83VbjSaswSVXjsGUdI1xmXda4QM3zV7R1rbboFJqIww0VUDdIwYrjyTpr4q8r37kdEd1HtJSoEOoilSliEufyIZCFFa8gdRytt7U2qei/D8Hw2nro6fP4bLwOK+9BZr1NEjIk6yKdHrE3RSy65iiyHM0m/QaGVbkVSfROHZiPsSZoNEayM5FjnQB0B/nTDex4k/oEGFGgHNi8xLpPzG1gq2Q55B1id9KciHpvmEZ3FhbN2NfOIWuOMJ3iVbt+c/xWBFAH+INHdKrW0iFi56YpaAloXSLDPqq54S6iTmIt/HNZvpEUBpLkrYQwmhAj6v7M5831clDlD796F3941c1w/kb+1z96PJc8dhf/8Dt2n5Wo68bDy3zjtiO85ZtH+eRtJ81J5ZlLR69lHkGLOX9h5doAUIw0rLWDyQluEGtxsecEE9SUDOlM23AKCf56FnFIo99Ji+IiIw8kBi3ENKA0RqhTK1Zs/laCvZ4pPjh5WNTUNxpflKLwylu43NGkSp4r0ya1GeoKGS7Z190uteT+OR17FQi1zTbQUFgbl2cgZKHRa7eqZYaE1KY2cEIqhFhCNXRgfnw2XlrD1JxFELWBjjEUhO4EUvSsyTfd2k5nOH13UZuVhv1KRaCuiY4ZmEyyL4i6JoRIrDxEd/4UHu2IClpWyPAoxIB2JpANOw3/wBjA0vT+jWIVlfbxjGxt93T6s9Rfu0nX1NnG6W0EtBbvI8MqiP0lNJamCOFj3FUhZMHpNH5DSeuGIjkwDMz1sjUkB+bntpPBtmlY7PPyP/saDK+GWPNjlz+Wl333JezYMs/GjXOcs2H6QV3j+7KTZWTvsT7Hj/f58C3H+c/XHoTjfXMWRYCpEY55f9Zmb2vr32RJGkaicd9MzSBYFcwxPtHamsjrvl17Cu8ztdcTIBBtXYmnddHXgjsuCUYETqfchvrWOGI9SvdbVIqmB1WjRYgaiDGAeM+g5EZ1SZ8lBEKWoUQ4dRT23Igeu5ewdIRYqZOpu8jkRpjbRpjdjPRmiJNzaF6YEwX7+6QYgsMHqUIuWFsZOurWSCq+Y+ZgwbgjrPmdFqZGI0UaT8p2QW3qb5aXryD/oYYhpNAXRmG1d783bPkcq3rUQxPoq73VoJ0gCZ5KZEhnI9rrIr05U/WsWzIekuSMV+3iiXmcOGWEBvAOvjM3fY2Nz1VGPC5p8A7bWf0YI6NdN0aLEmKFln07tjx3TCKY0Fq0EVyiEDHwH7SJuPDeQ/sIdu60WbB27hpwOAhMdmASiBXv/+odvP8zN0Ev5/HbpnnO9hk2bdnA9i1z7N6+gQu3zTM/2WWi2/E0x9LTso4sDGruXSi57Uife48NOH50mTsWSv7qRAWLlWFIWQ09EKl9ukvwoapKEzuJiczFOtqNm27+kEiUnqZJQKKMNoGmR9S+VvEBrq49j3pvXz0wlY/UaJ7WSVRqnw2QNgCTn1HrLlBFNfjTpQm+cMY5iUXeArMNPhqB+VFLiAHIQLJRWo+48xQoh8SD98Lhu4jH9hGWTzjmlo2u4bBCBvvh+F6bcpR3kYlpwsxGmNlqldPerA0u1ujXPI7WdeYtQuXQBQkU1arBxO47TT47Nl7QvZhwYLOyG2cF9b91Yk6LYrzfsI5InrSsve/QasLmKCTaLlENLZxNL5HSA/87qKEokLntSNZpWnHSDbESdlgDN9MIcYg0fV3JcUGUjJBlmEaROzEf3x49hdEGZxqJ9Yk3OgePfjTLkVgTRWycU3cGXAtAJBDyrkVfQBwMoDLKpDb9cr6gVzhcbf1s9L80n92fK8HkjzumxXTD0UVuOHgSqnut9aiMpv+0PIDzLoLHPsH+xqEbD1GsSTvQRLUI0HN18qpGYuWVWSX1slm9Q+318rxx7jEGQnNTZ0738JJLrLwKqGg9RCq1jopoawYRawkLFgmF4DdiXYEO7GNnYu8V1R2LO5fYOleSUstUNdbm5yRQm9ajha+1Iy0jkImnkq6Bj2L6SiYGkC0eIt51LXr0Htt8JbdewWgbXXBiqVUfA4qritRDdOEI8cRhkFtsQ5uaQ2Y2wfQOmNkEna7rfhnfinIZLQdoFbE2jNXrZnw2Xocl0U+S74r2wzWe2FoEDWSQCHWt5/jvpa4MG/BAjJQCJMpByEcpFkKYnkeLKW+LsRagdOs+KIsGSJrcC8bxSdytPPdIOifJG2sIziA2JyWSeX9gygKD3yhDokd4UhhZNGgOWQfNlZBbmTkKjl95RNFJ+IMrC8DIATURKTQTs8V328ZBrwRyE6cMxJVgPQLMQXtOaIwK+QbCuecTe13Dc1aA5GuZv59Gv0a5pWVV6QGaR9k+CkzrclR0idi8GFUgsxHtIWsi1KRtLlqZk4rWYC9+LkyF2qMrXzviHRCm6JkDGahYNBUtvWuqwMGcpO2laVNg5MiAEdHTrwtpM4itZn+aaDT9SfCoV6lQMmThIPWNf4sMliyal7xZIyRStF+vxke29tXgZGbViiiBsLQAJ48T9GbqokeYmkWmNxHntiPdScgLYh2RJJKpXsQK4ynCtG3MtIZoJ7yOfhPcx/IWw3hs13TcKV2oJthxZxVyYqgsDchypNtBqhL6auRTBzDD9EbIJizSybNmBkY7bH/on0YJ0S60ppupGjb4hdEN0howAqjN5SvNWQVzHDEqEmu76UWsFD/so3mGBkWLHOtDdCcZsKpjlltPpHQ8rViZxqTT1Hw8TxNJzjVZAySnGzzhMK5mqUmtQsjIiBg/LGzdDVPzTQojD3gOY5OaSghochJp+G1St6jT3edYETSdAgZyl8TKfmfRnK+pqIgY9hQ0um5YIgGrF3JGzlpDZqsjRrRK02gyQ3ditD5QMjTz6I0Apbr0shBE7WXr2vXVvdsBi+Sac+vXt3FYSVXWMwlVk1rWLCMMF9E7/g4Gx4hZz85BpKV2agWJ6DMDNXEXtX2p03VI69w2ASU3Z7xwlHj8ILL3ZpNnmt2ITG00Imvo2fNzS1WTRt24bOw8rGYHTXPr7us50bGNGJGsMArECvPdOuRIMYHkHePT+ALPpIvmYhIyvRkT3/d+MokPNdxNC+B0XCr66wV01OqQZd4xn97Hb+Y4NMerWC+hY2EiwaK0uvT0xHSTdFCiIZhMtKbIqLJooU6AvRpQ6xN87fhW4X+Kk3Yz56UpjWZ84okhdlNIy8PF6F0JIJ0JSz0UtNMlTG5A5xL59MGey9PT65DnjpnUVhhI4Hb6HGqhnUUo1Yq2ribKSJ9BI1FdA9+jn6D2uaJrlDWVOoCsIOYFwa9hrCpUSrQ0yRWNJRoFsKpxk1FHBSpzNAlXTdVBP5farq6JK4Em9Q31dq4IaOUtpooMKnTfTejSEcgmXQFi7fMr3kpz/6mbrcCVca9dd9v/S2Rpgbh8nMDd6MQsMreVMLOJusH7Vuuznl0br8MKdvEltEJnIK3AVNVC1NK8WNqNWQ6hGKLFBJK1k0JXUMDTLYm2+CSnnpwihCnyEIiSGxu64dGsgUs11v5dujOqlZW1lGo56c5rf83fabRKJVkXnGkNYhlHEhCMlSub4v2VtYG/olB6elNHI8GmNA5IFR6qvr1dWUG5aLlwFkZgaSpKdCds/lx/Gcolp0MEwnDZjt3TZnN+LnSYHHtnAooptNOD2Q1ob9arpxifLaSd//7OZ/u8BrSqCLE0sqPfsyI6inhX9e/FOhIobSRVYmXHluOSlnKGegoeU5DrpXuNDeUjkvSf8JQqM5wwWjuYCr4ZeLUuFNCbAHLDCbtdIBodpvLXDGJKDbXRB2JKFXHsLqWIccS4T0RjFJ9ZqrDn23DgXiTLRuc4Wv9je7iESPCZABHNRoq4aWmOSpfpZ9qMkZMGKqlRMlTMJUSApZNw6phH9JkTr4VxxliPgghrdGOv/lmIpQ2lEBP5w3dUrWsbnT5cRrOuVYy8RWaEB6SIQLx6axejXvEea3291vGtPK6mkheH/ut08yQyqO/yrs4YgjhW2/qsWvssRf96uEQjMRrUuTGpuFBZT2FtMwx1lL8C1rIjEtDMF61XpSSfRKY3ErszSKdLCBkxL9CsMMnlcgmynIxAfeB2WDzq+F2LuqEYYXdiFma3EaZmIRTUIp59pSWU0soH46zcYgnlsklN1yPmuGrtEUmTP6/8MyBJ/jS9lTEiMeF1Tt9tzhNAaY4h4tU4B5TtCvkLJ7VZq1IbvcRxHLB1Jkl11jHEBLIro1mS6g1g1ZCG+pBkbDJfn7V4lZIVAZFhZBWydBw9ug/pSMOMIK2t4JVnjQRP0X3ahKMqo2TcMs7UmmU/FbGRenaulBCyUfTfPtUiaO4qtyrEqmxt8uOxMfcS+jSTFSGqgtTNApBqiDKEqm7KrLZIIjAw0LkuoMqcoawQMoKnkE31TXI0VH5hPeVJPJS1THwgq2IzEtPRJWXHtIOn3TI5Mo2OK4wubPSdHqkdEMYXLfa8ukJiBnFofDGi/U2Wm0RzZRUue/kR493ey5tTQwYxR9Wd6MQ0MncuMjNvNzVZ009oOk0BujMeCwqyZRfa6cDSMUI5RCdnje1dVoRul9idRSbnRpOITitvj8rwa1u6ZopFJ6VFhc30l0ioo5X3NRISLQFHw1IEAkBGUEurmsJyQ/S0yHCEGVnF0LTSzIGJuL5+UxWNVrRoaCuO+gQDuG23sZYdyTpNtBYJ/jdeChXHzRQauSTfkCQ5/yqdDRNvtEN3XLYBnwIsLRDqaPI4SUAyeFTqURlR0cydUxzxChNkmlj/0R1dcqw12nqvlD4HW0MhrRHrnbW5hNLotY2oGOOxMas1nPYFJKyntjFKmo12mAiNwqKlR9i8v9BBi8L6yGKNxqHtdmVlWUEI3i+WOb3J3y+Bzvd5fPa76K09a5vQgMe+ACzqKWhK1mDRWBNdqWEzsW5aHmwI7NCUJDwV1rxrO3xdNlLaK462FUkqaoNos9yA743nwOQ0tbZkoFef/FaBQYtJwqZdML0ZPXkEnejB1CakVjQ3Br1K8NfSlYew+nXv+4R69baGYd9pGKOoJDbnJdpN5kC0ppu1hcVFx51EtAHNY6xHfjONimswl5FuepMyuUfR1H+aJd5U69yoYZAmBqhIyKwookZdkZD9f+29y6+lWZYf9Ftrf98590ZEVlZVVnW3kZoJAuMBQiAxRv4HEAibAUIMERJIDJgghOQRfwEjRhaSUctyDywLMQDTAgzVNG3Z7gd2uV7u7nrlMzIjI+Lee8737b0YrN9ae3/n3siMrOqMk1adJUVmxL3nfI/9WHs9fuu3oPBgfmuedLFKTrVKKIXxHVJo9adFGa9GxH6rsBcfIy11BtQhDuXIzHHRk7ijz5HDZNziDNjLpiEvWi79Xtuq27NGmUOWPu7+iPqZM/xly1fAJaSFZc1dvwi0NnNlNF3B2jVPO09dw1ZnV3B7138+ZLDkcICsq1sDAqeSgbtMjS6jaJy7JxaBOlNDxmJiITCAHjgc4WQ7VTHNcgEEqxcuK9lMM/BN2IEUYD3SJF9JHngEDge3LiCQ+RqYd+7ilitnqywNcnsAPnkPcnzhz8ROPCoTrFwDT74N+fq3PTUNPptFMuOzA+HBsorrx25piThrgLqFmBbCF0pOhFTfOM03I5aFsa+ou3Q334K+RzwzBw33FFQikplUNxVWGjcxN41tzygD26h1zEhX9EI4jUywUpCJn7C8zDz0sHNmEDMDjgswacZIZb31SoV1gTSWroRlzhCBLyV/N5GAIQygYaFiCSP0+QdoL58i2o2ZhGJyOExgydKa4iuJYOB886PZHYyGbWkRMuvuykzIfJQmISK0krz3sVfKOdXV2RVWnPzmiy7I8ggsDJcsVbrGSaKQeb+5UtTxWVO3booCZQKKQmfGF8ApC2T0A00Kkik0Tvi0QmKj0mVIxDwY9GUmCVywAB5EBrcGKXu06coR/I8EiuJFpetLbwa7fwsyEb3ciGS2Cr1SYPcE9vM/olXF7FLZwZ58DfLOr8HmXW7IrHPM5/7suWhhPdHty8z5JiLyxcXoKpkRtd1W/psWVFL5cB1Id2dOgUW50cWfK91wtPtG5InFsP25+HsyYJ1rMUsBfA3oPEGm2bOxaAAqdF37swOwukKb5Xv27t3kwcowBoZ6wWFdmf/bpKA8/ynaz7/n8VuQykiUlNgk2dMyAJ/JqardhQ60fdzL45KDy2jKmBqZHXxT8HEYQiFtuZZIwNTMqp9Tzgwc1VyGQVns7hspj4Ngjw0ZghE0Fq2btcTQhG8tkzMq7CxbKGUiV4j+9qMb45GbGySzKTb88X9n3CaKiis3MylsPNga16i0+KhUjM8xTZDdFWSaATjQTwzA7grQd3y9QZCU4jDH/4gXQ+PqCvIb/zLs5TPI3R28R90MvPVNYH7k4MfXsYIkeJqQ7KWx2Ptp/ItYU3F9PjsBumbEHtWK5EoPZRObZkjJO+kiFYfwYJFx3hqfFVQKJy4XS3TGn9BWRirAKGkROOg0N20k/qs3Y6gHdKLH0RqkVW2R1XTFJCwbS1434Vo0pGK2iIuSnVaaQY4vYe/+Cey4eFfv6Fk51kuG/xixWPLEW23efQkcR5VU0lbpCsZ1QnGBcT+6idElyB9rUA3MJrqL+IseW38+ct6+hEF7UX2zq7rL16A+ydPkADwtwKbvXz9FnLYjTIFuslqay6xKRwANRssj7GlXMCdPhxFHIwJiqxh7ArMvZukuZZC4tR7YpllupXgJxLyHqRPMWWS1xOAYB79zGgo02/1paL1NE+xr34ZefwN2cwfM6oWt042y9HAAACAASURBVFVan5+/pMTHTVpXAJldFfQGtK+7NB9SbI3EiBXRrNaZCQrkavage6uw5egfL2zaEOwbo2uSGL1QaK6QknmjyvDe3JwWCq6rqQxs25qGvW/siMukKc8mIswqYumAyQZmEpFjZmAgu1Vah4H76hix7onyTlFIzHpFg8Ge/gi4+9Traq3BCi2gEXTKdW0wlnwp6soO500QZ43lXDJjmcqI6zLeuY4Hs/q4e5cXBPwmsq5WNFyZs8l5Laz14Jkw9nczKcOkSuJX0rIKMGQGRP30AmJObfO7NP3DVM5GErERhs1x6jmFGZ9MEYhKDrdA2A1lpBEREZRpRj0e3L26mlnOIJDdbqB/sX4fAHhww3fLzt0/5yWSoJ4pE+Tx40zBe+L68zJ1o0Rx8fDicYR+5nM99Jz3F7EAZEBowORKAWVOBZQbKowclhhF6QsABoQHZZXB8m5hj0+RPxxccWVHcD9YAE/qMBsWyHiQ0C6C0YC7Xg3p6oebV+AHUzNubnROeBv/cxJK6DHveL/x9wI9vgRunjo0BeECIq8jog5LMUIvSoFVMuOKoJSSLr0k9MJvEzWX/C3XkFuoqfQt+P09tph4C1pXbn2xYfAZ5bwKq2jGkwAkDMHGzSqCdrwBBO7P058GO+1kELMtiMaWnoaF1+wJktg/E3kA2tQzLG5Cl77QaeLD4BQkkbEM1PTQrVmz3ZI4g0KZgV3xmrtp70A+ACJT3289kPHwuIjjr7yYu8f1hK5LntLhwfD+X8hYH2vQ8ir5y9e/jtReCzpcIlH+uzkvnXGXSjfQIfpuyRCDFrTYTZsrlsAGZCwLQ4yIEqSM6PcxukSZEdb89vZQagCKf1ktLKYVQMz5msY2EAlrYXeecDsnfr4ze7iR57hAG0DFkGhDJrynZ0ztg38GOVYI1BW39Od2ILRbkAHd2PQhECFUwbg/Wn8KlUTOa4QZWtDZ9GEYWCC7oZ3WN39KdtJz2lhnjmFxAQdDaKvorGSGoJDR5nVgUW8Ha+lG+mSAuBGBlRVRXwV1/Ei4cHmqR/ZMJi/zMX+GqRSsEWMYAqUbu34Us95NpYhT3BIRbOrBf1HCNGxwQT9HomlqZw4Vp+HhYlRW8585/omNYgsKlAc/0+fZXbgjudQrpHnX7HqP8wz+dxk5yHxt2HBNjH/jgeNQAI/9iCozd7a57MbAGaxx51dboaQ4FnOIzL2xFmbwjHhAuOXdrS4fEwzhCMH21gDQiqA8+wS4eQEUTbhGf9T+DjU6U4+xOUMCiTcZ1PgMLa3IGsacCBVTDxtuLcI44Fk55oezIbPk55Lz8mHV5icw6K3Z4pbFNHlb9woAAltuoZWZigi4t7XTt0amxwCs3RoxOGpZdeqTAy6fVQFZvduuCLQUrJihIsh4kQJB1uYTWxhvsn6KFziGpTlgUURg87U/QzHApleoKYPTh5ycdOCp7xXNrvBm9IUi5vVxr6H8xLxRa7RHa1O4PoC0P4+pF38/AQQVttyic1QRYLo4gFKVbuBSATuS82qFteYFzOIHTuwpbVTKCph5wmUTjxpk05OyiAPZiReKGr4xcA2wCoG9KKFedtNE4VCF1bFO5jWFD42152aoDAZFqrJDsyMMDYo5MVANblnXU4+qKepx8XKjKn7YBic/3b1WK5MCHuc0gXsnZHwQVaeXYbDdmAAKl9ID/h5fUwNaKd7dqWMuEIwY6YJG0jUMNyGd+OuduV+anBnWIE5jIfC0bJl8EZsrCVm8bs44kFYrombMIg4VAVC6WYLVfXsI3afmgUvtOJRkjFSfQRFzfJZGUaox2wZifRYeWgJMBSaMxahTj0AUKH4/3V2z6WW4B686kWha1/uWiWB1toBSgGnHDI0X7GI9umH6Ci7w8SpWj7AjlYhOzl0/eROPh7f+Ly5hxUjyRS1uOQf4Ux3ZLcRJSZDq2eBvPfg8Hlsyv4n/5ITVI91hiYyawtjAQfCqPnqDrZP6jnEdABn3fOVzba8zflJkzl+l3ZL4q5Nv3z2DPX8P9mCyxJWJMlxhrWXcMT1gKuIW+wNG5Racb55BFxG2oDt9JXnwFTc2LENalpn688l5s4RBD1sjg8SsCkn4kqGB7dVjyq3FApFe2hNxjUIajDhZ4WnfJKUjnoWX8v+xHk3FlYK0BtgKaR5jWEOJogCtQFD9mSo7sJQZ2O1puhO4h6nHAB4SgZ98DW6pmbvA2uDXtUoeJoPMV3Aw5QEC/5nZHTDN0DLD4qRloDQ4ubzuUFzh1gVYBDYvkN01bAZT1w1Rc+eHbXe9IpWWzxEQAJaHmEqvZaOCNxUqI8sGtCoGW3v8RQIesNEHJ0oow3ztFUj9fOx0A4N6xhM1dXMdx3/xCxEPsorMoI1BzlgYjeVZkDwc7rl1BhihB84MMmR2w3Qeson94RXaDHj5KeR4R+s3Luyf1DhkYywiSJ7jpZ7UmGe3cCMBRcvJwooidbYKKwTGqo049Kt7IxiSMMYxdk/Agc92L5v+ZuXMWUIGXmuFrCusAFIKFDNaEPGHMHiZFB5wmtvMDnKyPMbFrKJZFqpm/ITXghmUaf0G32C20A2oDa0tsDUYMCtUFVK8ABQo0N2MNs9+P/7ptxiX5ivOo4yTNa97tOYWJn8HAvUCcR+FtVF47VvTmSU7yzHd5uUILHdkGlgzkwlrsHVBW1bgagfbPSLpXcQEydQgzg4gon7f9Q5jjCoPizlofrq7Brj7EOVv/ooDKJTvLGZuKdHd6GDbuEZcjDGZwV3pOkVyPCxI/k7GX6rfP1z5KLJ2KzPsCLpDGs8Xz9H6zRKoyb/mX5xTqyeLIsb2iqm3UPoGe/kR8PHPIZME5IpEjoJoqtKfRwZsFas6ohuzTunCZsxVkBZjOha1De8dn/M/qexjDqg4mQLpz3FmOXMt4QK0grYeHZcDkqUZnNNpJdVwa5yLGDjrfNwYJmAspB7LNUjW5haS8cDU5I2Sos5ZBSBolqUt/H0FbEVrDWpXwHwN7GfY9RUEUbLhTQMEw/3vvywgQScS66Ex3klFtK6sofNgrfBEVavE/9g2O2QVqNLJDETYLUgcQrEeANYmet2xp+elrYA+AUQ9qxmJiezw0jwWAnfdjDS8aCSj0+JFsWSGyPKRwWHw91O+YwBqeXlmmuKc75ghpOJyri0eTGMSBED4NjnvubGDanqQ5mwXbj3DLWczuo9KqyWuy2UUhwRYxO7+EOIpe/IGueFTUYDKKJSGBIyAcy8GHG+B26eQ5898bcHXH3jIZjYV1gkL2fyi5HoncLY4Cj/gPlk3aFzLVPRC6yl/NmbEc923/l58EwmMYAZaz6u3zq+wqrFI1F2WVunSWYNgoRlPdgQRpir8VInTZlMzZmES05UQBsObuDVi5hiW6LVmHl20e6GOBqzB2MDN3ACI960Di2EBt0Q2PsJDQtbURDrHdWtkEZu/moHFrcas/xG23MEI5lSJchK+Z3BWRa0jLU9MBVaHsgoEiJHg2+ONj085QKf9QCjnCt0aN1xCEGjJxOY1gdYVmI2QHVoXNRIChmBnMOtgR09kCIPtQ2UAv98COGDg4RLlTp+xTbj5vDrigc8R1e/KhhUDsal1E2jKNZT/TgV4ajW5MhHGPTffKc684YkDAdoBuLtxZX98Dnn2Ptp69FrDqfh4WM0DNxRIC5Xc9SXaWiFFOU6co+xajgy8exLIEv0eDScswKypsFruGYlyuEGMGkrQIKYDZOI8ct4s4do8FlOPjopu8CB3HGM81Tv/DxAui1FhGXOvKkGX6ytHDWjL4i6RWndLAKDMzgEUmwhAuBxCzBZYLgFxuILs9mjXjyCPvwabH7Fl0qusqVGYUQTdHlptQoXl/fIM0RcOgL9zkMwJmUjZdMF0B5v2Ht8IxTe4WgDQVrodVnu1fZRnxHu2BVgBqQW2rt01pPWmyqr/ZmiRdYK50q8GyArU2TmSVNN7EgJouSu6d5VuXWxJDK5iroj83eCV5O/uDffwPn0SY+3wzhEqEOlVEoiSsOZlKyU6LdV8zH4N3dw3iPN8WMMqB+lXACx3KM8/RX3xEXC8g2pBPd4Cy8EVdBGI7gAxrKi06gRZuE9soMT1MhbV39C56nlurAcPKQS+K2KYzbxhL+IAR18nMlxwtAoNA3Mp+nun0g6X9HxyXoW1rAjeqWbmFk+ceM0bisq46AUAuZ2ARthO8UYPCufBZtyp1QpdnG/JZHbitDip1+NJlkUAFKh6Zo1HlU/pPAHTDMxX3qNQd9i2O/+8lyTMohmwHGHHO1oy/c8mVsen6UykC91ATyvL5NZoi1ZaGwm3LiwOKnwW4MbGMsDZBerq3Y5lcasgXCAzZ7ogMWAe86p9QYPNG+oCmFsJEu8VcRImS8y0N8Uwr3tzF8nSzU/8UDiVZDI9HRte0GM9vqNP9h6VYFs3lpOn6P1n2yypQZrmdXNNxJ949xhr0twYXS9HF4g3Qn36Z9B3v49qzas2yFGVJIOsMIPSIhtowXv8C/neXZWEewlkGzsw3tUaGpWVhFIKYxrY8leFZZWx3BzydB2zZR3gc8WN5zpMsE01vnk5byPVpFKUflLG+Ca17wN2DE9PLYUkan4NUXZ0ARy0OT1BO9xAmjiYcz0SJR+T1jJeARiwblHCvh88BmY6eVsy1nm9nnADtgZbDsDx1uNHtXWX0AJC0TemRNymVV9wpFgWU8aMqAhOFVYWFTvYUhuQyQoeAJBu8bm77Tg0saG3HeBxK6XrLMW7X+tEd8eLvVULiRKcoE7qgqZT8md14CYVWTWkKTbGpEJJsYA3u1OnNfDwyPYB447bUACdLJycZ+T/s+v1vQNj8ndGQ7CvCrMITfoun6TCPnkfgLpF/+GfASa9BEu5igbFEB3MUzci5qjP/YNvm4X8XYm31jbPv7WbxMddnfFhSAU8KEJFFr0C8sBO8kk+q+Izr/Nly/m75kSBqggD35bKKpkYU/rJIHSPRBqLMtnqmxtKVSGV3X7Vy0NsvWMvw9ljPHAEvUAB3UGqQXHnvFQ657PJvPcuImUPnCiXB0WcVkRs9UzoegTWG29f1eh6gK4QA+lmDaIMuDbCK8yg1tvYG+l2rXhHFj8M/fuq4q6bo0QBAGYE1yY2CjRIzAlK0TLmYxpxwGHMzWDYuUXAqloVgehEKIhCxVB5j6xfaxWYJq99W4OhVdzyqgtEeuF1jwPCYyxjDGpUKKPyyo0VzzqYCXyEHkf3z6kopOxRa01FH6SMAgfjBhuEE2sElm925R73K+oKWoD19hZ474cIQ8+btHbYjME4FcMzhpcgUX3R3z96HLYBXxdxTZ8W7Z8vXi/ojz15V6A4XCXG7mGcnlYjuLbfo2mfc7VuSA0VUXRZH7zkG5MzUyRbX1njGRAKiT+/J7F+jZsEDSgs0mT6vtmE1tRZDArr2a7fhszNGQ92pO+4c650FIU9moD2COVwh9paT61PVw7UfNXzpEh+RNrBrarWnLu9rZDVuvtjBpGViijaTTlQdkjI+OezkNWAtkBrIRCzH3dtdStGmgCyulVloMWFfsLH0EcLrXjytiLacwUtCoqDFE3IPcZnT/chOKhis4l4ALgZRPawSrAjY2Zhl0YRewfM8gE3sZXXEBsHqo9/vOoIcWzW6YGUYYfIXjZrXqcKAGKdQkU8VlUOz9GqAXefwtqK8ta3UQ8voR/9KZoWd69F2SC3/9lAaYz/aYaxnts97QH3NmoIoFs48VMqo4x3FeeVb2uFjfFD6cowvYZo2DJafHE7JqNQmbw4eey0wH6VKZKlwQPaUIh6kNnjnGUTx3A3BqylF8COwHKA1QUKQcMOsEIAZgxohc7XEFE0KgZMV8AskP0jyDQ7nGJ+jB4XI+q93ACHF37fujosIBbxgyZ7SAPEAYpK7ncjuZzCnFspPjd2awmXT/grawzMW8aFgo7EN5m6FTUV7vFoyulKIIp4o1g1N/bAPJFzQKvEC7s1EwAZ99EGyArVGQ3iANCI4xggUbcptGQmRVsX2NKcQNG8jZZholUR5kLESqi86eamC0lJd2042iN2k+vj9LNwyyohDq1BEGM8uQVDYjowq2ZZhyeuJOwIvb2BvXwG++Q9wlu8u039+GeuJIJssnjpl4jkQSD0GDIZ1x+SsdfOc9WofIwcVAkOUUErYHmQz7OIutWqQj57j1uawvdNWnfI50ioxGhph+UnjLOZAWsv9QEznyKWZp6M1z6TnN8lBGBijuuZ2B2Z3Us6NmQ4jVknhlYhdy/RgodbFFjXvCbMa/BsN8ODwi0VoYX7MF87vY0EQtqBlXiikP2eLA8CKXs8XDpxX7IfXg3erCHuMKa/YYM7EBX9/pvgTU8lNCodAWsoF8IM4ofdjErA7JA5fKUtn25ZB6fC6C5xo0ld/Hdlx5qz4owVWvp1RKFTKJ2ZGzUC/XCrK0fQfM7WHs+KdPrrbIZUFGYbJbUJJofbqIG1CtYIV5Y6KMbA4CGsBxXo0/dh7/8A0hqqzmTl8DewuiauKTUDXPH0JifxXNtxz6RFgF01GEPCpJFuTY9rJ//vh6eoZIWEtXZ6m3wPO1l/+TGTBMIZuqMjIn1cRAYPKF7gnOrq3KU5pXgGTniq0AS3ldmuwD8pg9DiRcbazOEAjfGI1tjinGR5UiATIFNBm/fIvnWYfAFH3RvCNfAYRzPlNSdgf9UnN032V9XueZxJABTR3pWEJ9X2pbu5HfcGqLQCfxU+L8DTngRteVI3z87FPeJaEo5Qo/kaCsE/MjpcY9WI74+++ZUMpDZ+yxq8rRktAdvH9qU7S/I6nRIEicaSJjVaOeFOclNL4SHfvGGIMsCdbJzI997EDvnLzjeOk3GWzd9MJIuxU2VaKI/KsTBAFNZW6POnsKfvwkBu/p44g7Pfgpm/fkAB4ocolZ/rSrJGxJxB0opNkLPkC/nhGCtp6AYtXA+JfA+3L2mmB22Vh6Am4DaNqxM0u+T6irKpYXEEN11Yvq9QwG9azusSXjsAE+TnyU2jBZjMS0yYpvWTqwKHo0MPZILNV/69JtC2+Ck976HXT9B0B0x7V4QBMI1g6xTRiwKQiC0AdW2CW2SBSVIylwb51EM2gJi7CwaPRyFsnUFBRIxn/H4soAg0xz1TYcUzn2icwG2t5s1ZM97g7dKzCwxP8njsTlczKEQwWBvXB1gYoET7FyY1GiOx4qyuBQSXllTofsmFcTC+Rxg91tBs7XQomzGgi7ssXYPmCGpXcJvYjhHEamlRjb+L98v4zXhQ+NNCUVCkoq53/rOb59CPfwp7+SmiqUkLq5WvnjGusIiFY0Db3dA8KcFDMbxznxd0TyEy5KMGiZvkmI1qgsqHdzFl1UZYdHVYIwIPr0SmPRZOrBNDz8TmtIe17oGXnoQYLWPF/fZub1bOa2GtACZ3+SRacI0nVpnpSljSkaB5M0fD5AtdWNZQ9o4anq6cilh3MFEvZODCyqxJWjY0l+NfIl7PZ93qcOmf3Z4w4yagdWittz43RcdpnH6d9XbhKsbSVEV2MR4UlxKzEx2SYQ2q1bvuSOnWVRUoWg9sx+YV6USAgKOgYa6DGl038zHyrCQIuOX1VWGkBxXzVla+WVdXXGkplv4OcNR7a0gCRItxoVsDeCxGrthKrC3o9MEF2cZrtDo3i4iKrfs6LB+a0BvCjsFs8TUj3n3Gbp/DPv6xb8zl1g9EMRg76mznTQZLFifun68djaC7xroKE7YH9QFkGq6XEg3vkIowrCWuF6oOZx7ta7hn78IyMh97yUrAzeX72q8n1wfMlL7ECOnw32aVwxnlzMXPCx+hoolPiLBcQ6cJZgz+1dWzbAqHMuweuds2FUD3wK5wNmZgf0WmUYPZ2mmWVQcraZQhVzUEf4Hh0O5+x/arsg1qOySDgeS0EO7fD3TTopFB1kiCSjM2p4BxignbU9LdhmzUIeS9J52Oc5Ez0AwP3EtYJACxTs1d7LJzA+G48N6+UV2xhGuH7tppUL1IryDgZz2uA5hV37iNnOTAJpCuYCZymjJVbxBgZ8DRIRJZGB1FvT5BJ+O/tRhF1QGbokBdUJYD7OZD2NVbkKtv8rnvgOcfQezoyunFJ8DxpV9mKr0xK0G3CWXIuYuOQtFtZrBgQtEg1GRQWrc8EMPiTXqzXFV9/v1Q8APDY7r98LRm0BJ1pvy28hCJGFVYZkL2OI15dPe3xTOKYeBk5VBKDq1JvKs/s0Zs9IxyXoU1KRkXXP1L+OQc/CR+kyt4kXOFPPk66nRNcxhQK2jMdOjuim6Pbd2eRBR/CafDWFuVixxcf31yt9M8PEuY5uTVsmHRpzUEG0xx6RfLICqbYxT/e5b9MOhvorCrx5Drt5MZFWbA1dsoV9ew5eAuxN1z4ON32WIdbOghQD24o6szzApjTSvE+iFgwsqDtnCjROOQCGSzkoBMno5hJYYuD4kCWdz9tOAsi/GVXti8GVXiwfwzirLcwD7+Mdqzp2jHAwyLW+BX70CePEK7ew48+ximnjH02l6nMo44UQSz0/qJ4H3etrd3DzxUJIjymJItBDRLd6iIneHMn182bySpeLxusKSya+BBTkVqAKtDmFhojRYxLeUgAwSgwQTSGhTBXS+IMqV+/zgUac0NFQhhOZ5TzhvDso51kpVtsjKO4xZXA5tHTjNk/3Vg/8j997pC1uqbp8wsaI6Tjie/siI/eF6/DFFFtP0KKhijDZ6xJCBPKTGFDcDJtJrKaAFqujBR19XCTcpIiAy6i9eu0c2nMa9qaKIob30T9Zu/DtFrV2SJKWOjj+naN83VY2C5Az75uVsGDVAUGE9s5zcPNgh1JRVB2VAmgixfCWYGl4pm5qDF9RZoMwkWQXdF6MZPMCN+jSwR0XZMWACeXonQwjy8BA4vIYc71LtPgcMLEglyjOoKe/Ee5CUPiuBalxhfA0zIxhkLkgmBQLgn1bCk++X/a/3fGXHgfSQsaP93Hm3iqwPRomt0M+H8Yf6xmU5Zyy/2ruVurfmSb2jMcHpYxd1BmHjLvMKMaJkhdkDUQI5YvE1j82ZoQogPZJPZ3BzQZ5DzxrBqzVIaI8WwrzBXOJ5tgg/qpGj7nZfctDgJxE+RsgfKkOJ+ZWDwz1NrDedSxKHMHFE98ojLg9/gBhWa4FRQEXQNvNTmcU+f3V7xc1eOVq6Br78D7K5h8zVkd+3Uv9br1cbvNjRImyFv/zra4Q64fc6ExgozutwWSpJuyhDozr8zXqNS0ay7cwKnsW6kHDYEWaLBiKSXcN1FYX17g7+9N/y6rsDTHwNPfw5j63gY41NDByEJJWrhtuVLYxOn2qybU5eebjwrKsSCk+ze6PMyVGhyep3+AgMm9ME7DkY4baHBO37giv174uVR884PlDYE+I3jngy8J7Z/xODigKWSTuqZM8uZXcLZF9JaWWEOQMxTw7UOpzfQbOfEh6V5QBREDJfJ41VEvAuilRTv4c78l/P8FhaCMOVvvUU9SJNTD7S+6AKQJM7LPryGb7Qq/YXp5pghqXWyuawr9ehQ7c9B5chxk90MefvbkG/8OiDeGEOXI+rNM2B/DVkNsiywyNIaaMVUB9K+85uw22e+2e5uIS+ewUByw1Xc2v3at3xLPv8YYmvYeO6OaHRTHhRavIuZ47nY407I6QXA3VKAjUGa1zcGLxjjSm6JFMjtR5Cffw/tcEP3SOBJAR5mE4GZ1al4kkaG2a9IMKarY61bVwZkJ+Uw1BgfS5qhLLnpyjob3VBJeaG5hyiUCYjsmGTb4m6DQrQCNmeMKYT2LaINnpg5tQ/g1xP4PiBvGq4feRKKbCXQyW2z5S4NgcBYhQJ0L3OoS5SIAzu63dldB2jJmeSsCkuloClT5kRXR2wAylZZEC+SLgoEchgKyB6YpJdUQFxBPDieX/IgR2azVZjd+em1Vsh6dMWSXFXYnOI9XoDuQo3iCMEBmhCff+CYHdzgNj+GPvoGDIX0yHdoyx3K7hpt98ivM00QoRLMCzFAPE2wJ+9AyzXa4zvYk08hh1tgOfLwqLDrt6BXb3mj1JsP0TlQBsT4vTFyq1jMEDVvyenFBATqAajMDMejBUDSHxFiK/Sjn6IdbpI+Z4wYJZ6P4+G3H3yfCB4PODkp2rOq4aLy+TZGkuV/8p/jtAwjmSVOAUnYfDPjj8MQPWg1S/+5BbJftsp2+GRTQKYJenfrtaXzHkCFHBb0+kt/LztZP+O1jDAdhHtLi/FB9ow3KOdlayjwzVxJfUwApi8AcRfR4DVOxdPU3pzBAaBa1H33XDEjm9IbECraOAEz6N7A+AtN8TjJzNATAFwgBgT/uBtV1nFK5vzyY21XBHByQ7FEBQC0Gdo8A/snsHkP2OpWTF1gtaLOxS0pjUxkvgh8QcbzTr30Q/fQ3Ttoj521NDiy3DIz2PXXgONL6HJDV7F6yl7CGsJm/xkAU695FGF2v1VoC8sRbilQW5mZn/BRDgRAb5+hHp+znTsxYPkqYZFJ+DPbZxixTmYQ7V2NGn8+xqiyhg6ywUV1/SuQIh7SiEB9soT6Bz3ZwO9FHWOEjyLhBLhF6eZdxsxyrkeJi4v00IMKWpm8yuC4wpZb/2yZHLe4HjxbKEjYjbJB6j3waa6JgOr4PY1g2XPKeV3CypmT2nE6zVhyokQViyPik9UBdJl4Mqo8kGp9M6eAEKRpkc2qa7oQbF6ezxJpaF8XiiCLQ3ZS8G2Xhc4gjiowXWFJsj1VWkatm+mmCpQJun/ssae2eKF3g4Noy84/m6fkOE5+nbYS7ybu+qmo46QivW+SnewNArl6DLu5Rrv71K1j6xvAELQsQCjFzIIaPGDeumvjbBTsYZ3uWOwYpxOy5Qh89B6mpaGGNY5hVzUjJc692YpJQ2bwQuvcy3zJyQY2ZEu2oNRJg9ndfRUh2HL4HuOaUQrWYsiHYVcRdrymGwk/wO/dP98hwh3GM48dvAFUa4BOaMvi+wlGVl1CWqQN3/f1pYga5AAAIABJREFUFnz0bcTsxTihK+U0ts5rYH0VGEcPfYP4T4Eg3TEAk9JNRFcGAmRX4FwkneP9FxtUbvq0ZOIBwvrYxmS2LxL/V7p1DJizrAhUUhIYH4SlZXR1iJMK5RP/HyOsDMQrCiKelLV6QYynjVUCM2MWK2TaQXbXHgOT7gKdvreAzKLxR7zQ2YrCbHaXibCL1MkGYN5Brx/BXk5kJuU4mYNUrcW8BNUxICQ1tHVJyziaSHiHHuLb0vRQ39g1rK5brKlkqFyGoLrHn+IBexzUAGSLMKOyYb9EN3TsFUtHILbzJVkDNtCtZAEc2nDafozWT3LeGbx5bBII8glDqUVMzAKwyX9DhjVtw/VrUjTDDNhPjltbj6nIhUBjIYOsX59rnQemz2W0ENPQhV2BjfCOM8t5FdYUJQw+SUJEdSOnkJQZNhcYORlghQXJC1Pg1mERqah+kUE1WKJ+dbNs+yJuuAc8jaYQo2hsyiC/M/TN6u/R40auhHwTtgT/BUyiPwQXrMUz0G20BpQJZffYT1U14K1/AbJ/7F+5dtR5ZvAeIh6URsvWrUQnlOiLtrGu0yaFzHtscDviG0Kv30L91m9Cnv7EN0uUjTjEfXtop7slRMjTGor4DONZlpZAceoffgvrLTsBrZ7ggCDd7LBMaTW4ZVA9gTNkDjssojMZtCh051i1oD4KF85ifQgzbH0Ou2711TLmT2IVufVpsLrAZIxf8XCSEqNCbjNSBYHVH6fTJk5Y6c1UVu85aeIWaF1IJeM4OJHWcWD+xPyLwVh14EhVS6Mz7hGKS4jtar/KsIZWQKR1yeanEIXudmhTt7IkTpusvatAOzhie5pPTiDg8x3tPmGx0KNQ1JbKPSDjJ7EBKPIebe1KLlDm6Z6WqEdcIC2U4FCXlVaT0SukKzUAJeNNeBD6mFkkKOCB8+uvoz76Ot8B0Le+4fTGELfEEEWzp2MyIPxb9TGtw2qFQdbava3WYG1OIGMoXTNBLdeQawG++S86jksAOdyiffoBvLtHVCKQ1dQ9PyqBKBeKkqDYtsi5AYCmClkW4Om7wPFForARc09LDRouDqExSibaZEHgfKGXQ4ULuykuJqxE6F7GWLWBSSSe+bRTz0Y15FnBhsGlbBIdMr6DL/ZRY8QT9pWQ0+OfbQpgdqWuRvU3YLqiEUV/Qutrwfo6Fyk57kLLcQywmwVG8ldYYQkKsh9a0OgW3/zeiHTxpqJl2pjMyhPR56zS3WGa3xhnQcSLHhIvXYmaRRVxU7/10zkydrxSry/Lg7UHu8HgZWeSjFo7AMZyIxkWnMX7rv36zJxxJyMWlv/eYIhmrs7rhPka+vZvAE/egU6lo5+V14YMVidwankaVkil5bfcumESFfq2QuuCZuqbQYtvkOasqAaHljjbRRT+FrSrt4DdlZeK7K8hNx8DtwtMHLENcbfJYzmjEu3KQ8lP7l1eSnZ9ETPg+Xuwmw/cssCwmTdui7tIWdMnuQWR9L8M+CsBkZsiYKUSmpTTEIDdWLTdrRp1B9BIdjh5EsHErVcqAiHjhgMxpTOrWvMDhomaVGUiDhZmz8tY8+m6ZYxwgu0UODbU5Rbe/RfkmoN32Gnmcx0lRunPW7eimvRxjrHKmLGHRJwgs52spDcrZ6aX2cEroM0XxnpkpkQg857U3OIZDhGvgtept2zX4tSuOiEXLoD7yirtFP//BpjJshYDFzO9f+2nks9dTTNH4vSO5VW5feIAHGNP1npBd9DYcjFE4U10+/GF3LOeEk6CIeMheV32BrTWoEarAqCL+hnxtkFa9XeQbMOFzLCZKLQCrRoEDmdwXBE1OQP8cR+bgot973NW9rBv/UuQD34I3L7wcSnMlkkWpiC6SMfYtiytYrytVsi0A24+gXz4LuMz/AxhL6MrN/KdA4Bu6gCxyVyGdXRKEpjgyXiOzVIarJyUrZWl7EC0ze71ioD7HF4Bbu1MH5k95OdbMJqgz6x/1gbYjLiSHz4ba23zyIa8SqvVLdBh/cowBm5VCcPF4x47j5wXh8XshbskR6DVVB7CVC0CiGlERRvLWtD6pKIy9u6ASpFo7gnkhsoAtbExae/cspmCcAVZF+YlGpx9pt4DNqaxAY2+P+K5wpKKU8zYTZpNRfn8Sao2MIYiAvDsV9gpzgOt7JacmJ/XpgUGV9jdiXwNWRvQvEVXUwJOxa1XK7M/ejl6EDxcm+XoRdKTAtMOoqTn1R44Dq+5iUIffw3AbwKffgC5ed5jMWbQeULbPQZk8szm7HRAXitX0e5ewg43PobHA+SDP4Wtz0/iQ2FFnSoBDLTDww/hYxwxmbBKO5Kb1kWU9WwUEUd3WB/0nDZKMMpZIM60Cql+0LJJcHgSWRGR6zMOKhnW4Kg0rD9r3F8URb3hq8nqY8dMtZMmVhIB0PIO9Hq2zbM+lunqCZIuaFMna1uo/ZnkzPQyN25CB5KWVohjVATQGTo7uNGaAaWh7CZUOOQh+J18kgh/oKJx8zfPKy6UQAWExRPuwLjJ1+1DSmcNRSg4KqOalhpjH9aQioWfj4l3vFQE90fEsLtYDy4Es5PnCQUnDtjkot1uzNdZUOLKqrHzdT6/oUkByi7Vn/dGbEy1+1h4Q81KC1jTjXcIhls+AZyUJ9+GzdfA/CHw4mN/foG3KXv7W8xg7tBK8UQKlYU8EWhdIMsN6g++A3vxM5js0irW4kXvfJtuTYiwH19sNr9ejnYw2TJDOI6JDUXB6TUFFGCckmGY+9WJCl/ZPp6ulBmplFEghQdfKpReh3hy2f5MQxR8dF2jz2JrDRb9WmmR5mGeDiYVe7C6jkDmXD+W98wnGdhqIytqpy7yG5Yzd372oLQ3LmhISEJtEDvCJkOrrvGdg2mFrVNaVialo6ZL8diJToh+fHFCKiRPCzNASFmSi2UIJIrF8onONnNPucdyZmZPDGgmjGVtg5HJ6NlofYkB2tiAlTEbXkcDkEgaGJcGkMJErPj3p2vI/gq696YY7epJx0a97pCLQdrBOebZDl6qt70WUVhb2EEHHX9TDd7i3RlezaiQTBxCUa6GGwBODwOguJtadnvYk3e8t2Mz2HKAHJ4B7/4I7dHbwJN3IPsnwM4g2MG8shEyCcp7P0H52fdQyzVjaOJcV9qZCHIzxSMYMHaMSciBAsmoB9+azTwr59T0hdfrYYEE8JORIWOtJyEDhK0u3SozupMq4lZ1GjGjdTcoIISeoYKCZ3CFBJRmq8eS4qAVYVekA1S45sXd+fRyBx8iMFutNY+JkdU3469wpeY9DJShlj6t/v1XQT/ejJyZ0531a0NcBxiszzyOOIhg5qpMTtanE1BZcqCd1N/NWmGreWcsSDQv7xVL/H7mI5RbNH1YIJWp3zDVaQ1aMmGOFpNLnIW9KRAXx4aMrhHl7+BXySGgW8nXkasr6P5raI/ehl5doekMFVcaLdkMXkdG9wMIIjtvbnrsmaDVkFghlq90KwwecM/3cqCpYeaU0updV8+kFW/Hhkd7yKO3YRCoLezTeActBdg/AnQXM+JPKoDevUT96Xc7hEEdfAtm7iKwblaRAFJeJWyqFh2vx4mJOBeHJONyYcHoEKQP4yPZP8TDBAM8RVQHwG/cPxRQKMrG8Mc4HZLP6vG0Pk95f/S1FH8LC9/54HrpkYNFIxk17J/whtMsZFx1GBgRd8XzHogQS8yHMGww8PifQc7rEoqwjGOC2OKKqChwPHarRxoR8V5QK/MM2V3B+waSvjdO1OHk9I7QEUxsaSpraw7kM3M3J2smMMRCugltqJ5+F6QlYzFpY+D93stZvmNf+AHctI7fCvdAkd1ROqOBcJMabO8ZsyYKU0FFj2Ntd+QotOaMGycYIWRmLSHfGYAst7DbTxFKNpvFCoiDKthU/Ye92VZYu3Pcj5Rs7uDsouJA1yjjic2gE7CfIfuvhTMFgPRbqGhSoEtF++P/DfL0RzCZfVPTUoqMcbr2pAreWFUJ0LPBpcFwt3CrvHkrf5BzJ3z1Mc8Rw+GGyHA4DjCBrjTDWvF0XQBUQwOKBsNnQAlGCEMXJdTC+ytO+V3DBJXAJRKEq8Wtuuh1EM8W70VArqQ54MrcEztDDA0gwJXPVjxLrNMMEcU5ncLzBt0LaURUgK9/C7Z/C1JmyHoLu7uB3t54nLuZ9197/ARtfw2g8IRvkMT4PCChWJRD3OCV8O3I7Fo/xYDBqkj2BPBkio+ERmTXFjyQ4qVyyuU3PtsARPQmA+j/FoWBFCmDlQG4IsOzD2G7I/DN3yAb6xBbe5WRTlaL6NDiJcJkkdgclII2XUGmW7e4tMAOR288q15pIGWGlhl1OQ7Wh6WrLrI4Kj4tUSVoFXko5FDkoGx/3gCgXGG6+RD1D/8u8PRP0HTOMe04vNXfh9fXUmgxRExItrRNNpQEjT9ubQjOG3p2Nawe4bi5ove4l4+3cc4C5DkuwlBMHsdzq9UR/3zL1CGWii/V6Dhe4lTIGgemzjCsvFMc1GwtRi9Cld2paYV578gBzhA/ix9Ehr3V7T4Kj0eVcT+F6IS6LDinnNfCevxrHpupi1tDUnxwd1eJ15FCy6IB0B3UyOV+j9ogrzr8vZ+C3mp9Ji/bhHZ364XUNN9Z6et6pEWmLyr1ZZudYtDynp7MIP7wHHGq0kLzmIUzGmxazcd3bYxpeGDVaoVcPYI9eQLMsYHDBvisAda8dy8tOvWPeKIag+SisCaQeQeTFVgqoAZbqzeXzXdp3nsR8DhLW4GrHYIOBtE5ZzMPn/mw7gYeX6L96PeBj34AlEfd0uN1vM9koWUoNFYjyOx/UmGExx5WA05WxwmkQYb1gs2/3Dr1Amfp1moorle9Ea/ZDzw+C5Vd/+HwLMNC68yighEKAi1QmTzc0fzwVKLQGytH0hQkVAcAQbChmP3QkRESMUoclpGl1MIu6b/KMSwhCjlOC56S1hTQa8hbc56s3vAzEOOvNkpNIiYWRG6Ap1EAgDAK3UN3QMON37c29KaVriSjl162kQ+lBWzcvfvC4H42ohin1zaukVTxWJwIsB58w4aTmQvO41XQa0D2SP6juN5nDzC8xjJod/riFFvcnZh33ndweeGwBeufQlt9XLBCWwPWJRt2OvdSRUOBzFc+dsp7JjH6aQbq1U8JBWy5Rfvud4Cf/RMAe7rx8abmfF/G5Ey8f2KmgGBMcOMu3PcBtmDb+eiKhL9TblxWLETnnDxFptmTEnay6Qdl4/EsJnWm0t2t5geURnuwvHu/Vv9+jFnAc3xViK1wfrOJllEDhHCfgfs+ubxoUUlxvF7G3KQrq2T9Pa2DFOtU2jB/p9pjXOeSM2cJT3+wPf3T56fp20/P0892Ufb7uG9NxHcMaMXpV8oENfGi3Xrr9L1SPB5TxLFK64F0KkGrMiKj5d4tojK/u5TDwjRLhL3EqVcmp0kRhZXZW46vKzAVaJmoYAV25VUBTsg2f+YYvFoGt+V4S2K21Rf78Qjl6K3rwbOZLYLZLOAVReDSLN6leN2n7q7Ryp7WaozOQ6exnPyLSqdWyPd/H/jpH5EEUYHR7RVaPJG55POo9nVhMQP5AUe8p65+5XCFGxjX4hwOS8g/EZbtVnpCp1tLyPhR//b4/ltH8GSU4jvWs4meEKns41mh64qG5odKbUNhu7xapWSMagwlZO77gc/71aw5AaHpBNudmfPzrHdPeXiIJScbnLDAJKnHYh74nplAEKyfr5q6yjCBFwbLNMOKxyI0ylWmGZgAuzNXXHW5byxEvZkwANy8WSgwWF/kdhJwUc07SF1RSkEtO+DqEWx35S9bFHa483q8Mnvqfrnz2MQ8O91xH53PeL/PEz5bdKZZHU7R6uouelshJmjTDGlH2MEVKMjYABMkE4W5NTmioG2IJwmQB8jpnPn0GlCP0B/+Q7Sf/KFbDma91ApA1HGalF6MHMwRwQ8mNqwX/9OaZRgTAmwyXhvLNwL2nGBxVyoPH4DhHCoYfrbrKF6PpT5RJdGM+EG/KSDBDS/oRfCAWzD8azuxYgY8legM0QlNOKbrgkzO3FNG/etmzurgdeGSH7XgGBs0ek+0x75T70FZK3pbs/PJmV3C8S8PD0S6VuwM8qUMWFhwpcDCemGMQnd7Xxys/QO8WQHQD9ssWrb2sIcfmUFV6O4RmijWefaYXLli/RrlukD2VwDc6ir7R2jVm0qM3sPW5friovtHqNVPTZQCqXvY7QvYegudr9GKeqxtEcgOfopXTwoIFKYztAztEeohN3oCFMkmkNaKfxKxORyoOQE/+//QfvwPADTi2gaYSGT45NRyeJXJNFh/G5f91WssgaTDMyaifbCUM7jO4Pbp9fqbxb9eHWdNV5LXZphseMzt1WAGmxwUWxq8EqJaT55UsvKeGnPbS3TXmM+xHaNBwcaXiiYGzUQInTifnLf4uS1OkwyBPbD5IqgqQX0iedbAJqHlUk4v6jEnRDX/A2IV1ha/n3hXnsC2FC0eITP/vYXLposXtYalBLCgFQ7shGD0JAIRLKBisx1Ur4DdY2A3Q8oEayW3bl+sJU93M6DJDEwM1sdiObEOfhFpMvUO2LJH0wa0I6TdMungl5b5yht3Hm6B1bvYGLnP3XJyDixbyFEO7zUYm9YU/r0GmBowT9BmsGmCikLf/yHqD3/XC3+bIDnsfaI4OgOBY1Abk5Ym6WEIBRkJNXrJDTZLK5lBgSzBGq15wNIKCZeyf71bXAYMdXx+EQ0rCmOsjd/rvDZwICifMcIFg7KKutIyFbd8dXLral0hzcGeBulgslIG5c6xjyRO8zkTZvy6kqIV+ZDjrl5aJJXcZCxEb4fD/cX0BuW89DJ3L9FUHN8xXZ340dz5orD6MhtVhLUi8xXk6gk2bc8BICiLHyxSjc+4OY1AvCt5owxo2t2fZFEAvG5uFifyzxOLAfNiQDVW6DP2Vq446Ud/q/kR7PoxbIrayB5tyAM1pbs5ORYPvs4XPOvMA7cG5Eb2IS4MJjcf18Md2pG8TUVRj06xq7XS+JmGQDPBoYWNJ+YCK7RY0JyksS3Q6oFbM4HpDuWTD4Ef/H2sH/4pTI/ILtnZ7djpjz0ZygGL5LBVckqVHj9CbNReTvJZQ5TYOAAiAU+RVLSdoC8UXszJ1oJzxtugd064KpDPF/9Gv84QoM9nDKCwhDIzwCpqbYAUbx7cqocmACL94dZsQGMCfyXC8ETM8DgeDWOFQA6P0EuIaF3Ea6EOp5gKrFWoTq+0G9+EnJki+bCgKdpyBHbVCeJGKhkTd8NMPAhc/YTXtqJVz6rh6hHjHoynmAB1gWCFKONAOWmx+IKsLgKaA2r9cAs0gU47NCvpt1uZgOnKS1GORw9G7nd0JQW2rP6nrr4Bph0zLzyBJ7eqvFHGeNJ++eI8T6442nqAQ9/MrZJY9A1Qa+RPZ4ymVtjRGSyxrj2LaRVoR3cV5ivIbu8Kv8wIlwnBPLFWwI4I2h4DgI9+gvbjfwT59D2Gg2ZYO24f2lxZCKLRLi1wRdKr+OfiHcPw1NybkQ1L0zx+yK45XnQO/zfvGWfiGJ8ab5QoCA3FBVcow1xaBMxHuMWGox3DUZUq0jOTcdiCeHkpvo4H+AVgg2vmn/GazwA0u+cQfGDe6isOxs7k0Z+B1l90BQo6oTw4Jb0Aa8vJRL1ZOa/CatVxBW0FbIWtB2DeQ4ioNSikrZ461+Jtz9cKoknRbp+7M7l7RJwIr7UevdSkzOxZyNcUBkTL5BxbZsA0AfPMhqEGlOfQly8BvIBOe9jEbtJT8YUx7Z3WBYZpd+2vYc09lj18I69HJyYUZcZLYLMrsBFp/IUtpNeWfpqGC+2NKI4eUK/MOJG5wHjqGgw43pJlABhrMsEgttcZToRKrBCZAN27pVv27jqIeGMGNYhUWOM4lBnTs5+h/uj3YLdPYcZa0NykXYzMob1eiVpEBF7rF5YYcVj8R9/XlmPgGqgfXMJrGqL2jmP2QG+ADaAz/mKA5TOHdUcFLejW0pgtBlKR98twLQgtXol3GEpk6gqbr4B9AY4OdBUz52+nF2InTXbDJewZVRt+PSjRh+LB6uMzFl2LKGxxsLW0enP/S29OzquwjvYUegRscUBoc4CiMwA4xbBwwTloDQBjO97BxSCHO69aFwUmddeiraRFqQAW9Kpz9ThK2bmSm2hCkzPeDChX34DpNdrtDVAKSpnQVNyVQ/HrT945ueZJFWh7ltTMvjmbCHS65sueoL1/Seuq15/1kqQeDg2qZW4ohb+ngQprZeEruxUNujPihdYWiHk9YOP9RCoAhZQdbN5D9o/R5mvI9bWXiUhv+W7woZJ5huIRTAF9/iHwT/4e9OYjVHEsl4UlcprlIogVUjzYG6UttADS3REgO29H8wkzeHzGR6UHqZx9q2/UbSLn/vallf/QwdLAZwoFYDhVav0y0o2p8Zwa3N3ormzMIrrr6xgqhcAWc7iLAXVlxi5uyDpHIHSox/s8nto/57PSLax8aSo4IXSkmaXSFRja6vFbQYO19en9wXhzcm7g6DOfgYZWD4A6xkgAtOap7KZDdXqkz4Up9qJudS2+kVAFxWg+Tzt3yyb3wbenCeuoNIClYVzDrzfPEHnL/8016+ydRENbv058L0ULpLeVGZTI/e/9chIKZ/WTHfCFK3ljRAwQqwHmpUhNClq0J2urK/W1DQydrkCEGCgjLzhUiFG7BvZvQa8ewfZX3YIM5tHMqo26o2H3yYdY/vh3UF984On5AePVNa4xG0wYg7LekTEj0QJT8TlCgI7p5ZikVbWxXUelMMAK/N8+SGJk9+ydULMcpbuFceAM1oeRBpsHx7146jjPsUjYjzF+bREvs5OxEABgbLAIYATrWqWOpQUaLL28tht+LQdfBOmOmgphEwPWA5GAoBuaOBBGlJvf05MCCjQ8O12Jb1LOq7AOd39fi/2HreEK7ci0bGVxMuktTKHm7lr2YKOrk+shmqyuBrMFtr+CzNceIFQZTHdKE5yomS48mYLpJplHc+GeW/omsIjrscvNaDkkb3k7+neax6dQJsjjJxBTYL2D1AO0NdTWgMmznagL5HDnpIpCimdr0OkKePJNtKtrxgYLov2Vy4k1IurX/6f/D5b3v492uIXoDp6lHUK3Q3wm2k51RUilMsasDOkq+m81rbTeIAL53f5svEdYHK26ZXP6GVo3IwPEvbkPN46uZAuXdfxIJiYstOr9a1lAHE5+zoyfrc0TQYAX7jfL5w+llpnTWOejxo51m+MWmcvRsovaWQGEFMwmaHXth6DHQe9wWP9fnFHOvwP/k7/+kZTpm3ZkurRIByjq3mEPbAPfCfzhp6tNsHmG7h9nQ07RAszXHrf6TEPmVb+MxXykx+BK87O/8yaFlok15+mulXALJaGdeSZpvvY+fmRwNTMmNXaDgsj/PCDmXZgByLo6nfJuhpVCN/QhmhGDmnee12mCfvoU7Z/+X5B3v49KBQQQgBlMBvEIBpaQSFoMW4YDGSp9lNk5/76WQIIDPmnWXaa1ZYC8460E0YsPwObn2SBijEHFM7CsBgBxd6EgqKzC0onPJ1OCz9e4hpMJoU9Ej0UZ+vsVhe7fApYj2nqXYyigwoxnyqB+KHZXYmKWPQXSfY2sYpH+/ExAKV3Lth4RmfYMgdX6FL/7W++8YsG8ETk/0v1w+3/YbvfviXmsSaygtYmL7uCDzlZVSUurxQO9+z1kt0eb9s7p1Gqaw80eLDZ4DQm3QHOtfTUUVRcPiUzeKEFXtPXQ3UIIs5l7z2wSGKYIr2O0bPI/D4vuAQBtN/OebbA2H/ieKEwqyssP0X72A9Sf/GPo4QVamQe3B73zz/BCET/xprng59GVwQO3FAJuI/YTGKQeu0G6d6P1cwosHXFZrxwXIRau+iZuGi40kCU4iWrv3/EMJJMaLZRqV7ZB8ZLWDisIsj+gOAzEJkfHw6o3gkh/O9zwsA57udT4Su60hMINJYr8vgZt8lohEK+vjeEQgLxov3M65W9azq+w7m7/NtD+HWgpzpTYaCkBViVNbd1dI8pzTApQClR3nmlCQQA1rey4SH4541FQhjV7fkM0xUDl1Dy+N8RPRAQyX5M6OmJmcm/vva50lI7Q6BhjH/4wfpALIAXSDpCffg/t+9+BHW6d+UIn9HIl25TwxOZRLWgm3FAllUdaBKnswhUKNyqCy20zQyLSmVvDkkn9so1j5ecFpDKOr/V2Yel+0mjqcbGT4QhtTiWrDEd4TFzR6YXp5mbDV3jRPX+eHGrx6eU2+cvaEjQw7oUowalBFx1Wk5h5NliAVtw0VSYW0xKPe7MJRVsWOMutpg6OsIjVVnFz+3fur5I3K1+Nnfgf/3f/SHZX/7qV2WMy6+IaXWcHcE4zZL6CTRODlAqoB9WdMte77wjgqPSvyGt9KWLVi5XhC83bbbFAVRVNd6cIgS9V3BASyM1zyA9/F/beD4D1zltXbbBDriyc+YI8VmENUWF5mnYeFFbf/CMyPZrVgt2+3e1lPImB+MBkxnVHvWeR+SMuT5lBDIU1umsm0V8yMHwENI1ZupCMGxHMyXhRkBr6A7UHEOdUWIQ9NGvOebZW2K5Ays5jkMdjfw4VsonwOYMvnpaXQJKv0QilUAblPYTrH9bJwa22MhbZlpiUHDApBbYu/xDf+a1/84usjS9Dvho72wD9z/+GZfMDVqAHRkYwuauACfrWW05SWmZAJ2SbqM1/XyU1j43EwET5hNStJbI51fXelV5bgkQv7/kZJUOvczlEZ6HA4WyDuaKEX7wBcZBjgRyfoX7nf4Te3sCmvQ/dcuhzEfgpHiZWj25xcGxF2YY+XA9eHUAmPTK2FFYOA1oCy2lKCiCzTrGSUSLrGxGde8yZSqVP9anbDHRFAHQlHApZhp/h5DOhqDNmxoLpIeGQyiskIAqJRvd7W2uQSthMpgO6H9HUPyxpwcomG4kYsnBBwwosBW1dgfzeunXDSU9kf+/LZdDKAAAKrUlEQVSlQP4Wzi3ndwkBQID2Xz75bVw9+SvePqo4a0Krfnqu7pfLvCMeymfARj/85L/3hUBBwzbjxPSJnSzSdPVR7i/ILyDpBkjmpn5hFw1g/Ke5S5g7KVw/ZRzvodP/SxEFUGHvfh96d+dYuLYmtk0inS7cmAIgYzedWsX3l3nckJbCWAMYvWy8QiGsMB9byw0eytFT/UZslhMJorui4h130Mxr5Ya+iIIpnypdu5RYMyzJCesQXsSdvxuD3lQ6vVlrd2lDqQiMGLmwnOIegJbZrb5ofBFTbf3ZTDtKf3TV0z0VyTHfFlrCy7SWBb2XZf9u73yusOPyt74Kygr4qlhYIf/N//ld2V39RSclE4xdTLLai0rGpHHtvL41YXbsi9DcOoBM8PutXk6VPQXhC1OD4bSLMobRdaX1tRg/Qpz2pJQllgUy0TLkUhd4g4fXFldYZisXMRVqsCKY+fVVBxzRLy/CnoveX694AH59CfzZHwF/8gfAcps4VX9f/49qcQBtKb74q1uHnZtdE/0d4EmAMZ/WTvYh43XWA+yBa0r2LSFuL5QjTZQEzac1IyyoFw+gx89GS2zsYpR6iC5qMGwMFtnGFTeDhfUGbMCdWxgHA/D5e8bfRNyVY5bPE1IDgPb01NNgWuhWrYGHQAN65UB/xyKNTVwU3kTELazeT0EBw3fxnb/xlz5/hbwZ+WpYWCGl/BVD+18E818wrAhm0XHT5V8tasa+wI4UVs8auJhXBD+7WWMGaGAzFcDWBcqOLcFi0OABVQOD+4rBXvDN46RFLd8hA7WNuCkI43SCLzYNtF4sim4pkWYvxRcvVsB6Z+ZfRgQgiFMgxwPkxfvAu98FfvKP0dYDVHduY5x6zmyYASgTaAFs1c4XJuF+bPmnGi1FCRZRKuLschQBd1oQHpaSTrESDB/TjsiEiDg3D0y3qMejdTFYf1H36C4Wy5siAxg6h8+Xs95Y9wik0k2lmu5sYJpARTewb9Cq8c7f7sJaNVfI6R4DRgqjjOnxP4rqgFrt1QZ80nQNvaSp5WHcMmvJuYF1EK4WWLN38d7P/v0vsFS+dPlqWVgA8J/93X8Fv/a1/120/IXs0vLnJcI2W826W2XswQaBVfPSFAAi3lZeG09mkeTy9xPbN5hq6UwFQFo5Qprd3qCQMYlwQasBViA7j8WdPOjnv8tYb8bNCYBNTeNer6mwvM6pR3tio8FdzMka5MX7aB/+GO3nP4I+/wAmK0waYGX0yjfvoNPkLk2Zh5gIxyj/LYxnYQhEd5cnLVZuMl6gWyZAuttmSDjKCNjMVltrd0dhlrF7G/FIvKtEUDvT+1QuOtyrDFatka0jrw9X1mG9jW3CAveUb4hujdXqzB9kDGm1+kG6GdnNf/hDHu5C8G+WDPV7JzTDLC3dQMwLSio0A4Ba38XNs38bf/A/f+90Zs8pXz2FBQD/xe/8RXzz8d8WLf/qhsztlxRnLGXgclho7moQy5OZIgPQgHX1WBrA07GXjsRxK6KwiXixzNzQMhgXLOBULDUC5gLM1x63AdLVceT2a06NmGcNa+3WShLnndSNPfR1oVsq3onI6hE43EBefAR5+RT19hn05lPg2fuQw62X5ygtlmb3MpLGOI5oYbwRSaOyZflEuBzuLjIIHtaD1TU3WNbXxVjWcIFPDrTIJhIW4NxU8asegzI2buhK8N5LYOuLUlQIDTA/vELx8lpKK6xFHmT8et7f31NPb6l04Rj3kxIwhvX+GKN5MtRTgOBq2yhxE5B8j9YoLUnHO/LQ5LP4+cTDr0ywtX4XP/7gr+LH/+sf4ysmX02FFfLXfu9vStH/wOMJv6y1ZW5hAVCephkMJX+5xwvi5OPpE+T73DQq4n2JVTJRp2C8YfZ4l6OL4ZzbsSGa90mUqTAGRWVW9kyBA0E7vEXXf46MCku50co0KKxXXCc2tgqmu+eQT95He/Zz2NOfAp98CF1eoJVCppKK3iY+0Nh+ij/UxNUtGkUrtPACyhDzkB90hbXJlEVcpzq0ReAKS8oYu4mNGP8eAmdb/IKP5WBx+a+iTtBOvh+XaWmdbeIRKoQfAC3GesC8KZVNYqLCPoxUH8DnatCT+TU0us/D5xijuxeuEnfdaiVjK2/lH7f8N7RrTiXBXzvc8Lkl3VLQXdVS0Jr9Nr7zW3/13qR+ReSrrbBC/trv/QNR+ddQpikUy1ZscPcIXRCWkADwWI6l2excZQbnLjdEC/Rk2gz2ynoEoktKWAAZrAeiILYHJuALQbXHXugWKk9lUQXKLmvloDtnMW3N6/O0QOrRPzddvdrSErJRpGuLdHkgrgi1BPjVd5mwNZS1hvnFM7RP34U+/TMc3/9n0OVlUIpxrBQiHrdqNXrRDQGYxD1tYQg+NkoGTM0M11izp4pON8wgeUxVG7mpRrqXVC5AQCH8x/Es/dfCHozGmIxXPShGXBdg9wLqAK25sOSGX4f1I3SdW1LIjB/k+zX/lkkE/y3DChHL1IBlhVWcfmZXWJpmPS1XCaiCOYVRKCQDynSF6JTTgveeL2ECYLrygvPjDXqNI+fApAHTH+K//ev/Bv7yV1slfLWfbpT/+v/+jzCXfxcif1lEHkHLVZ9kuMIKSyk2wzRRaTG1nRk7+GQlmI/xoGZQLMTLzJ5BaaSnseF7eaCPJzu2IQVIz7aAC7QUX0zTTIoa9fhOPEtkKOsKTDvIfN1diRORtnrzh6wfrGRfEL922Ts1SbsDlgPaskDuPoU8/Rnsk58Czz7wZheA84ZtAJjcOKnww7o9VVjqFmP8zljtH7TTEUvZKKxgVQiwazQMCVcmEZ8Y279/vsLi2Ik3fg3XFGxkKlLSaIk5sxOrfVMInC4jUvn5PLrS29bPb93KUEYmQMeoMgZG2EYoo1RY8Y6D5bN1G92yzxhaW/m1wYKHIKmEeAhDne8NK9u61SOvZndm7QbVfgcvX/5P+KO/8z/gnwP550dhjfJf/e5/iln+LRT9mkh7x8yugbYD6NJFOrx4t1pjA1NYReKiwhgBJ9+MsSePWfmJ7NXqRo5uoXWCoXuPCzeTCICC3poBEaqFGoOo6q4h5j0Exa0qMycmjKYyAojOXgsYvFBJb8IyJKts0MF7LxWCBVacbloA2N1zyEc/Bd77IezF+7DjHaQJRKo32whrMXixZNjA5hsVQD/VDdvNJcXbmIN6XIMdNNL5OrhX0scbCveZw7rQnvEPy6gB2+7W3dIRRLlNxMa2VrdnbgXZ38+MCvQkfklrJy26zbuluQkBWSBUYUsgwofxKJLXc4LGGDe+s5l70sIl04DogbgxoNPaL1yXdcg4ghZ40C05G5s0BQlF0Wnkxa2pUiD7R36vw+0Ra7u1dvwIqz3DYf19/MFv//e4yEUucpGLXOQiF7nIRS5ykYtc5CIXuchFLnKRi1zkIhe5yEUucpGLXOQiF7nIRS5ykYtc5CIXuchFLnKRi1zkIhe5yEUucpGLXOQiF7nIRS5ykYtc5CIXuchFLnKRi1zkIhe5yEUucpGLXOQiF7nIRS5ykYtc5CIXuchFLnKRi1zkIhe5yEUucpGLXOQiF7nIRS5ykYtc5CIXuchFLnKRi1zkIhe5yEUucpGLXOQiF7nIRS5ykYtc5CIXuchFLnKRi1zkIhf51Zb/H912aYI1/JofAAAAAElFTkSuQmCC;" vertex="1" parent="1">
          <mxGeometry x="750" y="630" width="50" height="50" as="geometry" />
        </mxCell>
        <mxCell id="UJRfoMLF_sfYYdu0p_u--26" value="" style="shape=image;verticalLabelPosition=bottom;labelBackgroundColor=#ffffff;verticalAlign=top;aspect=fixed;imageAspect=0;image=data:image/svg+xml,PHN2ZyBpZD0iZjM5NGZiMzktNDAyNC00NmU4LTlhNjgtM2Y1ZTUzZjUyYmZkIiBkYXRhLW5hbWU9IkViZW5lIDEiIHhtbG5zPSJodHRwOi8vd3d3LnczLm9yZy8yMDAwL3N2ZyIgeG1sbnM6eGxpbms9Imh0dHA6Ly93d3cudzMub3JnLzE5OTkveGxpbmsiIHZpZXdCb3g9IjYuMzgwMDA0ODgyODEyNSA2LjM4MDAwNDg4MjgxMjUgMjY0IDI2NCIgd2lkdGg9IjI2NCIgaGVpZ2h0PSIyNjQiPjxkZWZzPjxzdHlsZT4uYThiZDk0N2QtYTFmOC00YTE0LTgwNjktYzk2NjM1MDVlNGIxe2ZpbGw6dXJsKCNiOTA1ZTJjNC00NzcyLTQ5MTQtYjcwZi00NGI0ZDE5YWNhNGIpO30uYTRlZTFmMDctOGZlZS00MjAwLTgzNWEtZTAzMGEzMmJjYTkwe2ZpbGw6bm9uZTtzdHJva2U6IzFkMWQxYjtzdHJva2UtbWl0ZXJsaW1pdDoxMDtzdHJva2Utd2lkdGg6NXB4O308L3N0eWxlPjxsaW5lYXJHcmFkaWVudCBpZD0iYjkwNWUyYzQtNDc3Mi00OTE0LWI3MGYtNDRiNGQxOWFjYTRiIiB4MT0iNDUuMDQiIHkxPSIyMzEuNzIiIHgyPSIyMzEuNzIiIHkyPSI0NS4wNCIgZ3JhZGllbnRVbml0cz0idXNlclNwYWNlT25Vc2UiPjxzdG9wIG9mZnNldD0iMCIgc3RvcC1jb2xvcj0iI2ZmZiIvPjxzdG9wIG9mZnNldD0iMCIgc3RvcC1jb2xvcj0iI2MyZmRlNCIvPjxzdG9wIG9mZnNldD0iMSIgc3RvcC1jb2xvcj0iI2NkYzZlOSIvPjwvbGluZWFyR3JhZGllbnQ+PC9kZWZzPjxjaXJjbGUgY2xhc3M9ImE4YmQ5NDdkLWExZjgtNGExNC04MDY5LWM5NjYzNTA1ZTRiMSIgY3g9IjEzOC4zOCIgY3k9IjEzOC4zOCIgcj0iMTMyIi8+PHBhdGggaWQ9ImJmYTI5ZGJlLWJkNjUtNDA1OC05NWJiLWJkYjg0NGIxZDNiMSIgZGF0YS1uYW1lPSJMb2dvIFBmYWQiIGNsYXNzPSJhNGVlMWYwNy04ZmVlLTQyMDAtODM1YS1lMDMwYTMyYmNhOTAiIGQ9Ik0yMjkuNTcsMTgxLjg5bC00LDI0LjE5TTQ3LjI5LDE4Mi44OGwxNC44MSwxNE0xNTcuODYsNTkuMjMsNjIsMTk2LjY5YS4wOS4wOSwwLDAsMCwuMDcuMTVsMTYzLjQxLDkuMzdhLjA5LjA5LDAsMCwwLC4wOS0uMTNMMTU4LDU5LjI1QS4xLjEsMCwwLDAsMTU3Ljg2LDU5LjIzWk0xMzguMTIsNDUuOTQsNDcuMTgsMTgyLjY5YS4xMy4xMywwLDAsMCwuMTEuMTlsMTgyLjE4LS44YS4xMi4xMiwwLDAsMCwuMS0uMTlMMTM4LjMzLDQ1Ljk0QS4xMi4xMiwwLDAsMCwxMzguMTIsNDUuOTRabS4xMS0uMTZMMTU4LDU5LjEiLz48L3N2Zz4=;" vertex="1" parent="1">
          <mxGeometry x="810" y="630" width="50" height="50" as="geometry" />
        </mxCell>
        <mxCell id="UJRfoMLF_sfYYdu0p_u--30" style="edgeStyle=orthogonalEdgeStyle;rounded=0;orthogonalLoop=1;jettySize=auto;html=1;exitX=1;exitY=0.5;exitDx=0;exitDy=0;" edge="1" parent="1" source="UJRfoMLF_sfYYdu0p_u--28" target="UJRfoMLF_sfYYdu0p_u--25">
          <mxGeometry relative="1" as="geometry" />
        </mxCell>
        <mxCell id="UJRfoMLF_sfYYdu0p_u--31" style="edgeStyle=orthogonalEdgeStyle;rounded=0;orthogonalLoop=1;jettySize=auto;html=1;exitX=1;exitY=0.5;exitDx=0;exitDy=0;" edge="1" parent="1" source="UJRfoMLF_sfYYdu0p_u--28" target="UJRfoMLF_sfYYdu0p_u--26">
          <mxGeometry relative="1" as="geometry" />
        </mxCell>
        <mxCell id="UJRfoMLF_sfYYdu0p_u--28" value="192.168.5.1" style="shape=image;verticalLabelPosition=bottom;labelBackgroundColor=#ffffff;verticalAlign=top;imageAspect=0;image=data:image/svg+xml,PHN2ZyBpZD0iTGF5ZXJfMSIgZGF0YS1uYW1lPSJMYXllciAxIiB4bWxucz0iaHR0cDovL3d3dy53My5vcmcvMjAwMC9zdmciIHZpZXdCb3g9IjAuMDExMzExNjYwNTIwNzMyNDAzIDAuNzIwMTc5ODU1ODIzNTE2OCA2My4zMzczMTQ2MDU3MTI4OSA3MS45OTk2NDE0MTg0NTcwMyIgd2lkdGg9IjYzLjMzNzMxNDYwNTcxMjg5IiBoZWlnaHQ9IjcxLjk5OTY0MTQxODQ1NzAzIj48ZGVmcz48c3R5bGU+LmNscy0xe2ZpbGw6IzAwOTYzOTt9LmNscy0ye2ZpbGw6I2ZmZjt9LmNscy0ze2ZpbGw6Izk5OTt9PC9zdHlsZT48L2RlZnM+PHRpdGxlPk5HSU5YLWhleC1zb3VyY2UtUkdCLTAyPC90aXRsZT48cGF0aCBjbGFzcz0iY2xzLTEiIGQ9Ik0uNTAyNzIsNTQuNzIxYTMuNjM3LDMuNjM3LDAsMCwwLDEuMzY2NDEsMS4zNTU5M0wyOS44MjE5Miw3Mi4yMTU0OWwuMDAwODctLjAwMDg3YTMuNjY3OTMsMy42Njc5MywwLDAsMCwzLjcxNTI5LDBMNjEuNDkxNzUsNTYuMDc2MDZhMy42NjU2OCwzLjY2NTY4LDAsMCwwLDEuODU2NzctMy4yMTYxOVYyMC41ODI3NWwtLjAwMDg3LS4wMDA4N0EzLjY2Njg1LDMuNjY2ODUsMCwwLDAsNjEuNDksMTcuMzY0ODFMMzMuNTM2MzQsMS4yMjYyNVYxLjIyNTM4YTMuNjYzMTMsMy42NjMxMywwLDAsMC0zLjcxMjY4LDB2LjAwMDg3TDEuODcwODcsMTcuMzY0ODFBMy42NjUzLDMuNjY1MywwLDAsMCwuMDEyMzUsMjAuNTgxODhsLS4wMDA4Ny4wMDA4N1Y1Mi44NTk4N0EzLjY0NDI2LDMuNjQ0MjYsMCwwLDAsLjUwMTg1LDU0LjcyMSIvPjxwYXRoIGNsYXNzPSJjbHMtMiIgZD0iTTIyLjczMDE1LDQ5LjAwOGEzLjU5NDg4LDMuNTk0ODgsMCwwLDEtNy4xODk3NiwwbC4wMDA4OC4wMDA4OC4wMDM0OS0yNC42NzcyN2MwLTEuOTExNzQsMS42ODkyNC0zLjQ5Mjc5LDQuMDgxNzUtMy40OTI3OWE2LjM5MjgyLDYuMzkyODIsMCwwLDEsNC45MDAyMSwyLjE5MUwyNS42MTMsMjQuMzI5ODksNDAuNjMxMjQsNDIuMzAyNTNWMjQuNDMySDQwLjYyOTVhMy41OTQ4OCwzLjU5NDg4LDAsMCwxLDcuMTg5NzUsMGgtLjAwMDg3bC0uMDAzNDksMjQuNjc1NTJjMCwxLjkxMTc1LTEuNjkwMTEsMy40OTI3OS00LjA4MTc1LDMuNDkyNzlhNi4zODg1Nyw2LjM4ODU3LDAsMCwxLTQuOTAwMjEtMi4xOTFMMjIuNzI4NCwzMS4xMzY1OVY0OS4wMDg5WiIvPjxwYXRoIGNsYXNzPSJjbHMtMyIgZD0iTTU5Ljk3NDc4LDY2LjAzNDFoLjQ1OTM0VjY1LjAxMWguMzYzMzVhMS4wMzY3NCwxLjAzNjc0LDAsMCwxLC41MTAzNy4wODUyMi42MzkxNy42MzkxNywwLDAsMSwuMjQyNTUuNTk1MTN2LjIwOTc2bC4wMTAyOS4wNzgyYS4xNTc4MS4xNTc4MSwwLDAsMSwuMDA3LjAzMjc4Yy4wMDIzNC4wMTI2NC4wMDMyOC4wMTYzOC4wMTAzLjAyMmguNDI1NjNsLS4wMTU0Ni0uMDI5YS4yOTg2My4yOTg2MywwLDAsMS0uMDIwNi0uMTMzYy0uMDA2MDktLjA3MzUxLS4wMDYwOS0uMTM2MjUtLjAwNjA5LS4xOTQzMXYtLjE5Mzg1YS43NDE5NC43NDE5NCwwLDAsMC0uMTQyMzQtLjQwNTQ5LjY2MTI5LjY2MTI5LDAsMCwwLS40NTMyNS0uMjU0NzIsMS4xMTg4NCwxLjExODg0LDAsMCwwLC4zNzc4Ny0uMTIyNjguNTY2NzMuNTY2NzMsMCwwLDAsLjI1Mzc4LS41MTUwNS42NDAwOC42NDAwOCwwLDAsMC0uNDAxNzQtLjY2MDY4LDEuOTk5MDYsMS45OTkwNiwwLDAsMC0uNzEyMTktLjA5MzE4aC0uOTA4ODRabTEuMzA2MzctMS40MDI4MmExLjE4ODIsMS4xODgyLDAsMCwxLS40MzY4Ni4wNTgwNmgtLjQxMDE3VjYzLjc0MjFoLjM5MTQ0YTEuMTU1NSwxLjE1NTUsMCwwLDEsLjU1Mi4xMDE2MS4zOTQxMy4zOTQxMywwLDAsMSwuMTcyNzguMzc5NzQuNDAwODcuNDAwODcsMCwwLDEtLjI2OTI0LjQwNzgzbTEuMzM0LTEuNTYzOWEyLjMwNzkyLDIuMzA3OTIsMCwwLDAtMS42ODctLjY4OTcxLDIuMzczLDIuMzczLDAsMCwwLDAsNC43NDYsMi4zNzcyNCwyLjM3NzI0LDAsMCwwLDEuNjg3LTQuMDU2M20tLjI0MTE0LjIzNTUyYTEuOTQzNTksMS45NDM1OSwwLDAsMSwuNTk1NTksMS40NDM1NiwyLjAzOTIyLDIuMDM5MjIsMCwwLDEtMy40ODU1MiwxLjQ1MDU5LDIuMDEzMTEsMi4wMTMxMSwwLDAsMS0uNTkyNzktMS40NTA1OUEyLjA0NjI3LDIuMDQ2MjcsMCwwLDEsNjAuOTI4MSw2Mi42OTdhMS45NDYsMS45NDYsMCwwLDEsMS40NDU5MS42MDU4OSIvPjwvc3ZnPg==;" vertex="1" parent="1">
          <mxGeometry x="630" y="730" width="50" height="50" as="geometry" />
        </mxCell>
        <mxCell id="UJRfoMLF_sfYYdu0p_u--29" value="192.168.5.2" style="shape=image;verticalLabelPosition=bottom;labelBackgroundColor=#ffffff;verticalAlign=top;aspect=fixed;imageAspect=0;image=data:image/webp,UklGRtQ+AABXRUJQVlA4WAoAAAAQAAAA/wAA/wAAQUxQSFALAAANsIftkyHJVkRk1XimNVhd27Zt27Zt27ZxbNu27XPWu2N3V2Y8T1Ukqqe76v51JyIgQbZVNbqAkpOYYTDA47PALXSrQ0KKlFIIrLVODBuGEnWIaVCK0pAq9Ubr1DOXKSGlUk+Uypg0aG0kKEtCdiyVHTE2KEFCUcqRGFICKQA0nILElBpASmMkiUJCYOYsiwGzFCECG9blBUTWKlKivGW5nBFtjCUiKzHey0uHiKsIEFjUNNkrSAWkSKQIEcBYQN4Uw6VBIoqyvEVZzVox5p4t47B7axNRRByARS2cXZ6BciDZARGALZI5NVTvZYDxjatTC5qIXIBBJE47QDkQzgjbhIYbg1b6eqpjA4uT88YJRNnMUpiYxALFTyDLR3aQIU8ye2pjgwseIH+k2cEFiraJVcpLDGvNbpITYAawiAGhIBQReYjRrJnRQdoAkBQhhIACJEphJNoRLzFxtd4LwrUFoEojfmA1xsVGSGUOZd3pJD2Veg8I1waQVcNLCaJCRT6gE6MzwKbISHYdIAjzwkliaKfrrY4NNKdmWhQA0pCw1oUDCAkskkrYVuwl7XdqZKzanJpt+gFr2UmXoEAIKZswCPtCtLEesjag0vICBGmSFQZA9BKPZcku0jkAEVHU5TYA08UAUbYy5CaO90xcq1mkc4Boi4U9AmgDbQToUkJkxbwk1UB9hEC4jgJoW6VhgLn7iMIoK29IFEBqViZ0GGjOTLdIvhUEOHNdRYRpqQhlNzGMdB6oNKqthaklIj8wEsi3uolEVueIjeZg0oGXj4zSdACQd10nrCXoEoKKwRopY+0mHX/jBxseYA9kQXrKjFILdOygsZsIy1IMEKbeSboPoCIkEDVf4gadOGKOykNkzJiUNGzSnUD0zwCJATV3JJAtrNWj8hPDlcqw1RHsVqBAKRIfR4AOBKK0yetFGfddj0ONEcvq7WIwuSwuF3apAGAcQIzerzmRgyjWXImXDMshrq4HU9MrgMoBkB1As2yN15xEKCeIwRjWflIEYLSh5qfmWZEboGZtkswcWRuAhA5izwbIfj/bpFhcX22sb35ywQ0AADRoebksge2eKHIQQAbNLN7T7CQFCJDB2K2xaRtAJD8xrNkyq3GoblW0hQXmplLgGLgV4xRgHKAdPVSRYqWUm1hVLUeDFYsUGaiPSiCsJFRiYISBLSA+mvN7FEVRpEgFEFWp9YNwBQoswxwUYAo0JzoRM/ucJ0RRHCtFhBBMChaIjgJlX0uAIh+TVpIkhnOFHhUhWcsCWGeEqjYpXLA4O6vRqoQVEAKYRDdbLR3sKVK9UawQDUhiOCMDUNSur1KrLE3PGAlk74x1InzwuSeKKaPGGAcpdhdVR11AIaH0oYhIxWlcmNYeUhYAFSoUPpUJVBYHEe8drFukRMBsS/ZNjckOISeEiEghGxgaqhMIVy5gZHWyuYAIoI1Jgl4IW1t0qx8F5eTiysTgZYRi7o451Mt1UVBiTsmZu9AAIEdxodTEYo4k4xAYIeaS88SIRsRCxQjl8WJtshY5S1upBRafy3tfAErvBP+7OOTyzN7Sd+v+a91/rfuvdf+17r/W/de6/1r3X//3QIylmb3/y0QBsNQzlrEcfpZrl68MgOVxyp214WIsOxlkplBZG7ICBCqzkHoADD4zi23wY4mJDQPLPWIHBpNyBLp9YqSc1Nq+4zFssrMKjLI2iThsm6J7NLB0tLRnV63Rb5hREUWBB5PoBAAV0tJWPTEWl0ts60x9QrExDEhxRBB2SJJEa5bb7lzcszCxMSoNTd+1smGcjdY6DSqKw85ir66tVqJZPiAEJTun65sGykB6cgdvGmGdGLHnTorjWAW3SrrVbGnD9oayk6ld1Y3DRa9k9/b+8WFtxJEZVBz1RhjeLKWnpk6jSHLrpbh7d3z3WpFrZdvkyKbYfqwTYFJR1BMeAIxJWknTaAOIytpv79w2s2FCFbTmdk+PNSItiNhtKUVRFCsEyOUT3Uq0YQb7yRHU4t75TeNRAWv2rtXGGBmxH2sjyhJFKg25LTOTaJ2kEQMI1t7CqbljrrG5r2AN7D1bcVPNmCQLYBgIlIpVZNM8UBbSlmyjEElhnIJkck9tfKQ41dy7s29jvzZabj/aICiK0iBjbYjITStnH+c0kr2pFJk9k713qxRkbPvukYk+62l+2GTfE2WUsI2/WvHVwgozCHLL2RHR9HbeMkaFp/mdM/WN6KhsGYkyEvKJ/H9O1MGiCiZQApBa3rG8pVFoVTAvbF0cr6vMyBBBbB46iiKiNemjGk6haUlrTV5EtLptcXxTT2Fp79Zk46jzoRQUKBVFStHa9dKNTr1OROGV7TCR3jVV2zBUSBbmrl3xpiGtpY2Z5ZTCdla2sM+bHfr3O1xd0aeeVJhNTU80MVFRUU9vX9/g4PDwyMjw8OBgf28UVao7cqg661A/OPT2R3/SVQVTQermB+dI0sbzIYcmdtn6gzs5n9jyOdf9LMgBtel6Dt0EeXTDE2YsLfe70/PZxtcSuU/TRxTlTioft+YJn6j67uOXLjhN6D6fLctJuk/5dyf60mMY3hjpJiCUo/aOgu/0iYe+H/YDVZpbEH3kAwLS876nvWN+uPzC92IQehYA+NHbX9gqv+UHXzcgtdoblK43ld/HPg/g+tZSdsfaev4ryjl8AGzVyjl8CByicta0Q89+bzlr/z+cYffYIyhnt2Wr9WcfBCWt//7iEqHHvBfK2llW12yltLUgNPC2EszfI94Sanj8ZynVpjeV4NDCW1/41rB+x2f3255qslF+4aPw/S8HbsF8EgAG/15+r18HEDxjesC7F6H/qaWnl6VchS42ft7Zy7A4WHo6OdX5+/4mME2LADcVz+rIuNP0JGFh3BBqW9706PnNhRNueGiH6SnWQ0dAoDbvMFA0WtUDHaapvF2roYXuXAS6kmeWiFf6O0bLUwSVZ4DUSf/cJ1Bbt3TnDPEd98mzSnK+2jHa9/MGZgtqaMU0+/Lck5nRjtHgoufBSzq/vjjj+e1cCbuap27BHRs6ZtHh5b4WpuceYToe9n1zkM64193bP3H1oYPa2bYs1HKcT3vkmFMzp7xm7XTe5chOnXP6V8LK5n/gLc95N6Nffz3xL5V2K1o65E1t1MxYjl/LP97sxnf96Ldrt+J2H2BfMQyp4vHvpwDAex73oQA/dvSvt7TML9sqWvrpVxnbpebUhhxX7uyrOdVYu6kv/XpAn/r9pjfTHy+SA9AP+Zg/xxiOuQbgov9CW91dB38a2qbJjTmq5Nke5w9k4cOPWLMPvT7g8Tr2abzIG357jZWEj93vE17ftyKSetjBbdTI3PzpL/OlnjH8xWI1PE28EsVOA+W8x7oroY/+1521H9on15RayGqpO7c9yRd+7epxfOJ+HwO3/mONyR/y7yPad+XTAc4++Vvg0sX/+D0ES51yzlchWNq5RNBbdFbOeIH7Pz3lxe5y9pLj3Xpy2MO8+u7Mb90dro895INu3QaWO/IvRzm1/S2n5SjnVwO0bnmgS9e9/eU5TLqe6esfk2cy2J1Vq56a8473Hu4sGp5/+/5jj3YW3gcEtgwe/fEaTzI+9Lh3u5OYgOWO/oszymf89GiXdrz4Mu8v5IArv+eyeiGHbbXj+Ri3q+14oOen/QC47V6usnsft2XAd25xp+KWMH3hoW9z6e8XeVP1npe82rXu8AYAR/Sg/zgz95h99nXUCY+Az5/oTfxM1ZnGAy/6SbBtoYHbZAbzjG9tGShw6B5Qc+qenvTeC8Kcc4TltOf0BqTqNYcGz054hqX3c1tpJz3fq99/xJ2Kn34Owt0RrwSUzzcHYD02qa0Lngju2suzoOwyZ+GCOzyZvfVu7Zho/aOz6bMFVlA4IF4zAADQxwCdASoAAQABPiUOhUKhh7v4BgCRLGiO5Cn+h/h+rY635v8wvaB5J77PfXjTidbM8vTpP/vfdF8tf+Z6xP6p/mfYQ/VT/Sf3XzQPfJ/dPQn/PP8H+1vuvf8/9qvfR/g/UA/x/+N///ZIegp/I/+v6dPsvf1v/tfur8CH62//zs7Ocv6vf4b0FeJ/4n8v/Q3ys+vv3z9tP7d/2eiHFH+Qffv9Z/hP29/xH7r/NH/J/LD0F+Gn+v/iPYR/L/5D/i/7l+5/98/dflZ9S8wj1r+vf7n8wv87+530X/X/7H0z/of9N/yfcC/VT/T/mV/hP//0rv4X/tewT/MP7H/vv8f+6X+x+m//D/8v+q/dv/b+8v8//2P/Y/1P5P/YV/K/61/tv8N/m//b/iv/////LD+2ntNft0i99O3l/aywL/zqCkJDO3vZOAaeCoMWuWw35xp9h1SFyj+F2VQuRzLcdMjDez0AMGDMWM+a+lGD6u2rLRNw5NDZGVn10kCSgiGd/dt/xe/+9J8KL6hYfkZf8MuZLqJqQbzz/1+n4lnh/+59Lhy3naqAk6M/zteie2qaQDcOB7SvWHUcCv8MpqXq3B0x29D1LA/VTVN3L+QWQ4jooVZ+OGaRU2HGfggfY02JBaPwiAMwbD1GNK1Lx1vvd8d7378fuNZvbBv4c9HfEeqF96J/ut3CBNcE7lH9bnedCfITr0RS2KU19f1YyxQAd+5npyQZ8rFg9TXaxnNKvi3X7q31wB6YaCIZV/YzacPycbn2gaNJ25uYLxHej8fguOFgKWJI7Eflpl21ACPexkN/luGfO2/Q66IwGwnhp/7wK/YsHK4WSGnc91jiNR9KGFj7au6EjmUAJbiY0mSKmoEXiKV3SLrveHlkdT/+aQ/80gvyouHXYSv12KbL4T/8SUGkd48ehzXM0thf/Xj/tmt/89d8Z682DYBp+hPCgJyvzhvoPXOhtv4AVED4ZbSlOOBtaNaGMcAUNnIwTbDR7uQEr0TG6nGT/H/2MeT+9udGSDHHAqZkVOQ4O4KvxA9G2pPdD9bG3fNaY9H+1Dy88fUtH++KqRCInVmKOccH410HpH0/YBiSCbNFaeJb809UvVS3qSE8vDRJjVdn7H4R4+IBATuBkEPFja81HtERx3ShNS4mhluYDBRdcg30VfwzohZJ+c6uwXG+8UrMfegByNP/9o1SIOU60P7zPQzmoUv1Fif2gqlFuC620GS26IRasMf8d4bhrfTzVqr9IdXBFQZ8/vdeKFAW3ZA0OzyVuCXU5kJ+3+Ec3v2flCiHrHdnKp9+tBItQ7mGVVOGoEP+VnIyg8Nx7X2VwnHFveCRVX/SZuXc0RRSbHd9o6SmzZGIbGo+XQlpxw13Xa/pzYC994qoD1WEwDM2eIxd83YvgUDSEOW5VrxPqnPQcqohoM2Dclz26g5U9qR5nwK4eUUPiztJds0oj5FBYzi5lWuoPKV/J5of+3/zBjZY0hRrblr+w50iEh/7hukfe3oFcq8YDhIplUV2MnNfCO55hjwRfirurwJwxHLJMRdJIIixurazZDNEdkTP3Pr0MyIQpxobK5atRPzH1qfkoVIp9uAqz/2rFlNedg9a63uW5dEYYhaQcRZj++gSOfJc8cMypcmj4GhBPLiFU/fv8OEAPWlklv6tTyljIm9+luOshV9KeZaZH3TCBlUnthMD/2t/pTkF/KqgIps3j9VxM2TkZKqXNGxYLOjXcqDFf+ViLqyG1iTvvrSw4n59LRl9eJ6lbYqwTebW7xPijxOPxLEaDvixMLUcAJ40rGBiIvC5tqU6jedeJdfCAsTLaaiRedVEBTh1QE2Aes0Ncwfdmz+odJ/990w8u9jdBlpmlCjwMUqkPB4vNNIA0+Cp5cc9oBsc6jXKb4+JTDglI99+uJZx2WIq9AnD69fErHjcgXbApibF9XQNAgyMuwisPkDXdZ/6vmebgOpzascB2o1rvcXGUhaM6Xe9aXV8B6CRUskXLVrVRSzKGiNcuE25JCDydRxm5Pn1FWvFX/TLnb0SBUqOZlQYemHyO0FSFIdmq4GyymFCNJmyzRk+rMqAqNUPm4hGMPtspeYDAomz5+OO0oCBdyHEDqBMepQGic/H7GboBxv8yrjyk6kfdGiPDh6gAAD+/u6qAASlmVrzoBPwAKJ8w08rQIOfnPYpWkL2iWLP7Y6OjbK/mKRopeFWCMGjnnH9qTKALYSmEGeLbkyGTCBCUc/E0RqR23dUviTdGcCo4iM4aJFPjy48QNZIOv3M4vdFBJtDiOfGEHYp+H2G+1OnquAeGbsv3TVkmwU4ZlwwgnTnn+SGlitx1I0ZLC0LVSeqFxi0pixNR2ls1qfEhTNLxTPxNr6lQ/fpVGdCaielr2ZmyZ3N2E3AAAA+Yaz0aYwA+xKB05YDssWrLGJz/Q8988OHRbog+KtV3bKxxzqx/JanwBfwJwyOZpVakxi0H/dC5ypbpjSW1SHQ5TNEZmEHn3oq08/4OaE625X+Emi/8Bm33inZJ+w7rwaTipmnb+gmjfYNn8zStTdvbJJuzkZpQfkajofmnxgDDUJ8ja0xMGHqlXnhEE5hgFuGhKEgPk8T3Maqrz1o5wWQa38op70PR2Q5YUPl4mrWbR9uoLNtYtngJmu9ZVOGyQ763NyBeE63vb2OuoEwn29TLN/fHWHYPunR9APBIN2n4l4rSNj8TxyLRvJc4SEO1hZVYGqi4x+RcuS0ngvzUyZvDNK84Or3Be7me7tS42Qkx3NjMLHbOqct6HokoE6jpgiNM+Cppj6SaPDC528ZSPh0f5TkpzuwbAM3hVjW336RqdE8mpM3ao71o2gHSc/dD45eBaQSny+IwIckIk15/qlWX++oDVca3a2JAcDTvLyYh8VPkulxXSFnFcHw/NOL8ghe8p1qAqudriKgEdR4m0JPj9u/2rJdQoh3ECEgnqT6Y/pyNkkYJ+S0IqkWljo1ps8acnsKwR+kXYjwyhdc3VM2hnyhISeBpSENp949OUbZyBx/m+Ky/PWQx85tvkWHrMmQkOAoak0cy6caQZ2vs1CN/TGOGqK7tIUpwz7jw8xyIY/UCf86pY686wqSaRLSnQAoN/lE1U4T/4cRwP+n18EI3YnJBX6l9WRkM2aKL2ebDArK/rt1FnwStcjp4wmvmrGjkEzLl6M/6VuqZ/g9ozEH9K/QaLe/DWQHfNl0Z39P1o8htLhvFzb09pPwlsgatZkfnqUiRgLmJ/U0XiZTRht+R9PCqtKk005nCen7oJPTSk33tZkLmH/LFYzPCCiCKLRt1u0SNvm/3fqf5ofdNrOf4348f2Tjd0uZAxyinvQi6v3Ie0PhUCTeN1voiKavPK7BZ651vu8YvC6HciOovQQNkAm6jUk5Y/8kzjVIC1l8JPawDqBTpAHj7fmqOCgsPzd/vi96TRuLzOoKpK4aP766d2BgN3wQafr9iRMBPJQn8JoQ/gnqAJjjhPT5c7Ynb8adU+qsBqLqpv3LHe+BNKJxY0Nc1Nb/NUJHnVe97vBHhfcEVIo8UnPwAbr6ArAbcgRUPnJWyA4equlMQbMduMrTLbk/Iau7rIrZDzCwagUrtRjBootgOUq6/LPZd3bfUvY+GcuKdomKg1QvOj9+vjHgXOotBqGRlJ3X1x6KjL/3A2AlMg/C992OrsaApNTNV0xjHwUber3rzHO9P9q2AsvrWUdhVZL2IOya8nnEXm3+LyKgh/Gqyn1/CyUupiSUgpHy61UWvXf7VTfZjpGS3eTB/wkC23qW8Ky5qRfbHdvPYnUG9C5UmygI8b5xBdkq1Oja704gBCtCimZquOfOMkEMixzKlcf6gHvlLjE8Qd+li68MSgdiZ94nhIU3M1HEmJBurTFJafu5wRWQJhgwL/0hmdyXPBTINtDyiEDeIuNv7KF4Dlrw6dmPHKaRfgOVrIohCJbMPVsGjFU8ke4srnOan1NYK9VFvtbg9HmJaiU5TsErxvgJ5W5nhEedVD5S+9aSYf/+UMjAkd5xtDYtwn5ZzuRnL3w2Oia+ModLivtmFahhahXzYt8LkRQYDNhPcWusr6gNhoNJNRPIwzIWyDhdVw6wpikJNvZBacZmF3yz6v/pKSDAvGMyECNJqyTBk0NY0Zf+8eaorZfRR9mHysR5BF1HFfG+9+N9IgaZqqps8Ny29DNPKtf4pE8VF+vqD0fwdaeDatd+pem3Vpm/8auyx0MlumdXxo+kAsyCLXpY5xhmwbFYCwjQn4KuKwZCAqwqXxtEElIlrOpa0vxGxzylaRzCuH3GkZ/VP2WWQSz37f1fh9uqDqc+roHn+PFwMa/CyY/R0x3kiFIjG4KNqBrEtub9NLAg0aiadfglSDP+giicX33NqWegI6TEpW4VJig/h17ZFWeU3Do9TndJ5kemGwNRwlZ3bdHR+8WfSc/zVQqMyPmnRxUTNJFLj56XE9Tmd8v47MzVfSxi6Hieg/S9heHHxNSjrlOdWcXe2/cifyJVZDe8ZP8EbuxpaXLXwwqi/epo/r+eilGCRkeiEYMIm8WJ3PyHcpPK7fho8ML+H2Df9uONS+FCOBiA1Z9U4TxT1W8XIqyO8AfpZKXyL0ePqeM4aadE7x7VcAvvsakZCHElU/Pf0LGSj+piFhLftyjhtyy6Crgyow11WcE0LSLx0IZGZg9DbcvyxLpj2Sy7J+NiRA+7hEtn7aErpnfZNpFGx6C3ypkOTWS4UkpdMCytdbwNO+4LMZXhvqf756krYkrcq2PMXqGxDbJBZv56oWjFLGUO6eK593R5TeQVQFwY8bm+CSWq0boZuQ+sL+HTxxTRbLtPrX3iyV0y/NK7RWil3mB+I//8WENU5mo/V4Fxpbr7uctka77WhRr0caFNXSwTVIyLuIDe4r+B/VMhqaO9CRDVCe6HHbjojw30xtW9yZfXFDXertgfdD4cFwa7Yb0luOkC06N84EBj7bAh6YqfxEeScbAkc7uroCqQpwV/bA5nGFVEF6EmQ8Do4wZonnvYvmN6KU4qH5x6p33XbBA+g200EDVwksltaalh96ewByMNhcCkStIeQphxFkB33s35Y/1A/Rxlwmf8fRnn/MdmkpmnzfLGwGKmhiXeSi8my6N7q1rxd+voqAlQ+q0bVColIwiTUC3g2JwUdY9krPELjsVoDlAE1r/AnKWlfcFpsHFVSU1vHAJqI/KIRN2vej7iqS+AZbvbSsYcuMZL48ZjQ3bD+yyp5lUahAjl7xrPi1x3EJMjDJIBBloVxcp1L95hsZN19TXrL5RTn6OrAJdRvrU8ozI51wrYxEyQE1W7yEuYBVHjwCyOGEiUfhFm2ybNLQXta8wNHmB+DzSpb+aJlnwOB2PLZdjWSfS26Tg/dx5LTT3E9JT4J0pG6Kj3/bvwQmsowhYl8gxcntK8XQ/6hh82jQXAt1P5LfK9jNeyNM/AJp7g8ywGvkeCkwGBXh7s+k6/t5Mj3yF9M8tDiPNLNMoEkYAP3qvhowrv7JVMpkSpL+cnfagOPgq/+aTzlrSPijPv0ZiPp5iW2FxToWTZzC+G+ysSuRgJeYsdVDjn1BAxOTjziIBIDmlilT7F9S9+tC2PLcEYDmRcjAg8LtsytXuYDwLqwnQ+AUZiVn4vE3n7gdFi21SZ/H1N200gRkCaAFJNU/k85K9RtKV+kcoLlW7+QU+ASt++5/ZMXJOqgljB8XoCevyv3rUl07whJN3RK8qipWpBhmc1+p4BIfoI6gJkWwshZq5GccuKP4pxxQVN0bYyzh4n8KBYlg4eJ60Xw96Pmts1klRXS/m54QqX02J9sIHNBh5eQ8HZ76Z/sgP0tjB87TFaI8/m0/V9fvuCNIRGG0KGhGutn6HBWRXeRd9RKv2Em4RxIzFLpLM3K3OhDixJ5nuhZ4BXTGlHJI15skS3AlB1GFL+TPQtOmglK6foXDuqsVnhTdgrY8eDHgJsrBeZfsyXaGd0Odf0Ukk1X2Q3qx6YhSeoB07dPeBvC1czLWPgHWkAtyV7FL+ILM4VErkPKQunSeUX3Z4fRaOL+0ee7Kd641g1QhMdWstVOuNjSCwiK5UbDjG92MfJdr1lyhK6JxCZgEYs4uAPGvAwybQ5eyq0ZGzgEJULR33VhzzCjTOwCidOZgeMZjbWSED/6s5+LMzX+deGLe1DjInZ76P33Ct969ovv/IA22xf/iXqmwgyFiMinz3TXNfTWp01HjX/Ewz5nh+4R8aVviWbOSWBPoMZOLd60m9z7QvYjmFNa20Y+uLqMxiCTKkC+3ksWFsIM23+vY1XYbo+8eiTl6nXyWuJJpWG0UBAN3udtj+rXFddQTCIlcvg+I/hdJcgeMNGJb+Uh+F6MHSnCNH5DWrPRNPNv/qjoOGtIuAGBc9DsBsNJFrhlh4Zg7/jZuyEu/JGaw/ss0iddl0Hjk0KFjPCpPBoG+Fbt71URHxHhvSmtp15ICCQvAyWUdWEUVsUAgObm0C7e7LGGlUopkxnaJyr7LOhqMbXljxpLR8tSkuoFryy2ivDWIXI8ry5t42gKOZzRVnLWBlYhNUOYLthorOcsLhD5I062ncWHfRdxz/Qf4NiqLBY9khRidCeCTOElozYr/U/g52l7unSD+d4MFg3+SGcw6aGJiObw0JVXsQDaTiV9Z89GjQupzUvSi5iFKvkF9abjwlRdiCYzhdfu7K/OYzSBUhK3JwXw0m9yNydME+x1eNH4tTRDZ5qCW+U+Ohy7ow8Si4vPlTFieX0W17BJKufCpoAwnEa7U33vU0yBS/7iioNLMeGaGTxLR2dnAt8nuZO4W/xmG50wUWjpxcYctVSNL/njbdOhoD9kl9DsU58GKi5JnlitPsHf+EHe6kxinSi/VkNPGhwBVU4jjCZO3CgK1fn7+DrVDY9F6mo3JEi7wBlunlmgW/iSPfxECnzk1NJj6sI8UztSyOHrZvk9DHY+2RiAHLXep25LXS2rJYBDMz23rFYJqUaDcOZVCzUPI/q2qXXkI6mGX1LHSJ0Sf+T5wsEAvjrC+h8AqCfb/h+UeGs//cvILxVWdGCp0TlSP6jTQc9FTut2g+8NIXKvyHTjDcOmU27TvORVcs7UJ2Z4wlj3fPamx4QV9935wIy2CiCHTXyDFMvPXoPrwuHK8fFVw+3Af74dBncwDEDAdz8+j2CtJp4tURvNa91e3CdHihLIIwyc/9Vs2dk6iLx9ccToOc2MOpPT+2KAr5lG3Uv+bb6SqvpBo6i4VABCQIazbJuEtGCd95URPgTzYU2XjiPC0M1LWwFzspht+yJXYWlE/4ozcmwXeFFBqYhHFhOEEiKhAej5Y6tw73zVF6dhCowQt2/G6qQVQqvrKcwDJKJAzC4rL+Ic4M7xNfX233yVlThYHmtiOlmVHoAIuAafpK7YFTmx0SNC7J7EM0+QOtNWTVRnyxVIzzFFB2vzb7OkATnswPqFD15s0cDlK5qQOpomXcS8VHrlnTfo1HcBesn04P1IkIg4f2r07sZ1TAa0hR+L00hfjWDV+53f2NW4U/jaIO4NGiFquqvLjmDEwVN6RL7dwt7CZiX76w5VHty6loUhl0sc0fv0ux7ifkSj1PcXMgjVAKsVK9bvxqyxTNfJ4cZSyql1WEoAdSjzqzbbG8IdngbiIO3lJeEnFqwr9HD9vUP6Qxd/jG4xzW3OewtjfEHBG9pNtd6toPDYspjE+9s1pGjymJFWbLr8ligEDhUPosjt2SIUnTBXqRxKLm06Im7h0NesZ78RaSg+MhkMum7YDxYV4s0JcLfpE9b8sWYndbAopC5fMRzwLUFrOKHihWjXZkCT2azEMsUJLINEIGi3aB97DwSphFXiFeSOR545utu+nYQa85AC68uLB1/cOHerK1pQuNgZqtUlujefPxiGmIPb56P6iUMg45RWYGjK/0K1zDzxfOS81DDcLZ/LTBAjxUm04ARIZrxkjzS14uEg7Qq+weP47w3Tgd5Kg9b0e5u8Y1sWn5evofpZmCXmeX5NrlGWwqQ/JXSE4scVTgHfHpcjIUNlZxz871iw/xCEjKs8EVNfyLvqZq7/mNkap76E7m2PSNsLWU7iMZuCopOp/UHgroKns1ESiahqY9kta1oiu9zeWzXmmw/k8KYFxhA/lOxpa1SDhnY6S5vEnPQtzz6c1eEoDJZ82gXnhdai4AdKd/d0VbDL6S20FEhA3KmD6Q3p7uEHami5LYSzS4ynozm2QXvGEG3xg0ag7GNfV/HVv8XMry65SvPAi25TUgIX1hDp67TjfuHG+cvrH4VSosTFK9kfM0VHbR5fKcaOA4f2907sxQpARvEsxLfnW9T4ZOFxJCsmdnCvJz8miVpEjU7xeeGlLmG55Tbz1bUZmTKuziIpE7uUUJA2nsJ66rKpTbdRy653BfjAifYV+HE58v9eV1fcs9YMhc6cwvCYOqJ8mRC0t5/GadBwtlUDJtmsiHhUzqtgwk2W5EWupkxIKkUzjQh4GRVFUI8Sohp3wiRXyA7+nLeGgiPDCIVkotT/R19QrdeUVvcVmg7wYOtO/9NcSjjDiVSkNOsFlhfBIBGtLBORviKY3Old3QaRoxOuIKB9AZn3XXLbOLI1Jp58mrySi5L87jyRRNVyMvtiieTupz+PXihKVSn9O6OjvjL6hMd/NQCv98rc9dXF1mMtDbdcnB80u4Zu9FD+m0K+y35tYtv8Hw8U3wWD8eY2a4sdKZPe86Kud127uLTWX47yw7QRdAQwawC92UTU9egLgltoHSGLkkp/4zXxJ/K/86AiMAOq80+hLZHdQZf5D04LzcbGcOuntmcpMNz+rylqle6QQH9nlWpCyYJQaOL0ZlICl2NocZQpZmimTvX1VDU1VADPVpKEtZgxD+aLhMPyo0JebjM+y4eu/61rA35Dce4TkeqPbYUwTCTfxOLBd9EKaX6sKshfndPiU/oNsRTVn6VbcNZxJlKSaE2INorAQ4NBIKFdHmi0JZxJyRPO5jAeUCdlnq11AO6PoCmFxwKlSyT0wu+YBbYalhQ61Cn/wbToH1ITe23PFdRJz2jeuES9d2mzWzP3FXiRL0vTCj+2ZNH2Q+c2AspmjwDd/ruXQ/Lsr11aXUGbtbOP+7oZdC8w21RoyXyMQN0xKZfWTmrmRu9wpuaypm6yvJSnv8VMIi/mYSFpCE7s5uwpiwxrtLv2LuVMq95bLuqVs2wrhhw9yHpa4Au6eTpYVcbHBV1UYm2Dpg1fkNTfzTj+KBoMf5+AgEBkSPXm9zjfymd62eeL6LFIEf8rqgAvjoej2Y+P404NeC6rTlVH8dXTGmAe6dpa+SulYlOytLS8wEq4FtlyOkFodHczpCO2da3Y6lYMAIte6nN8mA/glAMhR0YRWn1QyszXnuVQBcAwZIateLzPCxgUivmjYxnPj/g1zt6rzWkCrtPbiokqd4TLBdDE9EfGfCJILF68qq+9I3yRaR0/lYo4t4bgVMFmTQ+ycno+sn3PV9lQ4wpGyxsFwgJCnTkm9bBJUhgp8iAQJgSRwWrkJKTapCfHsV4WFR/Efpj00HGLeORXvY8KwIk1qz+jXlheXdBa6XvHkrC1KQMRyAK50QYWdK7UZ8wCovcB6nxA/F2VplygAWbFZw7eLQRoR8DX/VBWlKI2MJ3dSuf5bx4a6zykiU80+eC1CI1HiYHV0OWm+DMto3A/eHiUvo+kroapknKfiUQsoEm+rBe7u7iT2cfdsKix/J/xJ+czi77pDEea86/A72pOs3T87p7KKLwtMYMsEu+DCwGYdjFj/IUh3sYaMCN8WK0fXQaoUxLwECVByrVhrv3COpS3AhsLb587oZsYT6xF1pBQWR+zHwI2X7rP0UDvd5daMzCt5lGmvj2rxaTIJfI87H9aAhZFqzw7CeSnVdsAwlcJ5CeDX/F2xsJe+Gcm0frKtiVENTGTDS6PBqvN7Dhln21+YP+nMl3bdwWTBXxyiI7jU+opHJu0RFWIJka0fUH+y12zMsWEuRRdpslWCWDwp0vxvGmD2iUwJjRXHYNVCam12Bt2dDFZwnEiisZP9vwWeARm3aVmk15/x4LXkqEyl62QtV7+5J9ld7sh47D4T3w3WnIexT+2LDNHn0Uk4IZ5bE/yIBHu3Xr+xW1FDWvbnumxyN43L0D2zhK4AzhYR87o9Oca26sDrDX808SXRZQiI0hWrYs+GkT/qG3Yx+h/0p3CVOapT8EMc5We6keQT/HcqD/lllhNtV8occWlMLrvnQ7NBKjyUfMJYXAn2BNJpU5DIXe0obylmO4NYp/7CxhQJ2YFEX1RbxmCVRsKqcDc/c9btTHCB15dtofwwdLLomGYfYgcd0Mb9TyxM1ZHmXeHlQYbKw2qhPqlppFHxGsJkEfJVXJ0k7tO3O09RbindhQVJvbwj4kJG1WcE6ct8HLirTzs0MPhhRBKGUy/G5UZCM4qchxMjC94HfB0G+nhzcsZA/N0Xp7BAANCOli4YDbElq0J4SwRtpqNmNQgrmqTch5amRSj9a5kAAZz5lRnXdo9YAH4Ly1RnH4t9ageJmEUSTDCQCBln+2oGPOPA/I1QfjxCcrE7UblI50L8JM6ad6LiGJ+wr56ZR2HQ9IscBrKw26FKaGQSZGaZo+hO59DotBqbz9fRAtbxTQbNkksuvwjL/8bXXHgnA7ZBgF+hQHDqFjTacyjMJTLHDTMNGbGGut+IxTEhjraq0Up1hU4mAcr0NbgdAwisYuSP2FmyedhyAc0oDinlGn4m4aQdzwFBjEMmANWITvy2A/qh3Jx4pCPgFAWJnPKikA9tXGviueudPPjn7o4iUr6K5Pn+ztqu4ZpfKXo0n4+cUqomlJIqjYNVIkPFfs0dSxwM4hgl8B1Ep8lGwf6bgDmGLI7NmdhA0izQ09AJsuCY2RSo8Z+YQiuwmsb8UgvSEtmPi0TJNTTCIuiZrhaanGkZJsqyKb/um1TlbZK8zK/R7UmjKvp3Pb8cCo+M81Q2pHw6pskluEr3gMbdr8BGK16qZcffsFIScuuqDy+DUS9YpVFzmhfOqqIwIfTsC40NgU1FMBNme3WDQh4IriDdAigo2rrcj9fkfJ1gIG2gUZn1+NcKEd3kUaLmXqZwOAZ3p3UuqprPwNu0klJuCs3imZSg8IGfgV6KFkIs4ae0MXwsP7alEqs1nmTSiypOqj9NiE4nZp+h3yUsUHrVzZOzA/cPgQN4ZnFeQ52LRvdZLKuaM1P+gsQeNjhLimpaQxL0ZtPZ6wKdIb94BmxNzJLHbdsL4ES5MDmN6X7IhMjLGUJvLH1TkmQGwtrjXttIJGAIO6e3Y8+oUE6Om0gALLqCxDgAEtg0enlwq7xr6PqeYC9wLQl7vNQy+hA8SOATU2ofYL/LM3Gf47PHKxZX7lKxJyZV1CNDzSYHi0JW5924keMk6DWaVvaJEzFNHh+2KDCXQ6kBplFZo+sVL1ackF6aBOBiNiDtas4eeYJ/Uc/0M3qX7734l66QJX8/u9rRgWRVESVkD/euzANNHF7t8OtDqueIIN7SK9Yqo5CsE/vXnwroTK0SJ2rxhbQUyW5TCixoibQCivVXBaQTa6G7CuwjAA6ODH7LY8yIw3XL642H+NBP49GGbqbuYWLxPWZgmf2N+V640kAUHIe0YIzLZUhQ3JCyoUSZtOG28RtFTOa4FGdexB6/v/7dIlPysuhJ4fMwJwE4oBaDvTIWW+fRZla79x4O2sfkjpKW4LLIIYSxZC/9j+oyOkfdNOQ1kFIltYXCGKG4W5KLOom9IKi1/Dh0GJJdTwepUfjJDyrrvps3gAEqAIte65SNIFRoTZI+Kk1GDFS2Q/zII6DK95iwiYjEc0pjrrePU0DwUCEEgG3UzqY+RdyHajx1nCXjmMMDgGa/a0h66kJME1Pi0ECeOX4yM/b0yyYgEOdEWFgBPogBpLt7W6mKJB09ABn1y71X14bzMFitDESV3T7X26Z9OMr1+gtj4Bu7DtIYFUnFBEHh0TLyaJboFufbJ5bvwqm2DRX5RuExg2uXtl+546Ttkxrz7SXaQSuFuHDR5pbmnWLHyJZRYsoMsL6ZWRYKdEmKHFNN358UXEp5/tJIbqPChfX1i8JAr/2grRgsO1W2ttVEdnhuQl3xRA54vBUfywrt4Gy/QcXrix0Ii2yVdIJ0ytZiAMzZq45bcnSNsD822t/R/ZzPL17i5JQti1uq7tOrxFwGEQNseXuF2BpDwDTADkj5DB/iChC4Zb8VlfSh2Si+VmkwWxRtUyVxL7Duu/2bG4BTYB4i+3HoU6a+ef1pO7kZVjx8bIiFfkHeygD1BEGz2AW6Z6knEjw1nR+rPuozCkPEDUqrdqOIJhEewZ6sCYTvpHT85y41qp+fhGDbjQ4INGlzGXMgW7qjFtUGc4A1yca5NQAsfQdwuGYEC+qM47EfJqQ24vqtXCm3wwgnl2c9gmpzqpC7juXqeGD+rmdZugyUbwKZCkk4WTPzyRywO0l6Ft2KOQplv0QKOuH5/mGI+m1D0faYJtJU2Iy+Epbt1l3q36wR2o/JLGXkvKRb3Ph+2/VSGsSwhM9uuhRVf8ZLtbn4d09ywrmQ4a+srmyG10FW+6HQeBWzAahyYDWl/4QrsKaAFIp1jaEffSUU5w60lS41L8LMQSxAS7qT03VtJKU0SY6+Qt4/pit/0ZD1vwbPJC2QStVv1lWxOQFua54u0/A1UCCjv4GgJHEPLvXiNRh8i+qZ1stwBA/7gMTt4ll47oFE6QW3G/xdztQxBJ42jTfENgl84FbSP9ih/SSlMTeYCv2nIhPyJrgO7l6zv8ZuDGIwrbQsD3U8IZLlVVnNSihEQe+OIH81xY3iJp0Oga35+fR39EOGhXAZHcNjbdNBa2VmiMs1ZVc8IxdXz2zT2Ij/MDp9Vh7xCuMi7N2tqP6jUM6AvjBpZ4G/14+Rn4KTRO6kTjuwlUWEJOEo79RdUDvERvh3WtuZK28r18FgzBU2SJEWMEdxCeht7iBcxSi4l+eLnLnt/NDUaNv96llT4Mi8FXhJpzEN/YUEhv4RgjtmuHiaNJlYXTXUN8A/kev7Pc4kAd+RtQZ/byYGtQER7rLuxolvsWcALZLl7UiW6ThK1e/LkYZx/rNjUJ1Kop0Pilpuupy0op2HT6KA8ZVCAS/XeQGmlJ8FC0tAHZPCMpyuAFwdRqPG33HNA1LjfKeLFDBoK2ytOJdojjde9+eGJhoXIuiKErJ6Qiu++IGPuKRmy2HgifhLyk6BdWM4zeFdHOVi2yL8GsoIP0CrsNT0q++mWm5T87v3UaxnegV8hY6Zu3IuXPWqT4n2U5288N//Nr6KaiA/eA9DtPjMuP7vaOKk/tAKIs1p+OL9YdFEqTNaiRKGc5fDzKHhmVwA6mCU8fGab56gYqGu2RTlQHwVXVS0y8C55n60KKtUiV7h/+JO6JwX6O1/0e3QF+oc0d5zaG/GmPt2b87ItlJTJZegluVb9Y5nD64rt+1+48lPM5hMc+Fh8nDpGYRyx23pgCXenLgpvBJblYGvEFU0Q5PHQrQtU7EQd4hz/7+bgKWzwjQr5U6JlCENg0LyK1RqRcJqq9MbFA1BUUReBsGbdK25wHdq6Kz8hS3VSmnY/CAvgvjpuk+YTUbetO1hRr9/5g60yRXSLkihneoQ51VldyJkgT0V+e7/ZKnQwyzZVYmT0dhC4YGzNwZOYGER+sWRGqFH74fJYvz8MvbV8ZLXyJ2pT8clDGrxDYQ3oTYewE2qPufxYHs6evrse2/oaQEaVI9pQ6kH+xkITQ35DzBfrdESKLMvuSN+Cq5W7Yn98hKA+wd7T0ZEPuAb+P37BvRRbTue23fi64OXEGqNxg8Vser0uGL0sKM+EtszZaJSdKhZbeePeDUMN/KZ1Bu3m2bIX9Y2qeMv2j/dYeJ/K/3/3Q7aP1kBFmIAiE5LKjrE80JBerMs6WPs6SsMhZM70JGAC4mP+K5bYv7pxta5wy2qyCS3dDL8SWqTKZPRaP62b9oviL5MpVKf245Vporn+Ocdfo26T+ZI3vueZH8urDV3K4MAkgqI78ouLw7Ur5m/qamdMOeSGyxm6e/lMbltuvC1E3KzwdP18gs+a/s2bMvdGOIGBjGHY9Ma893AJsEQjYg9Y1e8KrCD8m5ffTbMEnI66Hw+fkCToDYLgQfkYpRSqJFT9w7Uwvp+FootSQ9z/Lv/60Xdtx0pfA/FSbTj3tgoyICG2eE5A/2FGwio2r4LV+CDdX7wTAu5/8gNp0CgipHKO8wR839m7IdMhZvVr2MB/pEHlrY+lXvoZXamv5w0V06iUkAGTYOsBa2J3djd7JdlYCl6tWGRZ6En8NA2SBi16cbuhWAZKnWqjROynKruO2XVixS00WotcHWpuZkltAW7nqhUnjq7gquxazyxChc29Zht9RBrCgzovDD78XZLjkk/0B94/xy8qJnbXdtfrP/HM159zwd39pCkWiXn8wjk+CGVnJs/xBh4Bbs7Lg7Vh8K7PYb7BaFkzaul3cV3PLHkn+r5H5jvouvIcW6T1slxqol7zh63f0SPV8klntoldSQUukJoyEBcUQtCD7ScaAG14aadoHa7RwrIhUHalhBQ6z3lfwo91jBtCUvtun6vAv2sJTltSqTIp4l3//bzXGoMINl6i+VDv/kTVL/MbqdfpWjM3QLi18z/H1AZUp+okw5CzWpGTW5HI8xM6LQxVz+TjijgTv+6l6Q2rpNEL+Yb0Bc2HeII8QcAo67XxBJtjeYQ/R8iGHPR5+LKh02k8KIfI1Bk6S//nzemNkO4ErYQe9HY4/N2zZoCNYIrfAQe8CAIn7D+b82IQ4hohlemIKoZpC+K8ivKiFWdLc+fO/XQZukcOd1XUT1BH2iz/Fzm14u5uw/YwYs8yVLFGR8Xi5aK4lA0h4pWxAPyQSOz0pD5o383jrMN+lV9Cr/7J3pkPjssHis7mkKTSdD9L7lK9pZ+Um6pdti+FMuFsGCPT4ZuiP0S3TXz2kUuiukV1kwhgX3yU0ezUQLvUfvNpFES4QV2PssNCeJZfS9dG7Sf0XlBMpujFVqm1Slf1ljZ09BrJmx64VNt+j8WW850LwqK8039AoS5tOPsECuWaP+mJAhFUzni6WMqyrdo06amRh5eRtQLOBwcxuJWdtqm7JfgtfFPg18ihue3vddNUP8AaT0c3Hy6FWyziBdbwmqfpdfyyY5Ry4ct19ikYJs+zzuiUDML2RFco//9U6hiMx3Z+wGhX4A6WldbkkVIuFhvC1GgGoN4EguaOjqrtFL4Prl66UtBE5AvITR+P2eOE9OLHzspbEpZIsItXS5Ub9OP5gwdEjE0z775A2oIuCSB+4/iy8X3UqYSMC4oGfB4VdS4lTeADxQOK4GfaKKomGYKH17hNqazzYFa995TV6nTK7RXCkD0irboLwo+EOEMh6mMfiuTPHYgyitk7cyVom1CLB7epiLzYjCeUZG6H87hUCcQXeBf4h7qO/cVRJ2EjZEUedY0KOtZBJSsP8sEf3yq1cCGTHBS/Ej9Z2PYwUD6ybe0xm8onqGmCqthZmAug/yDJ7P/dtLJDhNurEoPwubAV1Cd2Yus0mth/hNRA/6r9+agW4BhUoIJIP7mRNJQZXVMI8SlKoPplw7coAq02KrmMZU4jYzy/iczvMMHC9W3fTA9JXYgY86udhULkdAT+wjfxT+/+Oxqj9FHTvUl/X7j+KliPCYdbFxBPYJuH5Bli3Sjd+4ayOCJ4aLrWu7rr+kqU21MD+h852O13ZcLpa1I1J8PsgD5mtenlP6Q2rVAzNr1Dy+XOtADJjAD9YPDZCWRCZ79JA9YASFm9Jxi7ts073c4p/osNzfq+3GO+Wzm3iquoZ8fhmR5Dj8eTaYgSTfI9VdAky7+DcfoJ2SOatybq/27xhQNhxWnzRZWVl/pK4FCpiggrjBC6+55o380M/A03HOcxqoAlPFPadTYz20bdz4PuubEuU3wJeuCWRvAg9ST1tVAYUk+NzcMRs7QDyywS9Sg5KA9WEZS0A2caWjf2zn+MJLkSxpYSiUL/VdosDcDXPkiUSmn8xFwmHgqYd5/Mwz72wgi3OZ381AWbwR6g6KwfUPADj//99cMD+fWN9mTm7WpkADXHg5cW54mBqoiQGqSC+IR2UJkBnupldLkFXVV9Bkibrb5DU9fV9R5ESef6vUUPdb6gGMjv0ZWBEjNfUcFTuVpieESzwnlBjyE1bPv+ZOp1HiW0HN75RwCoVlqpAErlfdaYR5B19Zn8sowoB74MPHwccyhEF7vlLZM0cJpkbEk2S9XWI8fOlZX5t8LwXuwtfy35sXBOodrcAYZuNwr0fokO/Qpauta0M3gM6V8CLTIsWCM9GglgHBMqGBKtZ00O9MOw8MTZpMAJ3P/cjRRP/L/rpKxvxH3uRL9osp5KlT+E7LbZtTTiq4c/cp3FSicPmThWC8VugbTj22DZJPhIVXy7sXIUwq/IpeQLea6xRpaGi/cCMWQkYwoOqQ/f5GcP8CLTeZAtpkOMMttu/cKLHl9tpZSyuN3iH1SK72lXV31LqMNXPHI3hsqdHqa/byO5Ykuikju+DDu6xAFsatTCsEf4aWsq5sVqmL5lzKp2/m7Y1KMSNLi90+Ld5YVFUzSSWTc/HyDt/J/vQyqs5Rdv5bkU15r7kyMUvy/6UagubqWIZADs10y/I61gGLbz4txOuGQnK/DHLHnfB8x4c/YiG/I4kDrtvkpnyUYd5kGPZsGSrJ3PvKYHMz/8XG3uALs2C3JLPkyl/IlOCvTezCIYAuFAYOfhMaI/kXM7Iee5Gt/Ubnka0VKcmhdfan/MQ2XERO6vt+jVQU7udrZPHMJKZkKfvqLNkzPXYKMuWY3W/TQriezaKoMgB+1reALE4YCceOGGnPqmXhMvd7shRigWrOQK+ltyE0dPw+smIDH7y4UZCabwqR2MltNZBVoYXbZBkhrUhkwQqOymdVjbzea5rBEc+VaCSj1VPer4nMzrF+6OS3U7zBCPZ+y6ddLaCQpJz1lYkrGVk5CmVHzrV1vdFdXyfn6OENQ8Eo1PrmE/M+3ErFjcE/66VHMU9Ij3sI032RJAQLjPJ5iu9bAR33XZ9LD8aCkgwu7QliPV74ZIJYM0RPFXdDPnR8EMXv4t/mXiOPrxVVdv9sTwJOIDRxEvZv+NbgGVUBhp4d4czFQgdycIX9jhSWIKvrQcJ6A/9mIS6VdlvwcaZTqKLZGLm9J1pJJR6xZCyfdDufl1r78mLn1HzDVOmgh/8egD9e0pNYZ0TOMDBkWE8Uhw3gwd/L/c5FQugpCiQ1vvSx7Bkklt8Q4/qmOIKU7p28Zos+02vZZqOYDI4Bm1gehe9wpw32nQPzoN5b6Ll34gAoWrt+8Psl8B1c+/CuAE5YWdS5kOhGJh3gCFP/YLNYDaWiz8OrttpvmNIWyUpte+MC90rdvIFM5CMsDIYRQK2m9LTjCR5uWL1cpJLv98zRaGgm+4NzsocBEyknJJzZ78FhIpMunxXCwE9wOdM/lw82F1v6+iQvXSst4JZCEn1BU0jxPqfJgvk+qffy6TcG8LefwJIeb43BDdHysNFwojaPtOoIAXxbCeDAAAA;" vertex="1" parent="1">
          <mxGeometry x="630" y="630" width="50" height="50" as="geometry" />
        </mxCell>
      </root>
    </mxGraphModel>
  </diagram>
</mxfile>
